<svg xmlns="http://www.w3.org/2000/svg" viewBox="0 0 81.15 81.44"><defs><style>.cls-1{fill:none;stroke:#000073;stroke-miterlimit:10;}</style></defs><title>Art</title><g id="Layer_2" data-name="Layer 2"><g id="Icons"><g id="Art"><path class="cls-1" d="M25.1,23.47c3.7,1,9.23,8.5,9.58,9A346.08,346.08,0,0,0,67.8,74.63L23.39,31.76C21,29.48,18.46,26.13,20,23.24c1.1-2,3.83-2.58,6-1.9s3.9,2.29,5.55,3.86c-2.67-3.25-4.92-2.08-9.18-2.7-2-.29-4.5,0-5.26,1.79-.85,2,1.07,4,2.81,5.35,15.39,12.13,31.83,23.7,42.9,39.51Q49.72,53.52,37.94,36.92c-4.72-6.66-10.21-14-18.5-15.46a3.09,3.09,0,0,0-2,.14,2.45,2.45,0,0,0-1.07,2.16c-.16,4,3.42,7.18,6.61,9.86a177.68,177.68,0,0,1,21.82,21.8c6.65,7.93,13.28,16.91,23.4,20.06L36.51,35.93C32,30.28,26.56,24.15,19.16,23.53c-1.47,3,1,6.32,3.25,8.83,15.21,16.71,30.57,33.55,49,47A129.44,129.44,0,0,1,56.28,66.78a85.48,85.48,0,0,0,15,8.87C54,61.21,46.31,37.8,27.12,25.76c-2.77-1.74-7-3-8.87-.39-1.7,2.37.47,5.51,2.54,7.65A439.82,439.82,0,0,0,71.46,77.69L50.23,50C44.66,42.75,39,35.44,32.09,29.35a14.19,14.19,0,0,0-5.33-3.3c-2-.57-4.52-.18-5.78,1.43-2.34,3,.85,7.08,3.82,9.61L67.6,73.77"/><path class="cls-1" d="M23.37,25.13c.45-5-4-9.22-8.53-11.55S5.1,9.82,1.49,6.23c2.5,2.68,5.22,5.5,8.81,6.33,1.47.34,3,.31,4.47.61a10.62,10.62,0,0,1,6.79,4.63c1.31,2,2,4.66,4.06,6,.38-2.91-1.87-5.6-4.5-7S15.49,15,12.65,14.17A27.73,27.73,0,0,1,.37,6.55c3.88,2.94,8.91,3.83,13.38,5.78S22.6,18.22,22.18,23c.44-2.54-1.28-5.06-3.48-6.43s-4.85-1.86-7.4-2.4S6.12,13,4.12,11.33A13.75,13.75,0,0,1,.87,7,60.2,60.2,0,0,0,16.11,25.1C10.61,25,6,19.12,7.32,13.83l2.74,5.41c1.34,2.64,3.48,5.72,6.44,5.27-.78-2-3.66-1.64-5.67-2.38C7.69,21,6.76,17.07,6.62,13.76c1.88.87,2,3.4,2.58,5.35a8.08,8.08,0,0,0,10.29,4.78C13.55,24,8,18.79,7.85,12.92A13.26,13.26,0,0,0,15,23.21a3.09,3.09,0,0,0,2.22.41c.74-.22,1.26-1.19.77-1.78a9.09,9.09,0,0,1-7-2.66A26.44,26.44,0,0,1,6.48,13,2,2,0,0,0,8.6,15.33a18.74,18.74,0,0,0,6.25,9.74A4.12,4.12,0,0,0,17,26.14,1.64,1.64,0,0,0,18.77,25c-2.1,2.08-5.93.76-7.64-1.65S9,17.86,8,15.1c-1.39-3.76-4.73-5-7.22-7.87,2.86,3.43,7,5,10.92,6.93s7.63,4.94,8.06,9.13"/><path class="cls-1" d="M34.64,42.21a213.33,213.33,0,0,1-16.45,18.7L20,58.4l-2.35,2.46c-.21.22-.44.48-.39.77s.33.51.6.71l5,3.75A111.21,111.21,0,0,1,39.21,46.55l-1.68,1.09"/><path class="cls-1" d="M43.68,34.45c-.14-2.63,6.94-8.47,10.26-11.07,1.41,1.76,5.4,1.82,8.29,2-1.69,2.43-5.78,4.78-8.09,7.13s-4.28,4.73-6.52,6.77c.66-.06.27-.24.4-.56"/><path class="cls-1" d="M40.83,32.48a167.51,167.51,0,0,1,13.87-12.4l-14,14.27c3.88-6.77,10.83-10,16.07-15.51-1.79,3.67,0,8.09,3.23,7.89A11.13,11.13,0,0,1,56,19.89,12.29,12.29,0,0,0,57,24a2.78,2.78,0,0,0,3,1.71c-1.44-.12-3-.28-4-1.3a3.73,3.73,0,0,1,0-4.67c-1.36,2.17-.76,5,.92,5.91s4,0,5.86-1.6c-3.46,1.93-6.55,5-9.57,8.05L42.91,42.44a85.6,85.6,0,0,1,17-18A51.24,51.24,0,0,0,49.5,34.85c-2.14,2.83-4.11,6-6.76,8A189.31,189.31,0,0,1,58.17,27.06L43.9,44A77.15,77.15,0,0,1,60.36,26.26L42.74,44.45A230.34,230.34,0,0,0,62.89,23.2a7.33,7.33,0,0,1-4,2.6c-.16.54,4.24-4.12,3.78-4L78.09,3.28A121,121,0,0,1,64.62,12c-2,1.09-3.95,2.12-5.87,3.38-.26-.11-.14-.27-.4-.37-.13,4,2.26,7.29,5.58,7.57a1.26,1.26,0,0,1,.84.25.72.72,0,0,1-.08,1c-.29.24-.61-.27-.31-.5"/><path class="cls-1" d="M55.73,18.44v-.37C55.13,20,57,22,59.38,22.77a19.86,19.86,0,0,0,7.46.4,7.26,7.26,0,0,1-6.09-.79,15.27,15.27,0,0,1-4-4c-1.32,2.46,2.35,5.52,5.49,4.56a12.41,12.41,0,0,1-4.06-1.7C57,20.38,56.4,19,57,17.89a5.56,5.56,0,0,1,2.26-1.75A47.42,47.42,0,0,0,74.88,2.74,66.71,66.71,0,0,1,63.22,24.42Q68,15.34,72.43,6.14A97.68,97.68,0,0,1,55.17,18.59a15.12,15.12,0,0,0,7.75,3.49,3,3,0,0,0,1.47,0,2.21,2.21,0,0,0,1.15-1.33L72.16,5.88a3.63,3.63,0,0,1-3,2.65c-.63.87.52,2.14,1.75,1.94L72.06,7.4a12.45,12.45,0,0,1-4,4.16l-1.61-1a1.84,1.84,0,0,0,.72,2,.59.59,0,0,0-.63-.74c-.44,0-.52.68-.08.71s.21-.72-.12-.48a1.81,1.81,0,0,0,1.08,1.17l-2.84-.05a1.74,1.74,0,0,0,1.28.57c.51-.06.68-.78.17-.82a.37.37,0,0,0-.29.65.81.81,0,0,0,1-.14l-1.47-.59,3,.81-.92-1.06a39.44,39.44,0,0,1,4.92-7.27A19.4,19.4,0,0,1,69,12a36.54,36.54,0,0,1,4.1-6.89c.46-.25.36.77,0,.46"/><path class="cls-1" d="M14,63.43A10.28,10.28,0,0,0,20.77,70a45.39,45.39,0,0,1-9.57,9.27L4,72.76a58,58,0,0,0,11.16-8.45,13,13,0,0,0,5.23,6.2l-6.46,8.71c-.43.58-1,1.21-1.7,1.19a2.14,2.14,0,0,1-1-.4A19.75,19.75,0,0,1,4.4,73l8.77-9c.29-.3.66-.62,1.07-.55s.51.83.09.83c.38,3.92.09,9.38,3.35,11.64l-5.06-7.76a8,8,0,0,0,2.63,4,20,20,0,0,0-2.83-4.34A10.42,10.42,0,0,0,15.14,72c-1-1.52.28-6.07-.7-7.58L19.55,73"/><path class="cls-1" d="M35.14,44.53A76,76,0,0,0,14.41,64.18a13.45,13.45,0,0,1,7.35,5Q30.17,58.67,39,48.39c-3.36,9-13.66,14.1-19.8,21.76a6.58,6.58,0,0,0-4.42-5.28,103.51,103.51,0,0,1,20-21.71C31,51.63,19.87,56.05,16.35,64.58a7.4,7.4,0,0,1,6.18,4.68C27.76,62.37,33,55.45,39.37,49.36A156.75,156.75,0,0,1,20,67.53a19.13,19.13,0,0,1-3-2.75l18.78-22C35,45,32.79,46.54,30.8,48A46.82,46.82,0,0,0,18,62.36a21.43,21.43,0,0,0,3.47,6.06L36.23,51.8a.7.7,0,0,1,.56-.31c.23,0,.3.41.07.4"/><path class="cls-1" d="M40.89,52.13l.32-1.87L32.76,61.43C29.59,65.62,26.21,70,21.29,72.22a93.57,93.57,0,0,0,18.78-21A98.37,98.37,0,0,1,21.13,72.09L40.07,49.44A83.61,83.61,0,0,1,21,70l-1-1"/><path class="cls-1" d="M13.06,63.45a10,10,0,0,0,7.16,6.05,47.92,47.92,0,0,1-9,10.33L3.63,73.89a60.77,60.77,0,0,0,10.59-9.63,12.71,12.71,0,0,0,5.6,5.84l-5.89,9.47c-.39.63-.89,1.33-1.62,1.37a2.06,2.06,0,0,1-1-.31,19.14,19.14,0,0,1-7.19-6.5l8.17-9.94c.27-.33.62-.69,1-.66s.56.8.14.84c.63,4,.68,9.55,4.07,11.56L12,68.49a7.86,7.86,0,0,0,2.87,3.81,19.66,19.66,0,0,0-3.1-4.17,10.25,10.25,0,0,0,3,4c-1.08-1.46-.1-6.21-1.18-7.67l5.63,8.24"/><path class="cls-1" d="M11.36,26.9l.23-.36C7.52,35.64,10.31,47.41,18,53.61c-9.9-8-12.33-23.8-6.07-35l-1.29,4.81c-1.59,5.92-3.19,12-2.51,18.12s4.2,12.28,9.93,14.18A34.67,34.67,0,0,1,10.93,23a49.09,49.09,0,0,0-5.7,13c-.87,3.17-1.42,6.55-.62,9.74.89,3.56,3.35,6.46,5.73,9.22C12.1,57,14,59.18,16.58,60A36.91,36.91,0,0,1,7.3,27.85a29.18,29.18,0,0,0,6.58,28.72A53.39,53.39,0,0,1,10.52,23.8C9.94,29.24,9.35,34.74,10,40.17S12.79,51,16.79,54.68c.33.3.77.61,1.18.45s.27-1-.14-.85"/><path class="cls-1" d="M28.94,71.09a3.35,3.35,0,0,0-2-2.16c2.32,4.5,7.9,6,12.88,6.25,5.18.25,11.07-.77,14-5.13a27,27,0,0,1-24,3c4.28,1.34,8.7,2.57,13.17,2.2s9-2.61,11.06-6.67A37.25,37.25,0,0,1,34.05,74.1a9.41,9.41,0,0,1-4.65-1,4,4,0,0,1-2.1-4.05c3.11,3.46,8,4.78,12.6,4.49s9-2,13.21-3.82c-5.44,3.56-12.24,3.9-18.7,4.14-3.33.12-7.39-.16-8.92-3.18,4.83,1.24,9.71,2.5,14.69,2.49S50.33,71.76,54,68.3a24.36,24.36,0,0,1-25.15-.62,59.79,59.79,0,0,0,15,1.1c3.77-.2,8.35-1.48,9.18-5.24a19.15,19.15,0,0,1-16.78,8.27c-.85-.06-2-.84-1.43-1.49"/><path class="cls-1" d="M55.68,32.5c4,2.14,8.52,4.94,9.16,9.52.32,2.3-.44,4.6-1.19,6.8L59.42,61.17c1.93-4.93,3.89-10,3.91-15.31s-2.35-11-7-13.26c2.5,3.35,5,6.78,6.43,10.75S64.16,52,61.87,55.5c-1,1.55-2.52,3.07-2.3,4.92,5-7.78,3.74-19.19-2.91-25.59a39.68,39.68,0,0,1,4.62,10.61c.85,3.78.6,8-1.49,11.23a23.28,23.28,0,0,0-.18-21.91c1.12,3.9,2.24,7.88,2.16,11.94S60.19,55,57,57.41l3.93-14.11a40.92,40.92,0,0,1-3,15.85l2.66-11A25.69,25.69,0,0,1,55.2,57a14.9,14.9,0,0,0-.34-22.9l1.89,4a20.2,20.2,0,0,1-3.23-2.87,2.15,2.15,0,0,1,1,1.42"/><path class="cls-1" d="M20.79,13.82c.27-2.79,4-4,6.47-2.8s3.93,3.84,5.21,6.32,2.71,5.12,5.18,6.35,5.74.73,8.44,1.77c-3.16,1-6.29-1.76-8-4.66S34.94,14.44,32,13c-4.23-2.11-9.1.8-12.93,3.58,1.22-2.38,2.82-5,5.43-5.41,2.39-.33,4.53,1.45,6.16,3.25a40.58,40.58,0,0,1,6.78,10.33c.55,1.21,1.24,2.61,2.52,2.84s3.29-.27,3.24,1c-3.86.11-6.94-3.24-8.91-6.63s-3.57-7.24-6.76-9.46S18.8,11,17.89,14.81c1.84-3,4.81-6.43,8.07-5.23a7.69,7.69,0,0,1,2.52,1.83,40.73,40.73,0,0,1,4.42,4.72c1.68,2.22,2.89,4.76,4.58,7s4,4.13,6.76,4.34a9.32,9.32,0,0,1-6.84-2.19c-2.14-1.83-3.35-4.52-4.63-7.06S30,13,27.54,11.67s-6.07-.95-7.36,1.59c1.52-3.09,6.23-2.7,8.8-.46s3.93,5.61,6.19,8.19a14.44,14.44,0,0,0,7.75,4.57,9.74,9.74,0,0,1-8.07-6.61c-.65-2-.66-4.32-1.88-6.05a6.62,6.62,0,0,0-6.23-2.36A19.46,19.46,0,0,0,20.24,13c2.22-2.92,6.78-2.9,9.88-1s5.08,5.2,7,8.35,4,6.4,7.14,8.18"/><path class="cls-1" d="M17.3,35.9a3,3,0,1,0-2.18,5.35A2.93,2.93,0,0,0,18.24,38a2.9,2.9,0,0,0-4.64-1.49,3.12,3.12,0,0,0,1.12,4.91,3.17,3.17,0,0,0,3.91-3.21,3.29,3.29,0,0,0-4.4-2.61,3.44,3.44,0,0,0-1.46,4.67,2.84,2.84,0,0,0,2,1.39,3.06,3.06,0,0,0,3.15-2.11,5.09,5.09,0,0,0-.47-4c-1.87-1-4.47.94-4.12,3.06.35-1.18,5.3,5.49,4.62,6.52s-.29,2.4.13,3.56a2.73,2.73,0,1,0,1.21-4.51c-2.24.75-2.06,4.72.19,5.44s4.63-2,3.85-4.3a3.29,3.29,0,0,0-3.81-.59,3.43,3.43,0,0,0-1.68,3.55c1.77,1,4.38.66,5.33-1.17s-1-4.56-2.85-3.77a4.26,4.26,0,0,0-1.73,1.75c-.84,1.28-1.7,2.76-1.4,4.27s2.47,2.52,3.36,1.27"/><path class="cls-1" d="M47.45,63.32A3.51,3.51,0,0,0,42.76,61a3.63,3.63,0,0,0-1.29,5.18,3.48,3.48,0,0,0,5.23.21A3.58,3.58,0,0,0,45.45,61a3.37,3.37,0,0,0-4.38,3.14,3.25,3.25,0,0,0,4.61,2.63,3.25,3.25,0,0,0,0-5.32,1.37,1.37,0,0,0-1.09-.18,1.84,1.84,0,0,0-.84.83l-2,3.13c.21.53-4.62-3.86-4.45-4.41a4.12,4.12,0,0,0-5.66-.16,3.94,3.94,0,0,0,.23,5.64A3.47,3.47,0,0,0,37,64.78c.7-2-1.16-4.49-3.23-4.21A3.08,3.08,0,0,0,32,65.44c1.64,2.25,5.8,1.56,6.56-1.13s-2.56-5.55-5-4.22-1.78,5.87.92,6.35"/><path class="cls-1" d="M55.42,47a1.64,1.64,0,0,0-2.53-1.13,8,8,0,0,0,1,6.79,4,4,0,0,0,2.85-4.75,3.51,3.51,0,1,0-6.21,3,2.09,2.09,0,0,0,1.26.86c1.16.2,2.07-1,2.69-2,.76-1.23,1.51-2.88.64-4a2.28,2.28,0,0,0-1.48-.82C51,44.53,49,48.55,50.93,50.48s5.83-.13,5.4-2.83c-.29-1.87-3.1-3-4.07-1.39-1.77-1-2.47-7.29-1.76-5.34s4,1.95,4.7,0a3.24,3.24,0,0,0,.07-1.8A3.79,3.79,0,0,0,51,36.2a3.28,3.28,0,0,0-2.12,4.51c.93,1.69,3.8,1.74,4.64,0s-1.26-4.08-3-3.24c-1.49,1.1-2.24,3.64-.79,4.8,1.17.94,3.05.26,3.81-1.06a5.76,5.76,0,0,0,.19-4.43c-1.83-1-4,.83-4.76,2.83-.44,1.21-.54,2.74.38,3.62s2.92.06,2.54-1.17"/></g></g></g></svg>