<svg xmlns="http://www.w3.org/2000/svg" viewBox="0 0 122.89 58.62"><defs><style>.cls-1{fill:none;stroke:#000073;stroke-miterlimit:10;}</style></defs><title>BestWay</title><g id="Layer_2" data-name="Layer 2"><g id="Social_media_icons" data-name="Social media icons"><g id="Best_Way" data-name="Best Way"><path class="cls-1" d="M4.06,28.51,2.85,22.29A90.71,90.71,0,0,0,1.53,41.7a81.42,81.42,0,0,0,.56-16.53A35.6,35.6,0,0,0,1.27,39.4a33.12,33.12,0,0,0,.58-12.49,38,38,0,0,0-.3,14.83,45.93,45.93,0,0,0,1-16.25,58,58,0,0,0-.7,14.24,22.92,22.92,0,0,0-.77-15.34,45.74,45.74,0,0,1,13,5.16L3.46,22.13A21.44,21.44,0,0,0,14,30.33,52.77,52.77,0,0,0,3.88,24.18a15.27,15.27,0,0,0,6.53,4.31A28.19,28.19,0,0,0,.5,22q0,11.27.59,22.53A30.64,30.64,0,0,0,2.88,37.6a31.09,31.09,0,0,0,3,10.27c3.73-4.06,11.19-.31,15.72-3.45L7,44.51a71.73,71.73,0,0,0,18.85-2.92A46.3,46.3,0,0,1,6.27,43.48,27.74,27.74,0,0,0,23,40.2a26.29,26.29,0,0,1-18.8,4,66.29,66.29,0,0,0,21.05-2.44,67,67,0,0,1-23.06,2,31.33,31.33,0,0,0,16.48-2.55,88.7,88.7,0,0,1-16,3.19A67.87,67.87,0,0,0,26.57,40.9a15.71,15.71,0,0,0-6.37,2.05l11.87.19a10.78,10.78,0,0,1-12.15-8.23,20.56,20.56,0,0,0,5.8,5.52L17,32.76a15.14,15.14,0,0,0,8.93,5.75l-5.59-4.37a9.76,9.76,0,0,0,8,6.3l-7.25-4.87a10.69,10.69,0,0,0,8,5.63A26.19,26.19,0,0,0,22.31,36a12.79,12.79,0,0,0,6.06,5.38,5,5,0,0,1-3.25-6.52v2.77a.71.71,0,1,0-.87.31,8.81,8.81,0,0,1-4-3.74A25.45,25.45,0,0,1,46.78,21C45.18,18.15,41,18.3,37.9,19.3A33.48,33.48,0,0,0,19.58,33.86C25.5,26,33.9,18.72,43.78,18.65a29,29,0,0,0-22,15c3.14-3.58,6.32-7.2,10.28-9.85s8.83-4.26,13.5-3.35c-3.91-1.83-8.64-1-12.45,1s-6.87,5.19-9.87,8.3c-1.54,1.59-3.09,4.25-1.46,5.75,3.74-3.25,5.5-8.28,9.08-11.7a15.45,15.45,0,0,1,16.6-2.84c-2-2.93-5.56-4.45-9.08-4.76s-7,.44-10.5,1.18S21,18.85,18.17,20.85c-3.84,2.73-5.84,7.31-7.56,11.69C12.19,27,16.84,22.86,22,20.46S33,17.2,38.62,16.37c1.56-.23,3.35-.4,4.53.65-5.83-1-11.93-1.19-17.56.64S14.86,23.54,12.82,29.09a28.63,28.63,0,0,1,24.31-14c2.07,0,4.53.5,5.31,2.42-10.6-4.94-24.71.08-29.82,10.59A17.45,17.45,0,0,1,23.86,15a17.45,17.45,0,0,1,16.89,3.35,11.09,11.09,0,0,1,1.66,1.78c-3.94-5.2-11.4-7-17.69-5.22s-11.44,6.47-14.94,12C15.27,21.22,23.08,18.53,30.58,16A26.06,26.06,0,0,0,9.91,30.62a39.51,39.51,0,0,0,5.32-8.14,21.62,21.62,0,0,0-6.68,6.94,29.86,29.86,0,0,0,7.11-8.16A38.3,38.3,0,0,0,8.3,27.66,39.34,39.34,0,0,1,14,21.77L8.82,25.95c4.69-4.45,10.09-8.33,16.27-10.23s13.23-1.61,18.72,1.81l-2.58-.2"/><path class="cls-1" d="M55.14,13.85V11.28a49.36,49.36,0,0,0,1.55,15.8L54.54,13.22a98.77,98.77,0,0,1,2,14.31,45.64,45.64,0,0,0-1.89-13A43,43,0,0,0,55.75,30a66.25,66.25,0,0,0,.76-16l2.25,12.08q-.88-7.21-2.29-14.35A89.85,89.85,0,0,0,57.95,27.7c.57-2.82-1.57-5.47-1.82-8.33-.39-4.53,5.22-8.34,9.29-6.31.48.24,1,.67.9,1.2a1.39,1.39,0,0,1-.6.77,43.2,43.2,0,0,1-9,5.38A17.74,17.74,0,0,1,66,18.78a2.87,2.87,0,0,1,2.15.91C69,20.81,68,22.33,67,23.25a18.4,18.4,0,0,1-13.08,4.68,22,22,0,0,0,13.92-6.49,1.83,1.83,0,0,0,.68-1.26,1.72,1.72,0,0,0-.94-1.24,8.69,8.69,0,0,0-11,1.71,14,14,0,0,1,10.28-4.79,2.76,2.76,0,0,1,1.65.37c1.36,1,.34,3.11-.82,4.31a38.94,38.94,0,0,1-10.15,7.55q3.93-3.31,7.67-6.84a4.76,4.76,0,0,0,1.45-2c.61-2.06-1.9-3.94-4-3.6s-3.74,2-5.19,3.6c4.31-2.22,9.3-5.59,8.85-10.42A18.21,18.21,0,0,0,54,13.64,38.27,38.27,0,0,1,66.47,9.71,10.38,10.38,0,0,1,58.76,18c1.55.34,2.89-1.18,4.45-1.47,2.78-.5,4.68,3.34,3.55,5.94s-3.89,4-6.45,5.21a2.94,2.94,0,0,1-2,.41c-.66-.18-1.11-1.12-.6-1.58"/><path class="cls-1" d="M71.68,11.8l2.09,11.67L72.88,11.7a87.44,87.44,0,0,0-.15,14.84l10.65-5L74.79,25a27.6,27.6,0,0,0,9.46-5Q79,22.28,74.08,25.09L79,23a13.49,13.49,0,0,1-6.46,2.77l.36-7.58A13.09,13.09,0,0,0,78.6,16a10.93,10.93,0,0,0-5.88,2,30.37,30.37,0,0,0,6.56-2.27l-6.52,2.37a10,10,0,0,0,5.83-2.88,14.47,14.47,0,0,0-7.26,4.22c1.16,0,1.72-1.56,1.3-2.64a17,17,0,0,0-2-2.82c-.64-1-.82-2.49.15-3.14L80,8.18l-8.69,3a27.76,27.76,0,0,0,9.47-4.36l-9.34,3.77a16.54,16.54,0,0,0,6.72-4.2l-8.29,4.46a68.31,68.31,0,0,1,8.69-4.62L70.66,9.78a39.22,39.22,0,0,0,8-3,50.32,50.32,0,0,1-8.94,3.86l1.43,12.78.24-10.78,1.76,10.54a1.06,1.06,0,0,0,1.78.91l7.71-3.67A52.68,52.68,0,0,0,73.54,25a42.76,42.76,0,0,1,8.65-5.56,18.72,18.72,0,0,1-8.08,4.24,8.19,8.19,0,0,1,4-4.2"/><path class="cls-1" d="M97.54,4.83c.41-.42,0-1.19-.56-1.34a2.55,2.55,0,0,0-1.68.35,14.84,14.84,0,0,0-4.54,2.86,5,5,0,0,0-1.42,4.93c3.44,1.1,8.13-1.43,10.36,1.41,1.56,2,0,5.21-2.32,6.09s-5,0-7.24-1.23c2.35.66,4.88,1.31,7.2.53s4.08-3.64,2.82-5.73c-1.6-1.24-3.86-.83-5.87-.65s-4.52-.26-5.18-2.17S90.2,6,92,5.13a12.31,12.31,0,0,1,5.85-1.27,75.53,75.53,0,0,1-10.09,7.33c1.93.94,4.2.64,6.35.79s4.59,1.13,5.08,3.22-1.15,3.9-3,4.56a12.38,12.38,0,0,1-5.95,0,15.62,15.62,0,0,0,9.68-5L88.64,12.25a2.23,2.23,0,0,1-1.17-.52c-.64-.67-.22-1.77.29-2.54a13.73,13.73,0,0,1,8.29-5.65A21.74,21.74,0,0,0,85.33,11.3a15.57,15.57,0,0,0,8.17,0c2.12-.58,4.36,1.39,4.52,3.58a6,6,0,0,1-3.25,5.34,13.21,13.21,0,0,1-6.39,1.34A12.25,12.25,0,0,0,99,17.11L87.65,14.33a2.92,2.92,0,0,1-1.77-.91C85.12,12.36,86,10.93,87,10a28.81,28.81,0,0,1,9.19-6,16,16,0,0,0-9.31,9l6.53.11c1.39,0,3.08.24,3.62,1.52S96.7,17.09,95.84,18A12.34,12.34,0,0,1,88,21.57a24.27,24.27,0,0,0,7.5-3.07,3.55,3.55,0,0,0,1.36-1.26c.84-1.61-1-3.44-2.75-3.79s-3.69.08-5.4-.53-2.89-3.12-1.42-4.2a24.81,24.81,0,0,1,9.29-4.19.28.28,0,0,1,.17,0"/><path class="cls-1" d="M110.68,6.2l.49,13.25a43.09,43.09,0,0,0-1.9-15.05,67,67,0,0,0,2.45,14.34L110,5.49a69.36,69.36,0,0,1,1.51,13.11,36,36,0,0,0-1.81-14.38,50.76,50.76,0,0,0,.09,13.05,38.15,38.15,0,0,0-.2-12.64,23.1,23.1,0,0,0-2.69,14.17A36.63,36.63,0,0,0,108,4.92a59.69,59.69,0,0,1,2.13,13,105.25,105.25,0,0,0-1.38-13.81,9.71,9.71,0,0,1-4.65.8,58.12,58.12,0,0,0,11.53-2.76A101.94,101.94,0,0,0,99.13,9.47a64.26,64.26,0,0,0,15.47-5.3,19.83,19.83,0,0,0-8.85,1.34,27.29,27.29,0,0,0,8.47-1.44A45.13,45.13,0,0,0,102.06,5.6a131.14,131.14,0,0,0,13.89-2.49,21,21,0,0,0-12.57,1.75,28,28,0,0,0,11.38-3.46,20.16,20.16,0,0,0-13,5.41L114.86.46a53.53,53.53,0,0,0-9.32,4.92,9,9,0,0,1,5.27-4.09"/><path class="cls-1" d="M65,38.18a74.62,74.62,0,0,0,9.64,17.71L68.76,37.45a27.48,27.48,0,0,0,5.07,15A20,20,0,0,0,67,42.26,17.37,17.37,0,0,0,74,55a92.37,92.37,0,0,0-6.68-15.32,50,50,0,0,0,8,13.68q-3.19-6.58-7-12.83a52.42,52.42,0,0,0,6.36,15l4.15-14.25L74.83,55.65l2.05-12.93a25.38,25.38,0,0,0-2.81,11.94,63.57,63.57,0,0,0,3.45-14.22A90.64,90.64,0,0,0,72.7,54.26a102.48,102.48,0,0,0,3.92-13.13L74.46,52A30.84,30.84,0,0,0,76,41.84v2.73L76.86,41l8.9,11a79.17,79.17,0,0,0-7-11.5,19,19,0,0,0,7,11.09A15.07,15.07,0,0,0,80.1,41.17a10.4,10.4,0,0,0,6.45,9.24Q83,45.18,78.95,40.26A29.12,29.12,0,0,0,87.78,54q1-9.5,1.14-19.05l-2.6,19.23a42.66,42.66,0,0,0,3-19.26A81.28,81.28,0,0,1,86.5,51.36a106.07,106.07,0,0,0,2.86-16.69l-6,17.4a67,67,0,0,0,4.21-17.84l-2.37,12.9a101.09,101.09,0,0,0,2.67-13.82,82.3,82.3,0,0,0-3.49,18A59.09,59.09,0,0,0,86.55,35a54.91,54.91,0,0,0-2.28,10.88A33.43,33.43,0,0,0,86.57,32L85.1,43.68a4.27,4.27,0,0,1,.64-3.4"/><path class="cls-1" d="M100.54,35.21a2,2,0,0,0-1.48-2.57L95.74,48.37l1.84-17.91q-.45,8-1.32,15.89l2.14-12.09A31.44,31.44,0,0,0,94.75,47.6a70.27,70.27,0,0,0,3-15A41.65,41.65,0,0,0,95.79,48a40.25,40.25,0,0,0,3.85-16.93,63.89,63.89,0,0,0-2.79,16.74,156.4,156.4,0,0,0,2.24-15.86L96.81,47.72a104.79,104.79,0,0,0,1.44-18.37,73.23,73.23,0,0,0,7.2,12.78q-3-7.26-6.71-14.23a154.73,154.73,0,0,0,7.31,18.4A144.69,144.69,0,0,0,99.61,30a40.91,40.91,0,0,0,7.11,19.08,32.49,32.49,0,0,0-6.26-15.81,49.73,49.73,0,0,0,7.6,16,103.84,103.84,0,0,0-6.95-18.07l8.32,18-7.82-17.81a50.33,50.33,0,0,0,6.28,19.27,9.56,9.56,0,0,0-2.59-5.09,5.66,5.66,0,0,1-7.77-1.28A17.21,17.21,0,0,0,104.71,42a21.91,21.91,0,0,0-7.92-.14,8.26,8.26,0,0,0,7.65-.72,11.2,11.2,0,0,0-6.92.72,11.11,11.11,0,0,0,7.59,1.85,20.48,20.48,0,0,1-7.91-1.23A15.67,15.67,0,0,0,103.86,41c-.95-1.6,5.11-9.07,3.31-9.56a58,58,0,0,0,8.38,10.72l-7.89-9a20.56,20.56,0,0,0,9.79,10.47,78.1,78.1,0,0,0-9.28-11.76l8,7.53A79.08,79.08,0,0,0,107,30a54.62,54.62,0,0,0,11.53,8.93l-6.94-12.54,7.91,15.18a80.77,80.77,0,0,0-9.56-11.38A16.67,16.67,0,0,0,117.32,40a55.13,55.13,0,0,0-8.81-12.86,82.5,82.5,0,0,0,9.16,13.56A51,51,0,0,1,121.25,28,121.64,121.64,0,0,0,116,53.68a112.91,112.91,0,0,0,3.78-29.18l-3.4,25.42a66.26,66.26,0,0,0,4-25.67,64.47,64.47,0,0,0-6.84,24c3.34-6.65,3.93-14.29,4.47-21.72a79.16,79.16,0,0,0-2.91,20.76,52.43,52.43,0,0,0,7-22.86,133.88,133.88,0,0,0-5.48,26.51c3.55-8.31,4.34-17.5,5.1-26.51A227.72,227.72,0,0,1,116.53,50q2.24-10.23,5.29-20.26Q119.15,40.57,117,51.51a200.91,200.91,0,0,0,4.43-24.36A58.16,58.16,0,0,1,115.79,48"/></g></g></g></svg>