<svg xmlns="http://www.w3.org/2000/svg" viewBox="0 0 561.66 84.8"><defs><style>.cls-1{fill:none;stroke:#000073;stroke-miterlimit:10;}</style></defs><title>Asset 19</title><g id="Layer_2" data-name="Layer 2"><g id="Logo_Elements" data-name="Logo Elements"><g id="Candace_Rogue" data-name="Candace Rogue"><path class="cls-1" d="M64.84,58.21c.25,0,.38.1.33.24Q79,42.11,90.88,24.78a195,195,0,0,0,17.81,35.14,43.67,43.67,0,0,1-14-21.73c-1-3.88-1.57-8.16-5-11L69.37,58.85c-.3-4,2.65-7.71,6.48-10.24s8.49-4.06,13-5.74a171.61,171.61,0,0,0,21.32-9.64Q90.48,42.92,72,54a108.54,108.54,0,0,1,35.95-16.22c.19.81-1.85.39-1.61-.42s1.4-1.12,2.33-1.47,1.85-1.25,1.23-1.91q-14.26,8.61-29.56,16a172.06,172.06,0,0,1,25.3-15.61L78.54,47.3l25.86-11.14a121.69,121.69,0,0,0-38.6,21.47c5.3-10.1,13.76-18.88,22.13-27.54A161.84,161.84,0,0,0,67.93,54a58.73,58.73,0,0,1,17-24.09A149.61,149.61,0,0,1,66.77,50.7l22-26.23q7.31,16.46,13.6,33.2A260.73,260.73,0,0,0,86,28.88c.29,4.66,3.05,9,5.76,13.09l11.43,17.47a50.07,50.07,0,0,1-15.63-26.5Q93.3,47,100.37,60.67q-2.79-9-6.12-18A47.05,47.05,0,0,0,104,59.93l-7.3-14.69q6,8.07,12.81,15.73c-5.39-3.63-8.58-8.89-11.61-14L85.78,26.7A95.7,95.7,0,0,1,98.27,50.87L87,25.43a105.55,105.55,0,0,0-20.14,30,176.11,176.11,0,0,1,21-32c5.13,7.53,7.74,16,10.3,24.29Q91.57,34.84,86.37,21.52A123.35,123.35,0,0,0,65.8,56l39.07-19.57L80.57,47.71a9.86,9.86,0,0,1-4.26,1.23c-1.53,0-3.14-1-3-2.23A201,201,0,0,1,107.06,37L87.91,47.43q8.57-5,16.74-10.41c-10.58,7-27,7.75-35.14,16.64a236.38,236.38,0,0,1,38.12-17.62l-4.68,2"/><path class="cls-1" d="M110.09,56.05l-1.41,1.67q6.85-14.26,14.44-28.21l-8.35,24.11A70.38,70.38,0,0,1,117.15,34c-2.83,7.55-5.74,15.23-10.94,21.65Q112,44.22,118.49,33.11L113,55.74a17.47,17.47,0,0,1,1.91-8.93,64.78,64.78,0,0,0-4.95,9.95,57.26,57.26,0,0,0,8.62-16.45L116,52.41c-2.42-6.28,3.9-12.79,3.31-19.43a147.31,147.31,0,0,0-8.65,18.51,73.42,73.42,0,0,1,8.66-21.35,40.76,40.76,0,0,1-7.18,20.2,153.79,153.79,0,0,1,8.51-22.07l8.94,28.29c-2-7.73-4.3-15.84-10.31-21.6a75.41,75.41,0,0,0,10.67,17.81,152.44,152.44,0,0,1-10.7-16.66,147.06,147.06,0,0,0,9.19,18.85l-9.31-15.08,11.55,18.47L120.44,30.38l12,24.91a148.13,148.13,0,0,1-9.73-23.49,135,135,0,0,0,11.11,21.08L124.15,36a164.18,164.18,0,0,0,12.94,20.47q-5.87-8.3-11.06-17L136,55.87a80.59,80.59,0,0,0-5.25-9.9,15.77,15.77,0,0,0,3.61,11.75l-3-5.9a11.41,11.41,0,0,0,3.37,7.82l7.17-20.7a28.14,28.14,0,0,1-5.44,12.93l8.36-25.16-7.08,28.43a128.48,128.48,0,0,1,3.19-26.29l-6.8,24.85a71.39,71.39,0,0,1,6.35-21.23l-7.06,21.08a150.37,150.37,0,0,1,6.87-22.68L133,50.79l7.48-22.37q-3.55,11.06-6.2,22.35a65.52,65.52,0,0,1,8.77-18.56,104.48,104.48,0,0,1-4.6,15.36q2-9.4,4.8-18.66a39.67,39.67,0,0,0-4,10.42,66,66,0,0,0,3.94-11.39,27.93,27.93,0,0,1-4,12.08,75.35,75.35,0,0,0,3.21-11.24,48.76,48.76,0,0,1-1.65,12.75l5.56-12.07a50.06,50.06,0,0,1-4.82,14.77,58,58,0,0,1,5.37-18.41l-8,22.88a166.66,166.66,0,0,1,6.38-20.92L134.59,57a75.56,75.56,0,0,1,4.68-21.47q-2.44,8.1-5.66,16A49,49,0,0,1,141,33.91a68.61,68.61,0,0,0-6.87,18.4A68.2,68.2,0,0,1,141.66,36a66.93,66.93,0,0,1-4.24,17.11,118.48,118.48,0,0,0,2.73-21.93,101.67,101.67,0,0,1-6.35,27.61,43,43,0,0,1,3.78-16,39.09,39.09,0,0,1-1.68,12.35q2.4-10.07,5.76-19.93a171.15,171.15,0,0,1-4.87,23.18,64.53,64.53,0,0,1,6.48-26.25L135,61.51l8.52-29.07L135.67,62.5a54.78,54.78,0,0,0-5.26-10.72l.25,8.21a82.28,82.28,0,0,0-5.86-13.89,109.21,109.21,0,0,1,10.7,16.56L133,56.9l-.14,6.2q-4.35-11.3-7.94-22.82a173.94,173.94,0,0,0,5.84,16.78A145.6,145.6,0,0,0,120.7,36.49a107.07,107.07,0,0,0,12.36,21.8,112,112,0,0,1-8.39-18.1,53.23,53.23,0,0,1,8.23,10.69A62.39,62.39,0,0,1,116,27.16a2.12,2.12,0,0,0,.57,2.67l2.9-.58"/><path class="cls-1" d="M153.32,35l0-2.16-5.94,24.23,5.91-22.67a136.84,136.84,0,0,0-5.2,21.83,51.43,51.43,0,0,1,2.53-21.12l-5.72,18.61a103.84,103.84,0,0,1,7.63-24.49q-4.11,11.85-7.43,24A115.65,115.65,0,0,1,154.9,32.1l-4.74,19.46A106,106,0,0,1,157,32.76a159.54,159.54,0,0,0-5.44,19.58q1.64-11.08,4.17-22l-5.59,20.08a95.86,95.86,0,0,1,2.39-15.73,49.59,49.59,0,0,0-6.16,20.1A87,87,0,0,1,151.27,35a127.22,127.22,0,0,0-5.75,18.92L149,41.54a92,92,0,0,0-4,13.27L153.66,38l-3.6,15.18a155.57,155.57,0,0,1,5.63-18.86q-3.1,8.46-5.53,17.17a78.83,78.83,0,0,1,3-18.94L144.43,55a84.06,84.06,0,0,1,6-18.76,84.37,84.37,0,0,0-4.77,15.31,41.63,41.63,0,0,1,3.07-9.28l-4,12.82A119,119,0,0,0,154,30a9.71,9.71,0,0,0-6.5,2.27L152,30.18c.36-.17-.17-.72.08-.39l2.51-1.62-6.23,2.17A10.56,10.56,0,0,0,153,28.1c-.09-.44-.14.45.28.38a8.52,8.52,0,0,0,4.27-2.12l-5.6-.11h4.1A28.22,28.22,0,0,0,149,27.71a15.82,15.82,0,0,0,6.44-2.09l-8,5.19a34.32,34.32,0,0,1,8.53-4.7l-7,3.19c3.54-1.79,7.65-1.58,11.57-1.33,3.23.2,6.76.55,9,3,2.54,2.7,2.61,7,2.51,10.79-.06,2.38-.15,4.89-1.3,6.94s-3.35,3.41-5.43,4.53A106.7,106.7,0,0,1,138.44,63.3l10.08-6.83a33.85,33.85,0,0,0-7.81,3.17l7.37-4.48-7.4,3,8-4.06-7.29,4.12,8.21-2.59a6.05,6.05,0,0,1-2.81,4.88A163.81,163.81,0,0,1,161.84,50c3.64-2.26,7.49-4.5,9.93-8.15s2.93-9.22-.13-12.3c-1.84-1.85-4.52-2.42-7.05-2.59a31.82,31.82,0,0,0-18.67,4.63c4.79-4.85,12.33-6.8,18.35-3.88s9.6,11,7,17.51c-2.26,5.71-8.07,8.72-13.41,11.23l-14.87,7c7.91-3.12,16-6.33,22.57-11.93,3.91-3.32,7.43-8.13,6.85-13.4-.62-5.64-5.91-9.67-11.21-10.45s-10.63.91-15.75,2.59A36,36,0,0,1,164,23.79a9.38,9.38,0,0,1,5.18.84,11.67,11.67,0,0,1,3.35,3.41c2.41,3.25,4.94,6.83,5,11,.1,7-6.59,11.66-12.56,14.61a190,190,0,0,1-19,8.11c4.79-4.26,11.11-5.92,16.78-8.73S174,45.26,174.4,38.64c.38-7.23-6.12-13.34-12.91-14.23s-13.5,2.2-19.25,6.12l16.29-1.91c4.45-.52,9.67-.74,12.58,2.85a12.26,12.26,0,0,1,2.23,6.14c.49,3.61.24,7.62-2,10.39-4.41,5.43-13.73,3.14-18.22,8.51,3.9-2.41,8.3-3.7,12.5-5.45s8.37-4.13,11-8,3.13-9.68.21-13.32c-2.56-3.19-6.89-3.93-10.83-4.17-6.56-.39-13.63.24-18.81,4.53,8-7.11,21.53-5.4,27.7,3.5a12.29,12.29,0,0,1,2.47,7.38c-.16,3.49-2.37,6.51-4.9,8.76-6.9,6.15-16.2,8.1-25.07,9.83a62.63,62.63,0,0,0,19.25-6.91c4.59-2.56,9.29-6.35,10-11.8.54-4.35-1.79-8.68-5-11.38s-7.33-4-11.37-5-9.64-1.08-11.35,3c6-3.46,13.62-4.15,19.76-.92s10.34,10.64,9.3,17.82a10.59,10.59,0,0,1-2.12,5.25c-1.68,2-4.21,3-6.62,3.81l-27.52,9.7c12-4.22,24.9-9.14,31.88-20.32,2.39-3.83,3.82-9.24,1.08-12.8A10.46,10.46,0,0,0,169,26.66a31.25,31.25,0,0,0-22.45,1.87c4.51-1.58,9.15-3,13.91-3s9.7,1.77,12.74,5.64,3.58,10.08.45,13.87c-1.72,2.08-4.23,3.2-6.65,4.25l-23.6,10.23"/><path class="cls-1" d="M252.42,26.39c-3.28-3.4-7.24-7-11.4-5.83-2.27.64-4.12,2.64-5.78,4.68a78.21,78.21,0,0,0-6.06,8.59c-1.48,2.43-2.92,5.25-2.66,8.28.44,5.22,5.4,7.73,9.61,8.29a32.4,32.4,0,0,0,11.81-.61c-4.92,2.91-11,3.37-15.69-.07s-7.33-11.26-5.08-17.42a14.87,14.87,0,0,1,7.48-8c6.1-3.06,14-2,18.05,4.39-5.95-5.31-14.66-5.67-20.53-.23S224.18,45,228,52.77a11.33,11.33,0,0,0,4.25,5c4.63,2.64,9.91-.81,15-1.31a29.21,29.21,0,0,1-19.08-8.33c-2.13-2-4.18-4.68-4.37-8-.21-3.8,2.09-7.08,4.5-9.43a31.66,31.66,0,0,1,8.39-5.93c3.82-1.83,8.79-2.4,11.41,1.5-8.69-3.9-19.44,2.09-22.86,12.74-1.57,4.87-1.2,11.56,2.55,14a9.44,9.44,0,0,0,4.82,1.12l11,.52a19,19,0,0,1-16.85-5.86,12.52,12.52,0,0,1-3.35-5.46,12.54,12.54,0,0,1,1.94-9.83,21.61,21.61,0,0,1,6.88-6.08,71.88,71.88,0,0,1,12.47-6.19,5.27,5.27,0,0,1,3.82-.4,3.09,3.09,0,0,1,1.6,3.76,13.41,13.41,0,0,0-18.34,2c-4.9,5.45-6.43,15.06-3.58,22.42a9.34,9.34,0,0,0,3.1,4.47c3.7,2.47,8.4-1.26,12.4.33a17.38,17.38,0,0,1-12-1.59c-3.78-2-7.36-6.09-7.23-11.17s3.61-8.63,6.79-11.62c3.6-3.39,7.82-7,12.25-5.86,3,.75,5.8,3.63,8.78,2.75a13.6,13.6,0,0,0-14-3.64c2.6-1.08,5.26-2.18,8-2.09a7.78,7.78,0,0,1,6.95,4.56A16.73,16.73,0,0,0,233.79,23c-6.18,3.56-10.62,11.38-11.26,19.8a9.63,9.63,0,0,0,.57,4.76,7.82,7.82,0,0,0,2.39,2.7A42.41,42.41,0,0,0,235,55.95a25.22,25.22,0,0,1-9.55-10.41c-2.12-4.63-2.46-10.81,0-15.14,2.36-4.08,6.58-5.71,10.56-6.6,7-1.56,15-1.21,20.09,5-4.17-3.19-8.43-6.42-13.2-7.75s-10.23-.42-13.73,3.83c-3.82,4.65-4.42,11.92-4.57,18.56-.09,4,0,8.3,2.07,11.3a10.57,10.57,0,0,0,4.67,3.56,20.3,20.3,0,0,0,14.34.79l-2,2.16"/><path class="cls-1" d="M260.12,27.9c.26-.75-.34-1.52-1-2.05-4.2-3.53-10.44-3.55-16.07-3.37-3.79.12-7.78.3-11,2.2a15,15,0,0,0-5.41,6.23c-2.79,5.43-3.54,11.91-1.3,17.56a18,18,0,0,0,14,11.09c2.38.31,5.22.31,6.56,2.18C235.8,62,226.31,53.51,226,44a14.18,14.18,0,0,1,2.08-8.09c3.06-4.78,9.12-7.06,14.9-8.31a7.62,7.62,0,0,1,2.38-.25,7.85,7.85,0,0,1,3,1.2l8.49,4.85c-2.7-4.06-6.65-7.81-11.68-8.59-5.4-.84-10.91,2.07-14.07,6.27s-4.32,9.46-4.6,14.6c4-7.82,4.77-18,12.57-22.57,6.47-3.81,16.2-1.15,19.49,5.34-5.29-1.7-10.8-3.38-16.36-2.81S231,29.64,230,34.8a17.83,17.83,0,0,1,14.78-9.53A18.14,18.14,0,0,1,260.7,33a20.89,20.89,0,0,0-14.78-8.2A65.19,65.19,0,0,1,260.53,32a56.59,56.59,0,0,1-7.33-7.9,65,65,0,0,0,10.52,5.27c-1,.33-.1,2.06.79,1.57l-18.25-5.25a17.68,17.68,0,0,0-4.85-.91c-3.92,0-7.27,2.52-10.26,4.91-2.43,1.94-5.1,4.6-4.23,7.48a18.36,18.36,0,0,1,10.74-10.91,20.1,20.1,0,0,1,15.79.69,17.28,17.28,0,0,0-24.62,8.59,15.81,15.81,0,0,0,4.07,17.64c5,4.31,13.47,4.82,18.63.67a40.25,40.25,0,0,1-18.93,1,21.68,21.68,0,0,0,20.48-3.38c-.56.91.77,2,1.86,1.78a4.34,4.34,0,0,0,2.42-2.08c-.92,3.85-2.9,8-6.81,9.37-2.94,1.07-6.28.33-9.15-.89-7.9-3.38-13.92-11-13.81-19.16S234.78,24.41,243.45,24a26.51,26.51,0,0,0-15.7,13.44,17,17,0,0,0-1.62,10.94,11.61,11.61,0,0,0,7.18,8.39,21.4,21.4,0,0,0,6.18.9l15.6.73-18.5-1.1a31.66,31.66,0,0,1,8.62-.36"/><path class="cls-1" d="M346.59,46.55c12.17-2,26.42-6.59,29-17.46,1.5-6.38-1.75-12.79-4.91-18.66-1.9-3.52-4.09-7.3-8.06-8.9-2.55-1-5.45-1-8.24-.81A131.42,131.42,0,0,0,328.08,4.9c8.82-5.13,20.3-5.11,30.44-2.63,6.71,1.64,13.59,4.66,16.73,10.24s1.76,12.28-1.67,17.58-8.68,9.43-13.84,13.44l12.94-14.19c1.72-1.88,3.48-3.84,4.2-6.19,1.73-5.64-3.16-11.32-8.8-14.23C355,2.18,338.69,4.88,324,7.77A44.7,44.7,0,0,1,357,5.18c5.29,1.68,10.59,4.86,12,9.74.87,3.08,0,6.34-1.21,9.31a40.76,40.76,0,0,1-16,18.56c-1.54,1-3.29,2-3.62,3.68-.56,2.77,3,4.59,5.94,5.65a83.33,83.33,0,0,1,36,25.25L356.15,50.64a341.47,341.47,0,0,0,27.78,27.63,97.06,97.06,0,0,1-28.41-25.09,176.16,176.16,0,0,1,25.69,25.45,64,64,0,0,1-23.47-24.09l22.21,25.57a93.86,93.86,0,0,1-28.27-25.54c-1.57-2.17-3-5.14-1.22-7.17A279.58,279.58,0,0,1,381.72,80a156.13,156.13,0,0,1-20.49-21.14L381.1,80.39a101.07,101.07,0,0,1-24.52-26.27,158.86,158.86,0,0,1,22,28.36A424.81,424.81,0,0,1,346.3,52.55l34.8,25.32a319.22,319.22,0,0,1-27.42-28.55,372.9,372.9,0,0,1,28,30.53l-31.9-33.39,31.49,27a144.42,144.42,0,0,1-25.07-29l22,27.94a161.71,161.71,0,0,1-25.9-26l26,22.22L351.09,45.34l21.78,29.77L349.94,49.7c-2-2.19-4.2-4.53-7.28-5.12,10.24.67,21.3-4,25.27-12.5S366.27,12,356.14,10.46c-1.31-.2-3-.09-3.55,1,7.56-1.22,17-1.75,21.17,4.07,3.93,5.53,0,12.81-4.63,17.88a80.93,80.93,0,0,1-19.2,15.39c9.74-.48,19.41-4.84,24.7-12.2s5.52-17.68-.36-24.68C369,5.63,359.86,2.78,351.12,2.68s-17.28,2.19-25.65,4.45a69.8,69.8,0,0,1,28.81-3.71c5.13.42,10.44,1.51,14.32,4.56,7.08,5.56,6.88,16,2.13,23.28s-12.9,12.17-20.76,16.8c6.64-5.77,14.7-10.29,20.33-16.88s8.23-16.42,2.65-23C369.44,4,363.46,2,357.68,1.81S346.2,2.91,340.59,4.21L317.41,9.58a109.7,109.7,0,0,1,46.48-.68c2.15.44,4.4,1,5.92,2.44,2.38,2.26,2.14,5.82,1.39,8.86C367.81,33.94,356.86,46,342.55,51.76c11-2.8,21.39-8.84,26.55-18s3.77-21.53-5-28.12c-6-4.5-14.3-5.75-22-4.92s-15,3.54-22.23,6.21a324.71,324.71,0,0,1,42.75.39c6.86.51,15.1,2.23,17.15,8.13,1.5,4.32-1.2,8.86-4.06,12.58a107.16,107.16,0,0,1-16.84,17.34,60.2,60.2,0,0,0,13.67-20.05c2-4.89,3.29-10.49.85-15.22C369,1.63,356.05.74,345.8,2.28a133.09,133.09,0,0,0-25.51,6.46c15.77-11.66,42.38-8.31,54,6.79,1.74,2.26,3.2,4.85,3.22,7.6,0,3.83-2.71,7.18-5.44,10.11a150.21,150.21,0,0,1-26.27,22.3c11.29-2.42,21-10.07,25.21-19.8a30.05,30.05,0,0,0-3.87-29.87,11.93,11.93,0,0,0-5.37-4.36,16.35,16.35,0,0,0-6-.49l-12.84.54c-7.32.31-16.47,1.88-18.25,8.27l22.48-4c6.27-1.11,13.15-2.14,18.75.62,8.5,4.19,9.56,15.5,4.77,23.07s-13.58,12.27-22,16.64a49.22,49.22,0,0,0,23.81-13.11c3.6-3.66,6.63-8.47,5.44-13.23-.73-2.93-3-5.38-5.48-7.36-8.83-6.93-21-8.93-32.61-10.66a31.78,31.78,0,0,0-6.92-.52c-7.5.53-13.17,6.08-18,11.23-.57,14.67,10.87,36.93,8.66,51.47a209.27,209.27,0,0,1,6.53-37,137.53,137.53,0,0,0-6.84,35.36,368.63,368.63,0,0,0,7-40.67l-1.52,39.79,3-41.47-1.49,41.65,6.54-41.14A382.07,382.07,0,0,1,332,63a322.42,322.42,0,0,1,1.18-40A138.07,138.07,0,0,0,322,63.74l4.28-40.59L320,62.92A177.66,177.66,0,0,1,330,23.32a140.45,140.45,0,0,1-.88,37l5.78-35.42a115.68,115.68,0,0,0-7.1,35.58,100.69,100.69,0,0,1,8.41-42.93l-9.65,40.61"/><path class="cls-1" d="M403.75,24.37c-.38-2-3.45-3-5.91-2.56A11,11,0,0,0,392,25.45a24.16,24.16,0,0,0-6.82,17.37c.08,1.93.51,4,2.27,5.37s4.31,1.66,6.71,1.91c4,.42,8.23.79,11.75-.7a11.89,11.89,0,0,0,4.79-3.84,11.7,11.7,0,0,0-.38-15.16c-4-4.36-12-6.29-18.1-4-6.45,2.44-9.34,8.38-10.73,13.9-1,4-1.45,8.52,1.45,11.93,4.39,5.16,14.41,5.25,21.41,2.37,8-3.27,13.84-10.07,13.15-17.11s-9.07-13.42-18-12.63a20.19,20.19,0,0,0-13.69,7.47c-3.06,3.82-4.55,8.27-5.78,12.68-.4,1.43-.76,3,.1,4.31s2.52,1.9,4.17,2.4c7.79,2.33,17.12,2.12,23.89-1.68s10-11.55,6.09-17.33c-3.06-4.5-9.48-7-15.76-8.26-3.14-.66-6.51-1.1-9.62-.35-6.59,1.59-9.37,7.6-10.91,12.88-1.75,6-2.75,13.11,2.61,17.62A17.8,17.8,0,0,0,387.77,58c11.94,3,26.24-3.36,29.19-12.92s-6.07-20.34-18.42-22a18.36,18.36,0,0,0-8.45.61c-5.55,2-7.83,7.1-9.49,11.69s-3.28,10-.17,14.3a15.2,15.2,0,0,0,7.13,4.81c9,3.29,20.78,1.13,27-5a15.19,15.19,0,0,0,.29-21.8,22.61,22.61,0,0,0-18.51-6.12c-7.14,1-13,5.61-15.16,11s-1,11.46,2,16.61a17,17,0,0,0,10.24,8.18c5.92,1.48,12.36-.85,17.11-4,6.23-4.13,11-10.57,9.06-16.79-1.43-4.65-6.17-8.14-10.73-11.31-3.28-2.28-6.83-4.64-11.17-5.14a16.71,16.71,0,0,0-12.87,4.33,20.54,20.54,0,0,0-5.68,10.46c-.82,3.31-1.14,6.79.06,10,2.55,6.84,12.42,11.33,21.32,10s15.81-8.17,15.94-15.29-6.25-13.95-14.82-16.29c-4.6-1.26-9.93-1.28-14.11.69-5.27,2.47-7.67,7.47-8.79,12.21-1,4.25-1.26,8.74.65,12.79a15,15,0,0,0,11.78,8.16,21,21,0,0,0,10-1.69c12.36-5,18.1-18.55,11.19-28a17.94,17.94,0,0,0-14.67-7.26c-6.41.22-11.7,4.26-14.59,8.76a20.84,20.84,0,0,0-3,15.77A16.9,16.9,0,0,0,393.86,57.8c5.53.87,11.29-1.1,15.43-4.11,6.45-4.68,9.64-12,7.86-18.8S408.52,22.31,400,20.61a19.09,19.09,0,0,0-8.21,0A15.54,15.54,0,0,0,384.42,25c-6.23,6.47-6.5,15.34-5,23.37.89,4.64,3,9.9,8.61,11.55,3.73,1.1,8,.18,11.48-1.32,10.16-4.35,16.28-13.47,16.55-22.55a13.84,13.84,0,0,0-1.9-8c-2.44-3.83-7.69-6.42-13.14-6.58s-10.88,2.07-13.93,5.61c5.19-6,17.22-8.49,23.88-3.5a13.64,13.64,0,0,1,3.94,4.85,15.76,15.76,0,0,1-2.31,17.85c-4.57,5.1-13.11,8-20.84,6.53a23.54,23.54,0,0,0,20.06-3.33A19.56,19.56,0,0,0,420,34.23c.11-3.88-1.06-8.07-4.78-10.62a16.81,16.81,0,0,0-7-2.49c-8.13-1.18-17,1.84-21.43,7.32-3.48,4.28-4.25,9.59-3.94,14.66a13.11,13.11,0,0,0,1.78,6.55c2.2,3.38,7,5.47,11.85,5.6a22.24,22.24,0,0,0,13.18-4c6.8-4.8,9.37-13.35,4.75-19.55s-16.7-8.38-23.56-3.63c-5.07,3.51-6.23,9.31-6.61,14.61-.32,4.47,0,9.6,4.4,12.47a12.23,12.23,0,0,0,10.11,1.17c3.3-1.11,5.67-3.74,5.91-6.55"/><path class="cls-1" d="M457.31,23c-.29-1.74-2.92-2-4.82-1.71-13.93,2.27-25.66,13-28.06,25.68a4.53,4.53,0,0,0,.3,3.35A5.28,5.28,0,0,0,427.1,52a30.2,30.2,0,0,0,23.24.35,29.89,29.89,0,0,1-17.42,2.8,7.68,7.68,0,0,1-4-1.48c-1.48-1.3-1.7-3.35-1.82-5.22-.41-6.32-.51-13.43,4.29-18a16.31,16.31,0,0,1,6.2-3.5,23.76,23.76,0,0,1,22,4.13c-2.13-5-9.23-7.13-14.87-5.61s-9.9,5.79-12.9,10.38c-2.53,3.88-4.42,8.51-3.09,12.87a13.1,13.1,0,0,0,3.9,5.74,21.38,21.38,0,0,0,21.19,3.72C448.94,61,442,59.48,438,55.73s-5.76-9.2-6.05-14.46c-.2-3.64.22-7.43,2.2-10.59a14.92,14.92,0,0,1,13.35-6.47c5.31.35,10.27,3.65,12.25,8.15a25.9,25.9,0,0,0-15.23-4.84,15.24,15.24,0,0,0-7.32,1.62c-3.94,2.2-5.66,6.52-7.11,10.51-1.07,3-2.16,6.11-1.39,9.16,1,3.79,4.78,6.66,9,7.51A20.4,20.4,0,0,0,450,54.47c-6.43,2.18-14.69,4-19.32-.63-2.82-2.82-3-7.05-2.46-10.81s1.94-7.73,5-10.35c5.7-4.81,14.7-3.55,22.31-2-7.37-4.45-18.46-2.58-23.52,4s-3.25,16.69,3.85,21.49a11.58,11.58,0,0,0,5.88,2.14c4.62.2,8.37-3.16,11.47-6.26-2.3,4.38-8.63,5.22-14,5.49a8.61,8.61,0,0,1-3.44-.29,6.15,6.15,0,0,1-3.23-3.59c-2.82-6.6-.83-14.08,2.31-20.54,1.2-2.47,2.68-5,5.18-6.47,5.27-3.12,12.32-.33,18.55-1.12l.17,3C456.23,25.17,451,24,446.66,25a19.64,19.64,0,0,0-10.58,7.3,27.31,27.31,0,0,0-5.8,14.84,10.61,10.61,0,0,0,.73,5.34,10.09,10.09,0,0,0,6.29,4.87c6.32,1.94,14-.9,16.93-6.31a25.72,25.72,0,0,1-7,5.43c-2.73,1.28-6.23,1.59-8.81.05-3.44-2-4-6.33-4.09-10.06-.1-5.79.38-12,4.13-16.63s11.84-6.85,16.65-3c-5.9-2.61-13.35-.57-18,3.66s-6.79,10.16-7.83,16c-.28,1.56-.45,3.27.47,4.61a7.87,7.87,0,0,0,3.63,2.39c6.43,2.7,14.33,5.31,20.14,1.67,2.13-1.34,3.65-4.21,2-6A54,54,0,0,0,452,67.64,149.24,149.24,0,0,1,454,48.7a36.1,36.1,0,0,0-4.86,15.17l1.36-11a31.35,31.35,0,0,0-2.83,12.48,35.74,35.74,0,0,0,7.81-22.06A13.39,13.39,0,0,0,445.09,43l11.26-.62-13.43,4,12.14-2.64a9.77,9.77,0,0,0-4.71,1.12c-1.33.87-2,2.76-.94,3.9,1.35,1.46,3.93.61,5.73-.35a23.19,23.19,0,0,1-10-3.56A94.9,94.9,0,0,0,461.33,46,110.65,110.65,0,0,1,454,72.07l4.67-29.7a201.48,201.48,0,0,1-5.86,24.11,194.8,194.8,0,0,1,5.8-19.66A108.87,108.87,0,0,0,452,70.27q4.13-11.81,7.19-23.9a120.45,120.45,0,0,0-6.28,22.09,86.42,86.42,0,0,0,5.47-24.91,65.55,65.55,0,0,1-13.35.2,44.53,44.53,0,0,1,12.19-.59l-10.63-.22a61.83,61.83,0,0,1,12.55.7A303.64,303.64,0,0,0,452,73.84l6.58-27.89A100.33,100.33,0,0,0,454,71l5.26-25.57L452.4,69.45l6-25.51-14.87,1.4a21.41,21.41,0,0,1,13.76-1C451.84,47.31,452,55.71,446.14,58c-4.53,1.74-9.69-1.63-11.93-5.62-4.7-8.36-.44-19.84,8.85-23.86,4.92-2.13,11.19-2.14,15.53.89L444.52,25.1c3-1.45,6.15-2.94,9.56-3.2s7.21,1,8.71,3.82l-10.44-2a17.51,17.51,0,0,1,10.47.84c-8.65-2.87-19-.72-25.43,5.26a20.8,20.8,0,0,0-5,23.25c-5-3.48-4.91-10.43-2.72-15.76A31.5,31.5,0,0,1,438.83,25a20.18,20.18,0,0,1,9.11-4.56c3.45-.61,7.32.14,9.74,2.48-6.58-3.27-14.86-.26-20.66,4-7.17,5.29-12.71,12.86-13.5,21.24-.35,3.67.4,7.73,3.42,10.2,4.28,3.5,10.93,2.37,16.45,3.82-3.27-2.82-7.54-4.46-11.33-6.68s-7.38-5.44-7.84-9.51c-.33-2.91,1-5.77,2.66-8.26,6-9,17-15.16,28.64-15.92l-2.51.06"/><path class="cls-1" d="M476,28.83c-4.81,9.24-6.09,18.32-3.72,26.37.8,2.74,8.52,2.19,13.32-.27s7.2-5.87,9.12-9a120.4,120.4,0,0,0,12-25.51c-1.21,8-4.65,16.35-10.16,24.7a23.83,23.83,0,0,1-9.1,8.67c-4.58,2.4-11.71,3.38-13.79,1.21C466,47,470.29,34.33,484,24.13a84,84,0,0,0-9.77,28.15c-.16,1.13-.27,2.29.57,3.12,1.52,1.49,5.74,1.38,9.45.45a32.13,32.13,0,0,0,19.66-14.59c3.91-6.59,5.6-13.13,4.94-19.12-4.08,9.43-9.24,19.92-23.4,27.58-6.1,3.3-14.9,3.47-18.7,1s-3.3-6.81-.51-10.91,7.59-8,12.32-11.89c-5,9.88-7.73,19.66-8.1,29-.07,1.77,0,3.58,1.36,4.88s4.52,2,7.82,1.06a18.91,18.91,0,0,0,6-3.11c15.48-11,24.3-24.26,23.67-35.46L497,44.38c-2.45,4-5.9,8.73-12.8,11-5.82,1.9-11.87,1.08-14.7-1.11s-3.06-5.45-2.69-8.67a34.92,34.92,0,0,1,2.67-9.67A13.37,13.37,0,0,1,479,28c-9.12,8.16-13.46,17.22-11.88,24.77a6.81,6.81,0,0,0,5.78,5.74c3.79.77,9.26-.31,13.69-2.2a41,41,0,0,0,11-7.07c11-9.59,15.6-20.42,12.34-28.92a169.61,169.61,0,0,1-18,31.27c5-12,25-24.34,26.19-35.8L507.93,35.74c8.23-6.84,17-15.32,12.15-20.56l-18,24.9c-3.09,4.28-6.4,8.76-12.41,12.41s-15.57,6.08-20.58,4.13a5.66,5.66,0,0,1-3.75-5.1c-.92-8.82,8.58-19.07,17.74-28.57-12,12.66-17.57,26.07-15.65,37.63a2.87,2.87,0,0,0,2.16,2.72c2.26.6,5.8-.51,8.61-1.69a69.78,69.78,0,0,0,19.71-12c-9.56,1.29-18.64,8.39-27.82,8.72-4.51.16-7.61-1.53-8.63-3.77s-.27-4.95.85-7.61c3.1-7.36,9.1-14.95,17.41-22-7,8.55-11.1,17.28-12.11,25.47-.44,3.55,0,7.36,4.88,8.71C478.28,60.71,488,57.89,494,54s9.24-8.53,12.26-13c4.52-6.64,9.12-13.7,7.11-19.38L495.43,48.16c9.94-10.18,15.92-20.88,17.19-30.79-5.29,4.83-8.62,10-9.52,14.85l6.8-13.64,4.45-1.13c-3.49,9.47-11.18,19.15-18.8,28.7-2.8,3.51-7.2,7.83-13.37,8.66-5.83.78-8.53-2.3-9.18-5.26-1.72-7.81,2.91-17.26,12.61-25.69-5.36,7.57-8.23,15.2-8.38,22.28-.06,2.56,1.41,5.53,6.2,4.86,4-.56,7-3.27,8.91-5.55,7-8.33,11.58-16.83,13.55-25-4.56,10.57-9.87,22-24.22,31.33,14.32-9.14,24.15-20.18,27.08-30.43-5.55,9.54-11.39,19.41-22.95,28.27-2.87,2.2-8.37,2.7-11,1.49s-2.91-3.52-2.62-5.78c.78-6.11,5.37-12.86,12.85-18.87-.57,3.71-3.24,7.75-7.56,11.43-1.58-3.53-1.33-7.63.71-11.84-5.61,8.49-8.78,17-9.31,25-.28,4.26,1.54,9.1,9.16,8.76,4.37-.2,9.13-2.16,12.77-4.37,8.89-5.4,12.83-12.18,15.88-18.48,2.84-5.86,5.35-11.79,5.06-17.21a161,161,0,0,0-10.56,18.69l19.37-25a121.15,121.15,0,0,0-10.94,19,33.73,33.73,0,0,0,4.45-13.78c-9.26,11.13-13,23-26.95,33.22-4,2.91-10.58,6-14.82,4.92-2.32-.58-2.9-2.21-3.15-3.77-1.63-10,4.37-21.85,16.44-32.51-7.17,9.9-14.49,20.19-14,29.32.14,2.84,2.77,6,8.19,4.66a17.89,17.89,0,0,0,6.37-3.3c14-10.34,23.1-22.22,25.26-33.12-3.33,10.37-9.18,21-17.33,31.55a23,23,0,0,1-9.86,8c-4.81,1.93-11.53,1.29-10.4-1.58,6.59,1.51,17.13-2,23.08-6.49s8.48-9.52,10.8-14.34L517,15.93A244.6,244.6,0,0,1,497.42,48.5c-2.19,3.1-4.67,6.37-9.19,8.93s-11.66,4-14.59,2.14c.49-.79-.29-1.37-1-1.88-7.42-5.69-2.54-15.57,2.47-24.39a30,30,0,0,0-4.07,15.15c.11,3.83,2.75,8,9.95,7.14,6.19-.77,11.28-4.83,14.48-8.33,5.86-6.45,9.88-13.09,11.8-19.48.38-1.26,4.37-2.1,4.79-1s-3.33,2.61-4.48,1.82"/><path class="cls-1" d="M555.27,19.53c-7.82,5-18.28,8.1-29.11,8.72l28.56-6.92c-8.7,2.11-17.85,3.51-26.45,5.68,7.82-1,15.39-4.1,21.9-7.08a154.8,154.8,0,0,0-19.09,4.83A107.08,107.08,0,0,1,550,19.24a128.71,128.71,0,0,0-23.7,3.86,133.6,133.6,0,0,0,24.85-3.6l-18.91,5a118.29,118.29,0,0,1,24.64-4.1l-6.23,3.19,6.3-2.59-7.42,1a22.06,22.06,0,0,0,8.64-4.18,59.73,59.73,0,0,0-19.92,3.82l18.9-3.16a127.58,127.58,0,0,0-24,6,156.53,156.53,0,0,0,23.76-5.91A237.62,237.62,0,0,0,531.54,23l16.14-3.75a109.19,109.19,0,0,0-18.4,4.24,48.72,48.72,0,0,0,10.47-2.86c-24.09,0-22.35,21.9-25.34,33a119.08,119.08,0,0,1,6.29-24.29l-11.65,23L519.5,28a105.88,105.88,0,0,1-10.31,25.85l12.48-26-9.72,24.4A127.7,127.7,0,0,0,523.11,29a254.21,254.21,0,0,0-14.38,30.06A96.51,96.51,0,0,0,521.3,30.83L509.47,58.59a140.38,140.38,0,0,0,10.31-24.07,91.64,91.64,0,0,0-7.35,20,142.09,142.09,0,0,0,12-23.6A209.08,209.08,0,0,0,513.5,57,77.63,77.63,0,0,0,523,30.48a181.16,181.16,0,0,1-10.37,26.11A84.11,84.11,0,0,0,523,30.64a127.74,127.74,0,0,1-11.66,29.63A81.47,81.47,0,0,1,520,30.19a123.5,123.5,0,0,0-14.61,29.9,193.64,193.64,0,0,0,15.46-29.23A296.17,296.17,0,0,0,507,60.44a49.17,49.17,0,0,0,7.79-11.33,16.58,16.58,0,0,0-3.47,10l31.94-4.14L518.43,62.7a108.54,108.54,0,0,1,29.74-11c-10.84,5.24-24.52,7.08-37.72,8.77a258.2,258.2,0,0,1,39.61-5.74L513.95,58a256.16,256.16,0,0,0,37.49-4.93l-39.62,6.5,37.48-6.45a123.53,123.53,0,0,0-34.09,6.26,167.59,167.59,0,0,1,34-7.29,107.47,107.47,0,0,1-36.46,5.7,318,318,0,0,0,33.32-7.49,199,199,0,0,1-31.81,4.93l30.34-5.45a243.22,243.22,0,0,1-34,3.85,302.65,302.65,0,0,0,36.06-5.45,92.64,92.64,0,0,1-30.13,5.65,223.82,223.82,0,0,1,30.16-6l-29.73,7.72,28-5.15-30.79,8c10.13-.55,19.77-3,29.24-5.45a162,162,0,0,1-35.09,7.19l37.89-7.7a347.93,347.93,0,0,1-39,8.26,52.41,52.41,0,0,0,15.61-2.77l-3.38-.24c-1-3.25-.13-6.62.75-9.89L526,26.25,511.45,50.88,523,27.16a47.43,47.43,0,0,1-8.44,22.76,209.73,209.73,0,0,1,8.31-20.68,49.4,49.4,0,0,0-6.73,15,49,49,0,0,1,5.56-20.32c1,6.59-2.07,13.4-8.29,18.6l5.08-14.77-7.34,15.73,7.64-15.55a3.15,3.15,0,0,1,1.39-1.62,7.22,7.22,0,0,1,3.24-.41,110.66,110.66,0,0,0,32.5-4.1,294.26,294.26,0,0,0-31.66,6.33,129.06,129.06,0,0,1,34-8.89l-26.06,5.56a45.37,45.37,0,0,1,17.29-2.84A79.81,79.81,0,0,1,531,27a75.67,75.67,0,0,1,15.8-4.81,124.47,124.47,0,0,1-22.31,10.14l3-1.7"/><path class="cls-1" d="M517.51,37.52l-2.32,4.17Q525.13,39,534.63,36a115.64,115.64,0,0,1-20.06,7.1A141,141,0,0,0,535.81,37l-16.65,3.81a144,144,0,0,0,17.3-4.48c-6,1.23-11.88,2.7-17.41,4.4l16.63-3.87L520.19,43.1a115.59,115.59,0,0,0,14.44-4A58.86,58.86,0,0,0,522,43.44l17.36-4.7-14.5,5.43a63.47,63.47,0,0,0,12-3.8,71.4,71.4,0,0,1-14.21,4.83L539,40.77a124.47,124.47,0,0,1-22.21,5.32L536,39.67l-20.2,4.58L538.62,38a162.9,162.9,0,0,0-15.72,4.78l23.58-7.34-21.75,5.8,17.15-4.55-18.13,3.71q8.53-2.81,17.6-5.22l-13.2,5.28L542.75,37,528.18,42.5l12.76-3.66L528,42.9l2.27-2.63"/><path class="cls-1" d="M69.73,17.3c-.56-1.55-2.74-1.91-4.51-2-9.71-.47-19.72-.6-28.81,2.57C19.86,23.65,9.23,41.09,12.52,57.05a13.23,13.23,0,0,0,3,6.58C18.52,66.8,23.48,67.5,28,68c9.56,1.06,19.72,2,28.43-1.73A199,199,0,0,1,32,67.8c-4.27,0-8.74-.19-12.41-2.19C12.11,61.5,11.24,52,11.23,44c0-2.12,0-4.34,1.08-6.22s3.21-3.32,5.23-4.57C29.86,25.57,44.25,17.57,58.64,21c-7.43-2-15.39-4-22.82-1.94-5.43,1.51-9.94,5-13.76,8.88a64.86,64.86,0,0,0-14.81,23c-1.05,2.83-1.88,6-.57,8.74a11.53,11.53,0,0,0,4.22,4.28A39,39,0,0,0,41.7,69c7.68-2,15.36-6.38,23.05-4.42-8.39,4-17,8.17-26.44,9.21s-19.93-1.66-25.26-8.85c-3.7-5-4.43-11.35-4.07-17.37.59-9.94,4.33-20.33,12.93-26.39,5-3.49,11.06-5.25,17.07-6.8,5.11-1.32,10.39-2.56,15.66-2s10.59,3.29,12.51,7.84c-10.79-4.26-23.22-5.69-34.36-2.3S12.15,30,10.19,40.65c-1.36,7.35.86,15,4.74,21.53,1.93,3.26,4.37,6.42,7.86,8.3,3.09,1.66,6.73,2.18,10.29,2.48a104.21,104.21,0,0,0,34.55-2.84C58.82,73.61,49.77,77,40.2,77.67s-19.9-2-26-8.83C10,64,8.24,57.67,7.67,51.46a32.43,32.43,0,0,1,.91-12.29C10.74,32,16.45,26,23.43,22.2s15.12-5.47,23.22-5.79c7.28-.29,15,.64,20.79,4.72-7.64-7.22-20.32-7.74-30.81-4.81C17.44,21.66,1.88,38.21,1.39,56.6c-.12,4.38.65,9,3.43,12.51,2.33,3,5.87,5,9.55,6.4,13.85,5.36,30.89,2.92,42.31-6.05-6,5.51-14.6,8.18-23.07,8.19s-16.76-2.43-24.29-6C7,70.6,4.61,69.34,3.06,67.38A13.35,13.35,0,0,1,.67,60c-1-12.59,4.78-25.08,13.61-34.75,3.47-3.8,7.56-7.32,12.59-9.13,5.45-2,11.51-1.73,17.34-1.36,10.11.65,20.43,1.72,29.58,5.73a98,98,0,0,0-25.09-5,26.54,26.54,0,0,1,24,.3,175.68,175.68,0,0,1-22-1.92,88.77,88.77,0,0,1,19.75,1.13,117.65,117.65,0,0,0-26.89.77c-4.5.65-9.1,1.62-12.83,4-4.05,2.61-6.7,6.64-9.06,10.63a179.18,179.18,0,0,0-10,19.54c-2.71,6.2-4.59,14.34.94,18.69,2.08,1.63,4.83,2.33,7.5,2.86a97.48,97.48,0,0,0,27.43,1.51A50.49,50.49,0,0,1,17.75,67.6C14.29,65.76,11,63.39,9.2,60.11c-2-3.61-1.85-7.87-1.28-11.88a59.59,59.59,0,0,1,7.26-21c-1.71,5.66-5.62,10.5-9,15.51S-.05,53.42.59,59.27,6.72,70.84,13.08,70.2C6.74,65.32,4.39,56.55,7.53,49.53c-7,7.07-4.05,20.12,5.4,24.08C9.4,68,5.8,62.15,4.82,55.7,3.1,44.48,9.56,33.63,16.71,24.39,23,16.21,31.12,7.94,41.94,6.55c7.64-1,15.23,1.68,22.4,4.3-4.63-3.19-11.1-2.79-16.69-1.4s-11,3.63-16.83,3.67a78.91,78.91,0,0,1,41.91-2.88,203.05,203.05,0,0,1-26.31.93,64.89,64.89,0,0,1,28.06.75,88.18,88.18,0,0,0-17.06.41,33.79,33.79,0,0,0,11.69.79,45.22,45.22,0,0,0-58,24A26.58,26.58,0,0,0,8.64,49.16c.64,10.08,9.72,18.65,20.29,21.46s22.12.62,32-3.91c-4.85,4.6-12,6.53-18.94,7.2-7.75.75-15.88.1-22.73-3.3S7,60.69,6.91,53.54c-2.18,5.34-4.12,12,.06,16.21a16.19,16.19,0,0,0,5.86,3.3A120.63,120.63,0,0,0,36.28,79.4L9.09,60.25c-.67,3.4,2.46,6.38,5.52,8.41a51.37,51.37,0,0,0,27,8.88c9.72.19,19.67-3.13,26.24-9.7A47,47,0,0,1,32,76.91l21.58-6c-11.22,8.06-29.87,4.8-37.08-6.48-4.4-6.89-4.58-15.63-1.65-23.14s8.69-13.9,15.4-19c7.3-5.52,16.11-9.74,25.55-10.31,5.21-.32,10.88.68,14.46,4.17l-4.07,1.07"/><path class="cls-1" d="M181.06,56.86c.26,0,.39.1.34.24a414,414,0,0,0,26.15-32.43,184.13,184.13,0,0,0,18.12,33.85c-7.13-5.82-12.12-13.14-14.26-20.93-1-3.74-1.59-7.86-5.09-10.61l-20.66,30.5c-.3-3.82,2.7-7.43,6.6-9.86s8.63-3.91,13.2-5.53a179.57,179.57,0,0,0,21.69-9.29q-20,9.33-38.8,20a113.51,113.51,0,0,1,36.57-15.62c.19.78-1.88.37-1.64-.4s1.42-1.08,2.37-1.42,1.88-1.2,1.26-1.84Q212.4,41.86,196.83,49a177,177,0,0,1,25.75-15L195,46.35l26.31-10.73A125.92,125.92,0,0,0,182.05,56.3c5.39-9.72,14-18.18,22.52-26.52a158.28,158.28,0,0,0-20.36,23,56.68,56.68,0,0,1,17.29-23.2A146.77,146.77,0,0,1,183,49.63l22.36-25.27q7.44,15.86,13.84,32A247.88,247.88,0,0,0,202.6,28.6c.3,4.49,3.11,8.63,5.86,12.61L220.08,58c-8.28-7.17-13.85-16.12-15.9-25.53q5.84,13.54,13,26.72-2.84-8.72-6.22-17.32a44.73,44.73,0,0,0,9.88,16.61l-7.42-14.15q6.1,7.78,13,15.15C221,56,217.75,51,214.67,46.05L202.37,26.51a90.49,90.49,0,0,1,12.71,23.28L203.6,25.28a101.5,101.5,0,0,0-20.49,28.89,169.05,169.05,0,0,1,21.33-30.78c5.22,7.25,7.88,15.37,10.48,23.39a275.87,275.87,0,0,1-12-25.27A117.67,117.67,0,0,0,182,54.69l39.75-18.84L197.07,46.74a10.46,10.46,0,0,1-4.34,1.18c-1.56,0-3.2-1-3.06-2.14A213.39,213.39,0,0,1,224,36.41L204.54,46.48q8.72-4.81,17-10c-10.76,6.78-27.49,7.46-35.75,16a247.07,247.07,0,0,1,38.79-17l-4.76,1.95"/><path class="cls-1" d="M307.85,19.13c-7.72,4.92-18,8-28.73,8.65l28.19-6.86c-8.59,2.09-17.61,3.48-26.1,5.64,7.71-1,15.19-4.07,21.61-7A152.14,152.14,0,0,0,284,24.31a105.28,105.28,0,0,1,18.64-5.47,126.44,126.44,0,0,0-23.39,3.83,131.23,131.23,0,0,0,24.52-3.57L285.11,24A116.21,116.21,0,0,1,309.42,20l-6.15,3.17,6.22-2.57-7.32,1a21.73,21.73,0,0,0,8.52-4.15A58.69,58.69,0,0,0,291,21.22l18.65-3.14a125.39,125.39,0,0,0-23.71,6,153.85,153.85,0,0,0,23.45-5.86,233.44,233.44,0,0,0-25,4.4l15.93-3.71a107.3,107.3,0,0,0-18.16,4.2,47.89,47.89,0,0,0,10.34-2.83c-23.77,0-22.05,21.71-25,32.73a118.54,118.54,0,0,1,6.21-24.08L262.25,51.73l10.31-24.17a105.29,105.29,0,0,1-10.17,25.63l12.31-25.8-9.6,24.19a126.9,126.9,0,0,0,11-23.07,252.62,252.62,0,0,0-14.19,29.81,95.94,95.94,0,0,0,12.39-28L262.66,57.86A139.56,139.56,0,0,0,272.83,34a91.15,91.15,0,0,0-7.25,19.79,141.16,141.16,0,0,0,11.85-23.4,207.88,207.88,0,0,0-10.8,25.89A77.22,77.22,0,0,0,276,30a180.16,180.16,0,0,1-10.24,25.89A83.64,83.64,0,0,0,276,30.14a127,127,0,0,1-11.5,29.38,81.08,81.08,0,0,1,8.58-29.82,122.71,122.71,0,0,0-14.41,29.65,192.34,192.34,0,0,0,15.26-29,294.34,294.34,0,0,0-13.65,29.33,48.77,48.77,0,0,0,7.69-11.24,16.49,16.49,0,0,0-3.43,9.88L296,54.24l-24.54,7.69A106.78,106.78,0,0,1,300.84,51c-10.69,5.2-24.19,7-37.22,8.7A253.63,253.63,0,0,1,302.71,54l-35.63,3.31a251.62,251.62,0,0,0,37-4.89L265,58.86l37-6.4a121.37,121.37,0,0,0-33.64,6.21,164.68,164.68,0,0,1,33.54-7.23,105.57,105.57,0,0,1-36,5.65,312.53,312.53,0,0,0,32.88-7.43,195.45,195.45,0,0,1-31.39,4.88l29.94-5.41A238.89,238.89,0,0,1,263.72,53a297.3,297.3,0,0,0,35.59-5.4,91,91,0,0,1-29.74,5.6,219.91,219.91,0,0,1,29.77-5.95L270,54.86l27.58-5.1L267.2,57.66c10-.54,19.51-3,28.85-5.4a159.16,159.16,0,0,1-34.62,7.13l37.39-7.63A341.88,341.88,0,0,1,260.36,60a51.5,51.5,0,0,0,15.4-2.75L272.43,57c-1-3.23-.13-6.56.74-9.81l5.75-21.37L264.61,50.21,276,26.69a47.18,47.18,0,0,1-8.32,22.57,208.56,208.56,0,0,1,8.2-20.51,49.1,49.1,0,0,0-6.64,14.83,48.78,48.78,0,0,1,5.49-20.15c.95,6.54-2,13.28-8.18,18.45l5-14.64-7.24,15.6,7.54-15.42a3.12,3.12,0,0,1,1.37-1.6,7.09,7.09,0,0,1,3.2-.4,108.7,108.7,0,0,0,32.07-4.07,289.12,289.12,0,0,0-31.25,6.28,126.87,126.87,0,0,1,33.55-8.82l-25.72,5.51a44.57,44.57,0,0,1,17.07-2.82,78.45,78.45,0,0,1-18.26,5,74.4,74.4,0,0,1,15.59-4.77,122.54,122.54,0,0,1-22,10.06l3-1.69"/><path class="cls-1" d="M271.75,37l-2.29,4.13q9.81-2.65,19.18-5.65a113.74,113.74,0,0,1-19.8,7,138.64,138.64,0,0,0,21-6.07l-16.43,3.77a141.49,141.49,0,0,0,17.07-4.44c-6,1.22-11.72,2.68-17.18,4.36l16.41-3.84L274.39,42.5a113.62,113.62,0,0,0,14.24-3.92,57.89,57.89,0,0,0-12.42,4.25l17.13-4.66L279,43.55a62.41,62.41,0,0,0,11.85-3.77,70.23,70.23,0,0,1-14,4.79L293,40.19a122.33,122.33,0,0,1-21.91,5.27L290,39.1l-19.94,4.54,22.53-6.19a160.16,160.16,0,0,0-15.51,4.74l23.27-7.28-21.47,5.75,16.93-4.51-17.89,3.68q8.42-2.79,17.37-5.17l-13,5.24,14.41-3.48-14.38,5.49,12.59-3.63-12.8,4,2.24-2.61"/></g></g></g></svg>