<svg xmlns="http://www.w3.org/2000/svg" viewBox="0 0 635.31 603.57"><defs><style>.cls-1{fill:none;stroke:#000073;stroke-miterlimit:10;}</style></defs><title>Circle</title><g id="Layer_2" data-name="Layer 2"><g id="Logo_Elements" data-name="Logo Elements"><path class="cls-1" d="M309.32,10.32q6.54-.29,13.16-.29C484,10,615,142.18,615,305.22S484,600.41,322.48,600.41,30,468.25,30,305.22c0-78,31.24-153.34,84.8-207.85A293.5,293.5,0,0,1,206.9,34a288.72,288.72,0,0,1,55.82-17.78C280.94,12.37,303,14.89,318.42,4,242.5-3.32,165.08,29.74,112,86.53s-82.3,135.53-85.35,214.6a128.59,128.59,0,0,1,13.08-82.61q-11,45.54-25,90.19C38.46,183.12,125.29,72.27,238.92,22.49c15.82-6.93,32.25-12.78,49.3-14.93C299.89,6.1,312,6.34,323,2.16c-60.56,3-125.8,7.83-172.46,48-20.81,17.92-36.17,41.58-50.93,65.09C63.08,173.44,27,239.45,37,308.1c7-76,39.28-149.33,90.1-204.6S246.93,11.34,319.8.49c-49.88,11.14-99.68,24.76-145.43,48.21S86.82,106.15,60.13,151.27C33.92,195.58,23.47,249.68,31.2,301.05c1.06,7,3.77,15.46,10.53,16.71,2.9,61.58,20.26,128.34,58.33,175.66,26.85,33.38,56.46,65.55,93.41,86s82.58,28,121,10.73c-27.45,18.87-64.26,9.12-94.57-4.21-83.7-36.81-160.11-99.92-196.44-186.4-8.4-20-14.63-42.39-9.32-63.51,4.33-17.18,15.4-37.3,3.92-50.47C16,370,62.1,450.68,126.88,501.69S273,576.84,353.95,585c-24.24,9.66-50.44,15.57-76.21,12.26C225,590.5,184.41,547.74,139.57,518c-27-17.92-57.13-31.86-79.69-55.54-34.3-36-45.87-88.44-55.73-138-.95-4.76-1.89-9.67-1-14.44,2.08-11.25,13.76-19.13,14.24-30.58-4.9,38.71,5.64,77.78,19.62,114,15.07,39.08,34.81,77.19,64.57,105.81,35.85,34.48,83.24,52.51,129.63,68.47,33.3,11.46,67,22.33,101.79,27.14a11.84,11.84,0,0,1-9.51-1.21"/><path class="cls-1" d="M328.28,12.68q-6.54-.29-13.16-.29c-161.55,0-292.51,132.16-292.51,295.19s131,295.19,292.51,295.19S607.63,470.61,607.63,307.58c0-78-31.24-153.34-84.8-207.85a293.5,293.5,0,0,0-92.12-63.4,288.72,288.72,0,0,0-55.82-17.78c-18.22-3.82-40.26-1.29-55.7-12.18C395.11-1,472.53,32.1,525.63,88.89S607.93,224.42,611,303.5a128.59,128.59,0,0,0-13.08-82.61q11,45.54,25,90.19C599.15,185.48,512.31,74.64,398.69,24.85c-15.82-6.93-32.25-12.78-49.3-14.93-11.67-1.47-23.74-1.23-34.78-5.4,60.56,3,125.8,7.83,172.46,48,20.81,17.92,36.17,41.58,50.93,65.09,36.53,58.17,72.65,124.19,62.61,192.83-7-76-39.28-149.33-90.1-204.6S390.67,13.7,317.81,2.86C367.69,14,417.49,27.62,463.23,51.07s87.54,57.44,114.24,102.56c26.21,44.31,36.66,98.41,28.93,149.78-1.06,7-3.77,15.46-10.53,16.71-2.9,61.58-20.26,128.34-58.33,175.66-26.85,33.38-56.46,65.55-93.41,86s-82.58,28-121,10.73c27.45,18.87,64.26,9.12,94.57-4.21,83.7-36.81,160.11-99.92,196.44-186.4,8.4-20,14.63-42.39,9.32-63.51-4.33-17.18-15.4-37.3-3.92-50.47C621.6,372.34,575.51,453,510.72,504S364.59,579.2,283.65,587.39C307.9,597,334.09,603,359.86,599.65c52.79-6.79,93.33-49.54,138.16-79.24,27-17.92,57.13-31.86,79.69-55.54,34.3-36,45.87-88.44,55.73-138,.95-4.76,1.89-9.67,1-14.44-2.08-11.25-13.76-19.13-14.24-30.58,4.9,38.71-5.64,77.78-19.62,114C585.53,434.93,565.78,473,536,501.66c-35.85,34.48-83.24,52.51-129.63,68.47-33.3,11.46-67,22.33-101.79,27.14a11.84,11.84,0,0,0,9.51-1.21"/><path class="cls-1" d="M6.79,308.34C.74,301.76.13,291.71.64,282.63,4.2,219.47,43.9,165.57,82.31,116.44,29.12,179.14,1.8,264.72,8.39,348,2.21,262.23,41.57,180.8,80.47,104.88A35.93,35.93,0,0,1,74,124.61l38.39-35.7c-34.25,27.93-59,68.16-69,112.16"/><path class="cls-1" d="M537.45,119.47c21.81,29,44,58.73,55.31,93.6,15.64,48.33,8.69,101,1.36,151.41,10.47-22.33,9.07-48.42,7.43-73.19-2.58-39.17-5.4-79.33-21.17-115,35.46,46,53,106.37,48,165a638.75,638.75,0,0,0-15.57-105.88c-4.32-18.43-10.17-37.84-24.32-49.84,32.9,46.76,46,108,35.2,164.81-.61,3.24-3.86,7.34-6,4.9"/></g></g></svg>