<svg xmlns="http://www.w3.org/2000/svg" viewBox="0 0 95.07 72.65"><defs><style>.cls-1{fill:none;stroke:#000073;stroke-miterlimit:10;}</style></defs><title>Coding</title><g id="Layer_2" data-name="Layer 2"><g id="Icons"><g id="Coding"><g id="Coding-2" data-name="Coding"><path class="cls-1" d="M34,26.48,6.43,36.17,32,23.24c-6.83,6.22-18.59,7.38-27,12.24q13.63-4.39,27.61-8.09C24.48,30.25,16.74,33.62,9,37L30.77,24.66,4.17,36.3c7.35-1.36,14.32-3.75,21.24-6.12L6.58,37.75a61.94,61.94,0,0,1,17.73,9.36L7.38,38.84,32,51.78,10.2,38.64l18.93,9.18L10.63,36.6c4.88,5.38,12.55,8.74,20,11.91L14.3,37.73,30.39,47.92A127.06,127.06,0,0,1,12.6,37.87,37.44,37.44,0,0,0,30.67,49a139.18,139.18,0,0,0-12.6-6.88,75.92,75.92,0,0,0,12.35,8.48L19.81,44.2a24.58,24.58,0,0,0,8.4,4.06L12.5,39.15A48.89,48.89,0,0,0,23.14,46a2.16,2.16,0,0,0,1.22.3c.43-.06.75-.52.44-.76"/><path class="cls-1" d="M61,25.72l27.6,9.6L63.06,22.51c6.83,6.16,18.59,7.31,27,12.13q-13.63-4.35-27.61-8C70.55,29.46,78.29,32.8,86,36.14L64.26,23.92l26.6,11.54c-7.35-1.35-14.32-3.71-21.24-6.07l18.83,7.5a62.13,62.13,0,0,0-17.73,9.27L87.65,38,63,50.79l21.78-13L65.9,46.86,84.4,35.75c-4.88,5.33-12.55,8.66-20,11.8L80.73,36.87,64.64,47A127.39,127.39,0,0,0,82.43,37,37.5,37.5,0,0,1,64.37,48,139.58,139.58,0,0,1,77,41.17a76,76,0,0,1-12.35,8.41l10.61-6.3a24.68,24.68,0,0,1-8.4,4l15.71-9a48.94,48.94,0,0,1-10.64,6.84,2.17,2.17,0,0,1-1.22.29c-.43-.06-.75-.51-.44-.75"/><path class="cls-1" d="M62.35,7.15l0-2.31L37.68,62.49Q46.6,40,56.21,17.81"/></g><path class="cls-1" d="M55.13,8.85a.84.84,0,0,0-1.48-.51,5,5,0,0,0-.88,2.27c-4.16,19-14.06,35-18,54.08.13-4.75,1.9-9.12,3.68-13.21q4.29-9.84,9.14-19.17c3-5.79,6.26-11.68,7.38-18.65A508.28,508.28,0,0,1,34.66,72.46,261.94,261.94,0,0,1,55.28,14.65,338.68,338.68,0,0,1,37.47,59L60.62.19,34.41,64.12,57.1,8C47.29,22.11,40.83,40.13,34.54,57.81A195.94,195.94,0,0,1,50.43,13.29l-18.18,50A288.39,288.39,0,0,1,55.49,9.16q-9.77,23.27-19,47c0-5.27,1.91-10.19,3.83-14.77C45.18,29.91,50.6,19,56,8Q43.92,37.93,31.12,67.25c6-21.42,15-40.86,24-60.11Q47,26.79,38.51,46.12"/><path class="cls-1" d="M29.33,23.65,10.28,34.91,31,21.09c-10,3.73-19.47,8.48-29,13.23L28.36,20.17c-9.21,4.65-18.43,9.3-27.21,14.69,3.94,3.84,9.39,5.63,14.64,7.31l19.88,6.35L14.45,39.84C12.5,39,10.33,38,9.74,36a14.51,14.51,0,0,0,5.7,4.29c4.15,1.74,9.79,2.13,11.38,6.31L12.46,35.28c3.05,4.08,8.39,5.6,13.34,6.86.28.07-.23.49-.25.2"/><path class="cls-1" d="M65.46,20.46a2.11,2.11,0,0,0-3.55-.81c.61,4.81,5.94,7.31,10.53,9l13.92,5c-2.35.29-4.65-.69-6.81-1.65L63.29,24.68c-1-.44-2.12-1.68-1.28-2.35A67.81,67.81,0,0,0,81.51,32a65.93,65.93,0,0,0-21-10.69c.43-.74,1.56-.43,2.31,0l22,11.68c1.27.67,2.64,2.44,1.44,3.22A111.5,111.5,0,0,0,62.85,56.59a160.87,160.87,0,0,1,16.73-16A86.52,86.52,0,0,1,58.68,51,204.85,204.85,0,0,1,79.49,36.88q-7.82,8-16,15.52L78.12,39.72,60.72,55.24A129.49,129.49,0,0,1,77.2,41.69a1.51,1.51,0,0,0,.24-.21"/></g></g></g></svg>