<svg xmlns="http://www.w3.org/2000/svg" viewBox="0 0 38.41 56.55"><defs><style>.cls-1{fill:none;stroke:#000073;stroke-miterlimit:10;}</style></defs><title>Facebook</title><g id="Layer_2" data-name="Layer 2"><g id="Social_media_icons" data-name="Social media icons"><g id="Facebook"><g id="Facebook-2" data-name="Facebook"><path class="cls-1" d="M32.08,3.28c-6.7-2.81-15.59.87-17.87,7.39-1,2.73-.86,5.66-.73,8.53Q14.24,36.25,16,53.25C18,44,13,34.55,14.13,25.18A38.76,38.76,0,0,1,17,15.23c1.3-3.21,2.82-6.53,5.69-8.67,3.48-2.6,8.23-3,12.67-3.27l-6.64,1C24.6,4.94,20,5.81,17.54,9a13.93,13.93,0,0,0-2.33,6.34,135.33,135.33,0,0,0-1.62,37.06c-.31-14.16-3.95-33.28,16.28-35.2a68.85,68.85,0,0,0-23.45,2c7.94,1.36,17.26-4.5,24.66-.05-1.6-3.2-6.56-2.55-10.23-1.7A64.45,64.45,0,0,1,3.76,19a1.4,1.4,0,0,0,.52,2.08,4.77,4.77,0,0,0,2.53.41l24.57-.55a55.33,55.33,0,0,0-23-.42c7.44-1.78,15.36-3.56,22.68-1.39a72.42,72.42,0,0,0-23.2,3.65c8.55,2.83,18.34-3.57,26.82-.56a92.55,92.55,0,0,0-29,2.28c6.72,3.84,15.44-3.5,23-1.37a145.75,145.75,0,0,0-24.17,3l11.34-2q-6.07.23-12.15,0l28.13-3.86a20.8,20.8,0,0,0-11,1.14,24.59,24.59,0,0,0,9.37.68,11.85,11.85,0,0,0-6.56,1,9.92,9.92,0,0,0,8.09.67,8,8,0,0,1-4,.35,14.37,14.37,0,0,0,5.51.79,14.43,14.43,0,0,0-5.71.37,7.13,7.13,0,0,0,5-.19l-5.13.94a6.42,6.42,0,0,0,5.79-1.79L21.7,24.21a20,20,0,0,0,10-1.3,7.46,7.46,0,0,0-7-2l7.73-2.3-7.08,0a12.8,12.8,0,0,0,4.86-.57,48.06,48.06,0,0,1-8,2.3q4.16.49,8.35.6a17.6,17.6,0,0,1-7.78,3,11.55,11.55,0,0,0,7.45.89l-17.53,1a1.79,1.79,0,0,0,1.88.42,21.07,21.07,0,0,1-13-2.65,80.5,80.5,0,0,0,13-2.23,50.91,50.91,0,0,1-9.2-2.52c12.28,7.44,16.57-8.36,25.93-8.41-3.73-1.36-7.7,1.12-8.87,4.7s-.09,7.49.7,11.2a69.18,69.18,0,0,1,.54,26.15l-1.9-23.84c-.32-4-.63-8.06.44-11.93S26,9.19,30.06,7.88c-1.68-1.29-4.38-.62-5.82.9s-1.94,3.61-2.33,5.61a112.08,112.08,0,0,0-1.2,35.35L16.89,19c-.35-2.79-.69-5.66.1-8.36,1.58-5.41,8.13-9.08,14-7.84-4.75,1.29-10,3-12.24,7.08-1.33,2.47-1.29,5.37-1.21,8.14l.84,31.12c1.74-6-1.91-12.16-2.84-18.35A38,38,0,0,1,16,19.25C16.81,14.42,18.19,9,22.68,6.52c3-1.66,6.63-1.65,10.09-1.58-1.58.63-2.83-1.58-4.52-1.88a4.3,4.3,0,0,0-2.85.89c-3.74,2.27-7.71,4.8-9.21,8.72a17.52,17.52,0,0,0-.76,6.58Q15.7,35.66,17.61,52L14.25,16a16.25,16.25,0,0,1,.27-6.52c1.93-6,10-8.19,16.65-7.26L21.74,6.05a13.59,13.59,0,0,0-4.37,2.42c-2.34,2.22-2.57,5.66-2.55,8.77a134.06,134.06,0,0,0,4.43,33.31,199.54,199.54,0,0,1,2.83-43,3.55,3.55,0,0,1,.73-1.89,3.74,3.74,0,0,1,1.92-.9,21.71,21.71,0,0,1,9.38-.11c-6,1.85-10.16,7.17-12,12.81S20.46,29.15,20.62,35l.47,17.11.4-16.53,2.31,17a170.75,170.75,0,0,1-2.49-22.54C21,23.38,21.36,16,26,10.95c2.34-2.54,7.18-4,9.19-1.25a23.82,23.82,0,0,1-8.31,2,5.06,5.06,0,0,0,3.82.71c-2.69-2.75-8-1.07-10,2.19s-1.47,7.25-1,10.94l3.82,27.73c-2-2.35-1.95-5.6-1.86-8.57l.9-29.38a86.54,86.54,0,0,1,.84,33.28,42.89,42.89,0,0,1-5.06-11.1,59.74,59.74,0,0,0-.67,13.89"/><path class="cls-1" d="M1.29,24.81A45.73,45.73,0,0,0,1.47,18l0,7.21a11.89,11.89,0,0,0,.51-6.49C1.1,21.36.6,24.79,3.35,26.25a9.05,9.05,0,0,0,4.82.52l26.78-2V20.28l0,5.6.8-6.58a16.79,16.79,0,0,0-1.34,7.06,17.8,17.8,0,0,0,.49-6.76l0,6.11V19.13l-.1,6.13L34,18.19a1.08,1.08,0,0,0-.45-.91c-.34-.18-.93.13-.71.42l2.13.24c0,1-1.37,1.41-2.47,1.63L23.7,21.28c3.21-3.47-2.28-9.71,1.71-12.56,2.32-1.66,6.68-.88,8-3.18l-.1,2.75a15.52,15.52,0,0,1-5.63,2.15,23.65,23.65,0,0,1,7.93.6L34.86,4.4a9.88,9.88,0,0,1-.71,5.77l.25-6.57,1.75,7.21a43.08,43.08,0,0,0,.15-9.13A7.11,7.11,0,0,0,32,2a1.57,1.57,0,0,1,1.91.87l1.63-.81-6.31.81a26.78,26.78,0,0,1,6.27-2l-6.28,0,4.64,0L27.54,2.45A85.82,85.82,0,0,0,36.48,3c-10.6,1.65-20-1.18-21.72,10.54-.59,3.92.06,7.9.71,11.81l3.8-15.63a29.33,29.33,0,0,0-2.72,10.84c-1.42-2.88-5.62-4.22-8.63-2.75l5.87.24a22.91,22.91,0,0,0-10.25-.45,14.29,14.29,0,0,0,8,1.71A26.2,26.2,0,0,0,5.89,20,2.21,2.21,0,0,0,5,18.22l.29,8.88a7.85,7.85,0,0,0-.37-6.16c-1.73,1.18-.2,4,1.89,4.42s4.2-.45,6.31-.77a24,24,0,0,1,7.37.42l-4,.74,16-1.78.12-4.4a15,15,0,0,1-.85,7.23,31.52,31.52,0,0,0,.77-9.44l-15,1.35,10.48-.39a133,133,0,0,0-17.2,3.25A22.64,22.64,0,0,0,23.51,21,135.56,135.56,0,0,0,8.75,19.41c1.1,2.23,4.71,2.89,6.63,1.22a55.73,55.73,0,0,1,1.18,22.25q-.48-8.31-.38-16.64L14.08,52,14,36.13l.07,13.82,6.66.18a5.57,5.57,0,0,1-5,1.23,6.81,6.81,0,0,0,4.82.65,23,23,0,0,0-5.46,1.53l6.28-.06-3.79,0a11.16,11.16,0,0,0,4.66.67l-1.67-20,2,12.5A160.86,160.86,0,0,0,23,28.42a128.52,128.52,0,0,0,.81,21.49l-.28-24.49q-.72,10.71-.82,21.44A151,151,0,0,1,18.6,21.49l-.1,4.83"/><path class="cls-1" d="M33.42,1.26c-4.89,0-10.28.49-13.68,3.77-3.85,3.72-3.65,9.58-3.21,14.74a21.48,21.48,0,0,1-1-9.13,7,7,0,0,1,1-3.21A7,7,0,0,1,19.8,5a15.07,15.07,0,0,1,11.88.39A20.45,20.45,0,0,0,21.41,7.92a29.09,29.09,0,0,0,9.92-.11,6.85,6.85,0,0,1-.89-4.25"/></g><path class="cls-1" d="M24.55,7.85a1.35,1.35,0,0,0,1.08-1.27,15.6,15.6,0,0,0-5.21,13.18L21.75,8.5A39.17,39.17,0,0,0,18.23,17l3-9.45a22.44,22.44,0,0,0-.86,18.61"/></g></g></g></svg>