<svg xmlns="http://www.w3.org/2000/svg" viewBox="0 0 74.38 67.4"><defs><style>.cls-1{fill:none;stroke:#000073;stroke-miterlimit:10;}</style></defs><title>Farming</title><g id="Layer_2" data-name="Layer 2"><g id="Icons"><g id="Farming"><path class="cls-1" d="M14.91,19.22a29.85,29.85,0,0,1,7.42,3.55c1.93,1.49,2.86,3.53,1.47,5.07.22-3-3.28-6.17-8.28-7.44A8.57,8.57,0,0,1,21.22,23,8.65,8.65,0,0,1,23,27.06c-.53-2.87-2.77-5.7-6.26-7.9a28.7,28.7,0,0,1,7.63,7c-.84-2.73-4-5.28-8.35-6.67,3.92,1.23,7.11,3.26,8.81,5.61-1.25-2.45-4.65-4.59-8.83-5.56a7.91,7.91,0,0,1,5.91,2.06,7,7,0,0,1,1.69,4l2.12.19"/><path class="cls-1" d="M43.17,20.79a8.61,8.61,0,0,1,6.48-7.15,6.9,6.9,0,0,0-5.52,6A10.33,10.33,0,0,1,50,13.29,20.54,20.54,0,0,0,45,19a17,17,0,0,1,4.65-5.25,5.63,5.63,0,0,0-2.9,7.55"/><path class="cls-1" d="M26.94,29.49a12.88,12.88,0,0,1,3.36,5.76A9.07,9.07,0,0,0,26.9,31a13.74,13.74,0,0,1,1.65,6.22,8.83,8.83,0,0,0-2.86-7l5,4.73-4.47-5.37a8.33,8.33,0,0,1,3.8,4.13,8.74,8.74,0,0,1-3.4-4,7,7,0,0,0,1.22-5.83c-1-3.88-5-6.16-8.8-7.4s-8-2-11-4.65l8.69,14.58a10,10,0,0,0,2.47,3.11,6.29,6.29,0,0,0,5.7.65,11.23,11.23,0,0,0,4.74-3.5l-4.29,2c-2,.93-4.21,1.87-6.33,1.29a7,7,0,0,1-4.17-4.09c-.83-1.83-1.22-3.82-2-5.69A16.53,16.53,0,0,0,8,13.47c.66,4,5.07,6.38,6.28,10.23.54,1.71.44,3.66,1.49,5.12a6.11,6.11,0,0,0,3,2,9.39,9.39,0,0,0,6,.33,5.52,5.52,0,0,0,3.87-4.28C26.87,29,25,31.23,22.52,32.4s-5.93.93-7.59-1.28S14,25.47,13.49,22.6c-.76-4-4.15-6.8-7.32-9.3A33.86,33.86,0,0,0,17,14.51a26.12,26.12,0,0,1,6.23,0,9.53,9.53,0,0,1,7.27,6.8,9.45,9.45,0,0,1-3.08,9.43c1.54-2.67,3-5.93,1.61-8.7-1.19-2.45-4.09-3.5-6.71-4.32L7.19,13l16.6,2.42c2.2.32,4.57.73,6.09,2.34a6.62,6.62,0,0,1,1.44,5.46,19.61,19.61,0,0,1-1.94,5.49A11.54,11.54,0,0,0,25.27,17a20.07,20.07,0,0,0-5.81-2.79A81,81,0,0,0,6.75,11,81.79,81.79,0,0,0,17.31,26.62a9.27,9.27,0,0,0,4.32,3.28c3.07.82,6-1.4,8.44-3.47a10.68,10.68,0,0,1-7.33,4.34,7.15,7.15,0,0,1-7.16-4,31.64,31.64,0,0,1-1-4.34C13.74,19,11,16.34,8.38,13.91A63.73,63.73,0,0,0,20.31,15c2.78,0,5.83-.12,8,1.64a6.13,6.13,0,0,1,1.95,6c-.46,2.11-1.9,3.85-3.29,5.51"/><path class="cls-1" d="M31.84,35.71A17.94,17.94,0,0,1,39.36,23c-4.77,2.47-6.15,8.69-7,14.13a18.6,18.6,0,0,1,5.76-12.94c0,4.13-3.59,8.19-2,12a12.71,12.71,0,0,1-.3-7.9c.89-2.52,3.39-4.58,6-4.18-3.2,3.87-6.55,8.11-6.87,13.18a20,20,0,0,1,4.55-13.37c-2.78-6.2.39-14.48,6.54-17C50.36,5,55.92,5.55,59,1.89a62.41,62.41,0,0,0-4.1,6.82c-1.8,3.66-2.92,7.73-5.36,11S42.63,25.17,39,23.37a9.72,9.72,0,0,0,10-.78,10.4,10.4,0,0,0,4-9.48,30.31,30.31,0,0,1-.47-3.32c0-3.15,2.26-5.76,4.42-8a39.11,39.11,0,0,0-13.41,11.3c-1.4,1.86-2.69,4-2.69,6.37s1.81,4.84,4.1,4.7a6.93,6.93,0,0,1-5.34-5.79A10.26,10.26,0,0,1,42,10.47a8.48,8.48,0,0,1,4.26-3C48.06,7,49.92,7.31,51.71,7s3.7-1.6,3.68-3.46a25,25,0,0,0-.91,8.84c.19,2.52.75,5.19-.24,7.5a7.71,7.71,0,0,1-5,4.08,22.07,22.07,0,0,1-6.54.6c2.62,2.37,7,.66,8.89-2.38s1.9-6.84,2.13-10.42S54.52,4.31,57,1.84a21.47,21.47,0,0,1-6.51,5A29.2,29.2,0,0,0,45.9,9.21a12,12,0,0,0-4.07,6.31,6.29,6.29,0,0,0-.13,4,2.64,2.64,0,0,0,3.15,1.74"/><path class="cls-1" d="M65.45,51.24c-4.81-1.89-10.64-1.1-15.43-3-3.52-1.42-6-4.12-9-6.29S34.11,38,30.42,39.06a13.87,13.87,0,0,0-4.85,3L12.65,52.76a3.68,3.68,0,0,0-1.6,2.17c-.17,1.81,2.58,2.69,4.73,2.77,7.4.27,14.83-1.9,22.14-.88,4.91.69,9.43,2.78,14.34,3.47s10.9-.61,12.7-4.54a2,2,0,0,0,0-2.05,3.27,3.27,0,0,0-1.64-.88c-4.81-1.48-10.09-2.48-13.78-5.48-2.74-2.23-4.45-5.45-7.82-6.94-4.09-1.81-9.11-.41-13.2,1.4A59.91,59.91,0,0,0,4.07,61.09a1.35,1.35,0,0,0-.35.85c0,.44.51.75,1,1,5.5,2.73,12.37.6,18.6-.54a55.46,55.46,0,0,1,14.65-.69c5.18.45,10.34,1.62,15.52,1.18s10.62-3.09,11.65-7.41A2.75,2.75,0,0,0,65,53.68c-.64-1.42-2.76-1.76-4.52-2.05a30.27,30.27,0,0,1-13.12-5.45c-2.91-2.17-5.41-4.92-9-6.06-5.72-1.81-11.94,1-17.06,3.79q-8.47,4.65-16.58,9.75c-.56.35-1.17.79-1.2,1.38A1.65,1.65,0,0,0,4,56.1c2.41,2.82,6.79,3.95,10.9,4s8.17-.75,12.27-1c9.67-.53,19.61,2.19,29,0,2.42-.56,5.05-1.8,5.37-3.9.22-1.47-.8-2.86-1.86-4A41,41,0,0,0,46,41.4c-4.28-1.93-9.46-3.21-13.93-1.61-3.87,1.38-6.33,4.61-9.79,6.63-2.94,1.71-6.52,2.5-9.52,4.14S7.3,55.27,8.47,58.12a2.15,2.15,0,0,0,.79,1,3.7,3.7,0,0,0,2,.39c8.67.07,17.27-1.82,25.92-1.32,3.89.22,7.74.93,11.64.87s8-1,10.56-3.52A1.86,1.86,0,0,0,60,54.21,2,2,0,0,0,59.19,53C54.56,49.12,47,48.66,42.37,44.84c-2.89-2.37-4.77-6-8.67-6.83-2.7-.55-5.47.51-7.87,1.69C17.15,43.95,9.58,50.49,7,58.68a2.78,2.78,0,0,0,.19,2.74,4.2,4.2,0,0,0,3.14.9c5.73,0,11.24-1.73,16.91-2.41,10.18-1.23,20.67.83,30.79-.7,2.7-.41,6-2,5.29-4.23a4.71,4.71,0,0,0-1.85-2l-9.61-7.13c-4.71-3.5-9.8-7.15-16-7.88-9-1.07-17.51,4.49-22,11.18a31.28,31.28,0,0,1-3.42,4.76C7.76,56.64,3.63,58.08.6,60.55c.94,2.32,4.61,2.62,7.5,2.52l26.2-1c5.84-.21,11.86-.46,17.18-2.52,2.49-1,5-2.71,4.95-5-.05-1.56-1.3-2.88-2.51-4.06A132.18,132.18,0,0,0,38.49,37.65"/><path class="cls-1" d="M41.57,33.29c-1.32-1.36-3.33-.39-4.83.63L26.21,41.07C18.07,46.6,9.08,53.55,7.76,64.55a178.17,178.17,0,0,0,53.91.57c3.47-.49,7-1.15,9.94-3.41a5.22,5.22,0,0,0,2.28-4c0-3.31-3.76-4.25-6.48-5.11-3.68-1.16-6.84-3.93-9.89-6.65L44,34c-1.37-1.22-2.82-2.48-4.51-2.72a7.88,7.88,0,0,0-4.4,1.09A73.82,73.82,0,0,0,6.84,56.9a5.43,5.43,0,0,0-1,2.1c-.55,3.05,3.09,4.54,5.74,4.61a195.78,195.78,0,0,0,43.71-3.73c3.61-.72,7.59-1.84,9.58-5.45a5.64,5.64,0,0,0,.71-3.81,5.44,5.44,0,0,0-1.81-2.83c-3.06-2.72-7.14-3-10.72-4.58-7.14-3.2-12.74-12-20.34-11.58C28,31.87,24,35.7,20.5,39.34L7.06,53.17c-.9.93-1.88,2.08-1.76,3.5.15,1.64,1.67,2.56,3,3,3.43,1.09,7,1,10.58.9l34.86-1c3.84-.11,8-.35,11-3.22-1.54-4.48-5.14-7.54-8.84-9.63s-7.69-3.46-11.21-5.94c-3.22-2.27-6.27-5.53-10-5.62a11.4,11.4,0,0,0-4.94,1.33A57.84,57.84,0,0,0,5.57,58c-.89,1.38-1.61,3.67-.35,4.6A2.45,2.45,0,0,0,6.45,63c10.71,1.25,21.46,2.5,32.19,2,10.05-.49,20.22-2.63,29-8.28L48.23,40.42a6.82,6.82,0,0,1-2.69-3.64"/></g></g></g></svg>