<svg xmlns="http://www.w3.org/2000/svg" viewBox="0 0 57.55 80.77"><defs><style>.cls-1{fill:none;stroke:#000073;stroke-miterlimit:10;}</style></defs><title>FinanciallyLit</title><g id="Layer_2" data-name="Layer 2"><g id="Icons"><g id="FinanciallyLit"><path class="cls-1" d="M7.8,50c1.56,4.53,5.71,8.39,11,10.2a22.82,22.82,0,0,0,16.44-.77,11.75,11.75,0,0,0,4.42-3.22,8.77,8.77,0,0,0,1.72-4.73C41.9,44.73,36.1,37.12,27.48,37a41.85,41.85,0,0,1,12,10,6.2,6.2,0,0,1,1.36,2.35,5.19,5.19,0,0,1-.7,3.44,20.16,20.16,0,0,1-9.57,8.94,14.83,14.83,0,0,0,8.29-7.18,18.35,18.35,0,0,0,1.72-10,7.44,7.44,0,0,0-1.08-3.7c-1.81-2.64-5.95-3.31-9.57-3.71,4.11,1.69,8.58,3.71,10.07,7.31a10.11,10.11,0,0,1,.2,5.91c-.59,2.91-1.87,6-4.94,7.5A15.09,15.09,0,0,0,40.79,46.8,7.8,7.8,0,0,0,39.48,42a14.32,14.32,0,0,0-4.61-3.54L25,32.81A50.35,50.35,0,0,1,39.51,51.18a1.43,1.43,0,0,0,.71.84c1.06.42,1.66-1.07,1.4-2C40,43.83,34.4,38.49,27.28,36.28c-1.8-.56-3.83-1-4.95-2.31,3.44,2,7.23,3.52,10.56,5.62s6.27,4.92,7,8.33a8.87,8.87,0,0,1-3.5,8.85,4.29,4.29,0,0,0,3.72-3.26,7.82,7.82,0,0,0-.82-4.71c-2.36-5.48-7-10.71-13.75-12.36,4.92,1.7,9.28,4.72,11.55,8.72a11.31,11.31,0,0,1-.69,12.67c2.72-2.94,1.32-7.17-.43-10.59-2.51-4.87-6-9.94-11.92-11.9a67.13,67.13,0,0,1,12.1,8.75,10.14,10.14,0,0,1,2.33,2.74c1.84,3.66-1.51,7.66-5.1,10.27a20,20,0,0,1-7.55,3.71A48.18,48.18,0,0,0,40,51.09c.82,2.92-1.62,6-4.86,7.29s-7,1.29-10.62.92a60.28,60.28,0,0,1-19.8-5.54c5.44.22,8.49,5.7,13.73,6.92A32.69,32.69,0,0,1,4.56,52.92,38.07,38.07,0,0,0,18.79,61.6c-1.1-1.95-3.73-2.88-6.05-3.84S8,55.3,7.85,53.15c.2,4.53,5.94,7.57,11.34,8.26a28.53,28.53,0,0,0,20.69-5.35c-3.39,3.6-9.07,5.42-14.58,5.41a36.68,36.68,0,0,1-15.64-4c-1.48-.71-3.11-2.19-2.08-3.33a34.37,34.37,0,0,0,15.74,5.93A45,45,0,0,1,4.6,51.89a38.53,38.53,0,0,0,6.72,3.23,4.45,4.45,0,0,0,2.25.38c.76-.13,1.43-.81,1.14-1.41-4,0-7.81-2-9.61-4.92,4.65,6.44,13.73,10.5,22.77,10.18-4.5,2-10.14.48-14.39-1.85a33.32,33.32,0,0,1-7.1-5.18l5.44,4.08A28.87,28.87,0,0,0,8,50.67,3.67,3.67,0,0,0,11.36,53a3,3,0,0,1-.4-3A33.92,33.92,0,0,0,19.26,60a19.9,19.9,0,0,0,7.22,4,11.28,11.28,0,0,0,8.41-.73,8,8,0,0,0,3.84-6.53,21,21,0,0,0-1.35-7.41c-1.17-3.8-2.56-7.87-6.26-10.3-2.67-1.75-6.27-2.43-8.68-4.43A40.28,40.28,0,0,1,42.7,46.06a5.45,5.45,0,0,1,1.62,2.75A4.1,4.1,0,0,1,43.88,51c-2.41,5.39-10.13,8.14-17,7.56s-13-3.78-18.55-7.28c3.93,2.47,8,5,12.74,6.05s10.46.29,13.5-2.92A7.28,7.28,0,0,0,32.9,43.27,38.42,38.42,0,0,0,27,40.72a20.64,20.64,0,0,1-6.41-4.19c3.34,1,5.58,3.57,8.61,5.09,3.24,1.62,7.39,2,10.11,4.18A6.13,6.13,0,0,1,41,53.57c-2.09,3.68-7.61,5-12.52,5.1a29.34,29.34,0,0,1-12.73-2.43c-3.83-1.8-7-4.8-8-8.35-.29,1.62,1,3.11,2.3,4.35,3.31,3.22,7.09,6.32,11.89,7.74s10.84.72,13.94-2.64,2.35-8.34-.41-11.91-7.1-6-11.33-8.39l-2.76-1.54c5.44-.38,11.1,1.57,14.38,5.19a10.55,10.55,0,0,1,1.37,12.81c-2.56,4-8.32,6.47-13.69,5.68a27,27,0,0,1-7.64-2.71,18.73,18.73,0,0,1-5.6-3.55C8.74,51.39,8,49.21,9,47.43c1.76,4.89,6.38,8.77,11.64,11.41a25.06,25.06,0,0,0,10.47,2.93c3.72.1,7.62-1.09,9.85-3.57,2.08-2.31,2.46-5.36,2.48-8.25,0-2.29-.18-4.7-1.66-6.63A13.19,13.19,0,0,0,38,40.25c-3.35-2-7.64-4.35-11.75-5-3.29-.55-6.57.46-10-.58-5.62-1.73-8.09-7.92-5.65-12.46s8.73-7.16,14.72-7a26.53,26.53,0,0,1,15.81,6.36c1.89,1.58,3.65,3.56,3.5,5.78.09-4.46-5.18-9-10.3-10.4s-10.82-.38-15.57,1.71c-3,1.32-5.84,3.21-7.07,5.84a5.55,5.55,0,0,0,2.6,7.44c1.58.73,3.46.8,5.19,1.24s3.49,1.54,3.47,3c-4.88-2.46-8.25-6.88-8.84-11.6A6.29,6.29,0,0,1,15,20c1.61-2.22,5-3,8-3.51a6.68,6.68,0,0,1,3.15-.06,5.44,5.44,0,0,1,2.1,1.46L39.06,28.41c1-2.8-.26-6-2.7-8.07A18.69,18.69,0,0,0,27,16.5c-3.84-.6-8-.42-11.33,1.29S10.25,23,11.48,26.1s4.8,4.64,8.29,5.7c-3.07-3.2-5.5-7.18-4.9-11.24s5.28-7.83,10.11-7a15.76,15.76,0,0,1,4.29,1.63l8.84,4.42c3.33,1.66,7,3.68,7.73,6.85-4.71-2.63-7.76-7-12.58-9.49a20.16,20.16,0,0,0-11.55-2c-4.27.52-8.51,2.7-9.83,6.11-1.1,2.84,0,6.06,2.32,8.37a20.65,20.65,0,0,0,9,4.79c-1.55-3.17-3.14-6.49-2.83-9.9A8.22,8.22,0,0,1,27.56,17c3.77-.37,7.15,1.9,9.68,4.26s4.93,5.07,8.52,6.11L36.51,19c-3.16-2.86-6.76-5.91-11.42-6.3-6.55-.54-12.15,4.92-12.39,10.37a6.71,6.71,0,0,0,1,4.2c2.53,3.64,8.83,3.68,13,6a12.11,12.11,0,0,1-5.62-9A7.37,7.37,0,0,1,22.69,19a6.77,6.77,0,0,1,5.68-2.37A10.85,10.85,0,0,1,32.28,18,80.37,80.37,0,0,1,43.6,25.13c-4-5.5-9-11.54-16.64-12.45-5.38-.64-11.09,1.81-13.6,5.81A10,10,0,0,0,15.31,31.1c-1.81-4.54-3.42-10.06.35-13.69,2.3-2.21,6.15-3,9.64-2.61a24.74,24.74,0,0,1,9.56,3.55c3.31,1.94,6.44,4.36,7.75,7.54C40.46,20.2,30.94,18.59,28,13.17c7.08-.31,12.68,4.66,17.18,9.2a49.85,49.85,0,0,1-11.06-8.16c6.3,1.51,11.64,5.54,14,10.59-3.84-3.36-8-6.63-13.05-8.57S23.81,13.89,19,16.18c-4.7,2.22-7.5,7-6.47,11.41s5.95,8,11.35,8.16c-6.12-3.27-12.65-7-14.93-12.71a6.75,6.75,0,0,1-.44-4.2c.92-3.48,5.36-5.41,9.41-6.57a15.53,15.53,0,0,1,6-.82,16.2,16.2,0,0,1,4.36,1.36c3.85,1.62,7.86,3.36,10.27,6.33C32.38,14.07,22,13,14.51,16.72c-3.61,1.79-6.65,4.93-6.38,8.41.21,2.7,2.41,5.09,5.11,6.61a36.39,36.39,0,0,0,9,3.12,39.58,39.58,0,0,1-8.88-5.37c-2.51-2.23-4.27-5.22-3.92-8.26.64-5.39,7.7-8.87,14.23-9,8.34-.19,16.62,3.86,20.45,10"/><path class="cls-1" d="M32.47,5.56Q25.71,40.23,18.3,74.75a288.69,288.69,0,0,1,17.61-68l-19.53,61c4.26-21.16,8.57-42.47,16.25-62.48A309.51,309.51,0,0,1,18,64.84L32.77,7.93l-8,34.88a113,113,0,0,1-4.07,14.67c-2,5.17-4.72,10.4-4.13,15.91Q24.48,39.57,34.83,6.49C34.19,29.57,23.46,50.9,18.17,73.35L35,11.34C31.73,31.58,28.17,52,20.44,70.8L33.05,26A135.38,135.38,0,0,1,38.79,8.61a146.42,146.42,0,0,1-13.12,38.3L40.1,1.06C29.73,21,30.26,46.39,18.55,65.43a373,373,0,0,0,18-58.28"/><path class="cls-1" d="M56.21,25a168.19,168.19,0,0,0-24-5.61,22.79,22.79,0,0,0-6.5-.36,20,20,0,0,0-7.15,2.81c-3.17,1.78-6.45,3.64-8.2,6.19s-1.49,6,1.71,7.75a17.83,17.83,0,0,0,5.78,1.53L35.77,40a26.56,26.56,0,0,1,6.77,1.62c4.27,1.91,5.79,5.67,6.61,9.14.92,3.86,1.17,8.27-2.55,11.22a16.45,16.45,0,0,1-5.9,2.68c-7.4,2-16,1.25-23.06-1.22A44.85,44.85,0,0,1,.38,52.41a48.34,48.34,0,0,0,13,10.25c4.29,2.38,9.42,4.39,14.92,4.28A23.76,23.76,0,0,0,42,62c2.5-1.92,4.52-4.3,4.63-6.88.23-5.25-7-9-13.4-11.81S19.68,36.6,20.13,31.36c.29-3.34,3.86-6.21,8.12-7.79s9.16-2.1,14-2.52a10.56,10.56,0,0,1,2.48,0c3.54.53,5.13,4.38,8.72,4a219.43,219.43,0,0,0-29.6-3.31,19,19,0,0,0-5.61.33c-5,1.33-6,6.39-3.06,9.53s8.22,4.74,13.29,6,10.46,2.45,14.17,5.15c5.56,4,5.73,10.7,1.83,15.59-4.22,5.28-12.9,8.77-21.62,8.43S5.88,62.17,3.34,56.4c8.08,8.7,27.08,11.37,39.44,5.54,3.48-1.64,6.59-4.12,6.62-7,0-3.11-3.48-5.76-7.44-7.25s-8.44-2.16-12.55-3.44c-7-2.18-12.93-6.39-14.67-11.56s1.38-11.18,8.13-13.73c5.56-2.1,12.52-1.63,18.38,0s10.9,4.43,16.09,6.94C50.86,24.08,45,21.3,38.44,19.6s-14.36-2.18-20.21.48-7.91,9.24-2.6,12.4c-3.67-2.33-6.36-5.64-6-9.07s4.32-6.77,9.3-6.88a23.52,23.52,0,0,1,4.54.48C33.92,18.83,45,21.29,51.59,27.22,49.34,22,39.88,20.4,32,19.71c-3.9-.34-7.92-.68-11.71,0S13,22.53,12.54,25.23c-.38,2.27,1.48,4.48,3.95,6a49.13,49.13,0,0,0,8.44,3.54C34,38.13,42.55,43.28,45.1,50.21S41.89,65.7,31.69,66.84a29.1,29.1,0,0,1-10.51-1C12.72,63.63,5.76,58.84,2.5,53c1-.33,2.26.64,1.67,1.29"/><path class="cls-1" d="M38.63,3.07c-.74-.76-2.29.35-2.55,1.24L16.07,72,42.79.21c-10.59,22.92-18.23,46.51-21,70.42,5.16-13.75,10.35-27.57,12-41.7.74-6.5.91-13.44,6.41-18.83A261.13,261.13,0,0,0,24,77.82l-.84-3.41-2.62-.15c8-22.1,11.51-44.79,15-67.4L30.78,22.95a23.7,23.7,0,0,1,.8-13.75c-1,.09-2.45.64-1.86,1.22s1.83,0,2.38-.61L37.74,4c.69,8.17-3.16,16.16-6.48,24a215.08,215.08,0,0,0-14,47.56,33.43,33.43,0,0,0,6.09-10.7A38.31,38.31,0,0,1,22.19,76l1.18-3.16"/></g></g></g></svg>