<svg xmlns="http://www.w3.org/2000/svg" viewBox="0 0 577.6 75.36"><defs><style>.cls-1,.cls-2{fill:none;stroke:#000073;stroke-miterlimit:10;}.cls-1{stroke-width:0.5px;}.cls-2{stroke-width:2px;}</style></defs><title>Follow Your Curiosity</title><g id="Layer_2" data-name="Layer 2"><g id="Logo_Elements" data-name="Logo Elements"><g id="Follow_Your_Curiosity" data-name="Follow Your Curiosity"><path class="cls-1" d="M355.27,49.33c-.62,1-2.77.12-2.33-1"/><path class="cls-2" d="M191.72,21.74V18.22a88.65,88.65,0,0,0,15.09,21.3"/><path class="cls-2" d="M219.33,8.58,192.72,75"/><path class="cls-2" d="M236,23.75c.14-1.49-1.73-2.8-3.24-2.28-3,4.42-6,9.21-5.7,14.4s5.78,10.37,11.12,8.74a9.86,9.86,0,0,0,5-4,15.69,15.69,0,0,0,.3-17.28,7.53,7.53,0,0,0-4.36-3.5c-1.92-.45-4.31.57-4.58,2.38"/><path class="cls-2" d="M255.57,20.55a31,31,0,0,0,5.28,19.77c.8,1.18,2,2.45,3.5,2.21s2.08-1.57,2.55-2.76a58.37,58.37,0,0,0,4-20.49"/><path class="cls-2" d="M350.64,6.42a32.06,32.06,0,0,0-24.83,7,27,27,0,0,0-9.58,22.27c.15,1.94.63,4.05,2.28,5.28,2,1.46,4.81,1.12,7.25.56a58.56,58.56,0,0,0,20.89-9.36"/><path class="cls-2" d="M363.37,13.23a22.1,22.1,0,0,0-3.3,20.58c.73,2,2.1,4.25,4.41,4.59,3,.46,5.29-2.51,6.5-5.13a60,60,0,0,0,5-16.86"/><path class="cls-2" d="M426.08,13.47a50.4,50.4,0,0,0-5.36,25.75l0-5.94"/><path class="cls-2" d="M386.23,21.88l-.06,12.87c0-5.25.64-10.75,3.79-15.12s9.42-7.18,14.71-5.26a19.59,19.59,0,0,1-13,10,140.86,140.86,0,0,0,18,8.14"/><path class="cls-2" d="M451.29,16.08a2.19,2.19,0,0,0,1-2.82c-6.22-1.85-11.93,4.09-14.2,9.75-1.52,3.78-2.16,8.62,1.08,11.33,4.19,3.51,11,.43,14.63-3.6a13.72,13.72,0,0,0,3.72-7c.87-6.23-6.88-12-13.28-9.86"/><path class="cls-2" d="M486.56,15.2c-.54-2.49-4.12-3.1-6.83-2.69a22.73,22.73,0,0,0-11.48,5.26c-1.23,1.07-2.4,2.53-2,4.06s2,2.37,3.54,2.61a28.7,28.7,0,0,0,4.8-.08,15.68,15.68,0,0,1,7.53,1.74c1.69.88,3.32,2.33,3.26,4.13-.07,2-2.14,3.38-4.09,4.22A30.22,30.22,0,0,1,460.7,35.5"/><path class="cls-2" d="M507.55,13.47a50.4,50.4,0,0,0-5.36,25.75l0-5.94"/><path class="cls-2" d="M531.14,8.73c-.15,12.75,0,19.46,0,32.2"/><path class="cls-2" d="M511,11.46a208.54,208.54,0,0,0,45.05-9.73"/><path class="cls-2" d="M549.37,13.29V9.83a87,87,0,0,0,14.92,20.9"/><path class="cls-2" d="M576.68.37,550.36,65.53"/><path class="cls-2" d="M278.86,27.65l-.06,12.87c0-5.25.64-10.75,3.79-15.12s9.42-7.18,14.71-5.26a19.59,19.59,0,0,1-13,10,140.86,140.86,0,0,0,18,8.14"/><path class="cls-2" d="M1.7,42.07l0,1.5a183.35,183.35,0,0,0-.55-23.06c7.78.26,12.71-5.18,20.5-5l-2.17.56"/><path class="cls-2" d="M19.15,28.73A34.28,34.28,0,0,1,6.51,33.3c-.37.06-.86.06-1-.26s.62-.53.52-.19"/><path class="cls-2" d="M39.9,25.92a2.19,2.19,0,0,0,1-2.82C34.7,21.25,29,27.19,26.72,32.85c-1.52,3.78-2.16,8.62,1.08,11.33,4.19,3.51,11,.43,14.63-3.6a13.72,13.72,0,0,0,3.72-7c.87-6.23-6.88-12-13.28-9.86"/><path class="cls-2" d="M55.59,23.3a43.72,43.72,0,0,0-6,19.83L74.87,32.76c1-.4,2-1.22,3-.77s-.84,1.92-.71.93"/><path class="cls-2" d="M83,21.78A75.18,75.18,0,0,0,80,42a2.64,2.64,0,0,0,.9,2.45,3.26,3.26,0,0,0,2.76-.18l22-8.42"/><path class="cls-2" d="M128.73,23.85a2.19,2.19,0,0,0,1-2.82c-6.22-1.85-11.93,4.09-14.2,9.75-1.52,3.78-2.16,8.62,1.08,11.33,4.19,3.51,11,.43,14.63-3.6a13.72,13.72,0,0,0,3.72-7c.87-6.23-6.88-12-13.28-9.86"/><path class="cls-2" d="M142.51,20.65a61.67,61.67,0,0,0,2.88,23.07,36.45,36.45,0,0,1,9.57-20.45q2.28,5,5.06,9.79c1.14,2,3.16,4.26,5.59,3.64,1.65-.41,2.48-2,3.11-3.37l10.6-23.53"/></g></g></g></svg>