<svg xmlns="http://www.w3.org/2000/svg" viewBox="0 0 71.49 71.87"><defs><style>.cls-1{fill:none;stroke:#000073;stroke-miterlimit:10;}</style></defs><title>GitHub</title><g id="Layer_2" data-name="Layer 2"><g id="Social_media_icons" data-name="Social media icons"><g id="GitHub"><path class="cls-1" d="M43.55,64.49c-.43,0-.1.7.3.55s.44-.61.43-1l-.47-10.93A26.91,26.91,0,0,1,44.93,65.6l0-12L46.5,67.32,45,52.91a48.46,48.46,0,0,1,1.07,13.22A32.35,32.35,0,0,0,42.8,50.22a25.14,25.14,0,0,1,3.44,15.34,21.26,21.26,0,0,0-1.68-15.18c6.18-2.33,12-6,14.86-11.3s2.07-12.29-3.09-16C59.59,28.13,61,34.3,59,39.84A16.35,16.35,0,0,1,44.39,50.15c7-.78,13.37-5.25,15.66-11.06a15.3,15.3,0,0,0-4.6-17,15.39,15.39,0,0,1,4.12,16.47c-2.11,5.6-7.87,10-14.54,11.22,4.82-3.23,9.73-6.7,12.34-11.46s2.24-11.17-2.48-14.5c2.4,5.41,3.84,11.48,1.71,17s-8.78,10-15.33,8.73c5.7-2,11.83-4.26,14.81-8.9s2-10.27,1-15.46l-.54-2.67L54.59,13a29.54,29.54,0,0,1,.13,11.44,10.76,10.76,0,0,0-.08-11,18,18,0,0,1-.27,10.29A8.16,8.16,0,0,0,54.1,14a37.27,37.27,0,0,1,.24,10A16.29,16.29,0,0,0,54,13.28a18.58,18.58,0,0,0-7.88,4.54A14.7,14.7,0,0,1,53.64,12a30.86,30.86,0,0,0-8.34,6.23,15.24,15.24,0,0,1,9.07-5.13c-4.87-.54-9.88,2.78-10.53,7l10.48-4.95A16.8,16.8,0,0,0,44,19.44c-2.32-2.27-6-3.2-9.54-3a32.11,32.11,0,0,0-10.05,2.51c5.51-3.34,13.73-2.8,18.59,1.23-4.77-4.06-12.92-4.69-18.45-1.43a29.33,29.33,0,0,1,20.6-.51,18.54,18.54,0,0,0-17.85.25c5.53-3,12.7-.93,18.75,1.17a45.11,45.11,0,0,0-19.79,1.06,16,16,0,0,0-7.13-8.9,43.94,43.94,0,0,1,7.64,8.4,12,12,0,0,0-8-7.61l9.05,10.06A38.16,38.16,0,0,0,18.68,13a4.51,4.51,0,0,1,3.58-.81,24.56,24.56,0,0,0,3.82,8,14.3,14.3,0,0,0-7.5-8.09A14.85,14.85,0,0,1,26,21.38a13.17,13.17,0,0,0-7.5-6.94,43.59,43.59,0,0,0-2,10.41,23,23,0,0,1,1.34-8.52,13,13,0,0,1,.11,8.16,37.16,37.16,0,0,1,.36-10.09,31.16,31.16,0,0,0-3,11.31,33.06,33.06,0,0,1,2.35-11.47c-.86,1.64-1.74,3.36-1.6,5.15a3.7,3.7,0,0,0,3.71,3.34H18.41c-4.21,2.87-5.68,13-2.29,16.61s8.32,5.9,11.71,9.48c-9.76-3-15.45-13.48-11.93-21.92-5.33,8.65.91,21,11.88,23.42-4.84-2.78-9.83-5.7-12.9-10s-3.65-10.31.23-14.05a25,25,0,0,0,5.54,22A26.6,26.6,0,0,1,15.51,26c-2.88,3.91-2.72,9.12-.41,13.3S21.6,46.7,26.27,49c-10.1-3.83-15.6-14.89-11.87-23.86-1.33,6-2.62,12.43.1,18.08,2.16,4.5,6.86,8,12.32,9.24L26.63,50c1.37-1.74-1.14,3-.52,1,.72,3-4.9,5.21-7.05,2.75a22.91,22.91,0,0,1-1.59-2.88c-1.91-2.92-6.52-3.3-10.4-3.33A14.11,14.11,0,0,1,19,51.92c1,1.18,1.83,2.59,3.29,3.36s3.87.42,4.19-1c-3.55,1.58-7.35-1.54-9.85-4.23s-6.84-5.51-10-3.41A21.65,21.65,0,0,1,17,55.6c1.43,2.53,4,6,6.82,4.56-3.84.49-6.83-2.76-8.69-5.7s-4.15-6.39-8-6.7c4,.37,6.29,3.89,8.23,6.89s5.11,6.29,9,5.67l.89,4.95V61.77l0,2.6a3.64,3.64,0,0,0,.72-2.58V65a5.44,5.44,0,0,1-.65-4.13l-.18,2.83c1.21-.86.35-2.66-1-3.31s-3-.65-4.47-1.16c-5.48-2-5.65-10.25-11.51-11.07l10.43,9.47c1.42,1.29,3.24,2.7,5.26,2.34l-.12,5.31A33,33,0,0,1,5.74,51.54,35.15,35.15,0,0,0,23.47,66.69,83.09,83.09,0,0,1,12.31,61.8l6.84,3.67a48,48,0,0,1-18.49-18l11,13.27a44.31,44.31,0,0,1-9-19.1A63.43,63.43,0,0,0,9,56.15,38.42,38.42,0,0,1,3.78,36.79,35.73,35.73,0,0,0,4.85,52,99.38,99.38,0,0,1,.68,32.9a47.46,47.46,0,0,0,2,18.16,32.46,32.46,0,0,1,.08-21.91,43.27,43.27,0,0,0,.73,19.64,51.14,51.14,0,0,1,.63-24,52.81,52.81,0,0,0-.68,21,41.48,41.48,0,0,1,2-24.56Q3.94,31.54,1.37,41.72a44.33,44.33,0,0,1,4.17-21.3L1.93,41A68.13,68.13,0,0,1,5.41,19.29L1.31,41.92A41.47,41.47,0,0,1,6.65,15.13l-6.18,17L7,13.85l-4.7,19C1.46,24,5.42,14.85,12.81,8.68a103,103,0,0,0-10,20.43,44.08,44.08,0,0,1,13-22.8L2.53,24.42c1.42-7.87,7.69-15,16.1-18.21L7.31,17A48.45,48.45,0,0,1,23.42,1.93L11.71,10.38a39.49,39.49,0,0,1,19.13-7L18.31,8.07A34,34,0,0,1,32,1.62,53,53,0,0,1,16.23,7.57,31.25,31.25,0,0,1,38.32,2.23L17,6.61A34.93,34.93,0,0,1,41.16,2.8l-13.32.73A25.63,25.63,0,0,1,44.42,1.86L28.4,3.8a45.33,45.33,0,0,1,18.77-1A53.61,53.61,0,0,1,31.9,3,50.18,50.18,0,0,1,54.09,4.72,41.61,41.61,0,0,1,37.4,2.31a29.59,29.59,0,0,1,20.7,8.47,22.67,22.67,0,0,1-13-7.13L59.94,11a123.38,123.38,0,0,1-13.45-6.6A28.1,28.1,0,0,1,61.32,12.1,85.46,85.46,0,0,1,49,4.39a30.59,30.59,0,0,1,12.13,6.4A159.33,159.33,0,0,0,42.66,1.88c9.21,2.86,19.68,6.88,22,15.09a16.72,16.72,0,0,1-9.3-7.67A27.71,27.71,0,0,1,67.63,26.21,16.74,16.74,0,0,1,63.09,15.5a19.1,19.1,0,0,1,5.6,13.56,30.93,30.93,0,0,1-4-12.77l4.77,13.57A155.08,155.08,0,0,1,59.33,12.41,45.44,45.44,0,0,1,70.42,30.63l-3.56-9.44A38.1,38.1,0,0,1,71,36.42L69.46,25.26A52.07,52.07,0,0,1,68.57,41a10.77,10.77,0,0,1,1.1-8.72L68.89,43.8a97.67,97.67,0,0,1-.06-18.6,43.11,43.11,0,0,1,.77,13.24L65.43,20.32a42.43,42.43,0,0,1,3.44,25.25,31.81,31.81,0,0,1,2-11.56,75.65,75.65,0,0,1-5.61,14.7,24.6,24.6,0,0,1,3.57-10.14,23,23,0,0,1-4.38,11.8A16.55,16.55,0,0,1,69.55,41a126.75,126.75,0,0,1-7,13.53,17.36,17.36,0,0,1,4.37-8.1,35.85,35.85,0,0,1-9.59,14.62,45.22,45.22,0,0,1,7.41-8.22L57.62,61l2.44-1.36a24.33,24.33,0,0,1-8.61,4.76l5.08-2.38-6.07,4.3a14.82,14.82,0,0,0,6.32-4.8L52,65l5.37-4.16-6.6,3a11.63,11.63,0,0,0,6.89-2.31,6.18,6.18,0,0,0-5.2,2.73c7.32-3.93,12.59-10.6,14.17-17.93a37.11,37.11,0,0,1-7.78,12.52c7-5.39,11-13.51,10.65-21.59a54.89,54.89,0,0,1-4.15,14,62.16,62.16,0,0,1,3.92-11.07,139.19,139.19,0,0,1-6,15.56L68,43.72l-.47,3.54c4.89-11.34,2.3-24.84-6.56-34.21,7.12,6.65,10.6,16.09,9.23,25.07S62.68,55.45,53.81,60.28a29.76,29.76,0,0,0,8.49-8.06,28.49,28.49,0,0,1-8.36,8.69l7.12-6-7.75,8.4,6.8-6.06-8.32,6L58.64,58l-7.21,6.25A22.45,22.45,0,0,0,64.49,51.82C62.91,58.5,55.83,63,49.28,66.76c7.6-4.85,14.28-11,18.19-18.45s4.85-16.22,1.36-23.81c-.89-1.93-3.23-4.08-5.24-3"/><path class="cls-1" d="M13.94,13.91A17,17,0,0,0,6.16,28.46c.79-5.69,2-12,7.39-15.38A22.61,22.61,0,0,0,6.31,33.41c.34-7.17,1-15,6.46-20.32A45.22,45.22,0,0,0,3.61,35.74C8.19,29.26,5.74,20.47,10,13.83L5.16,29.89c-.51,1.68-1,3.6.12,5.06,1.22-.68,1.37-2.15,1.39-3.4.11-5.44.48-11.09,3.45-15.88A129.59,129.59,0,0,0,4.61,34.43c-.29,1.34-.5,2.88.51,3.94C9.59,32,5,23.15,9.1,16.61,8.76,22.77,6.88,28.77,5,34.72l5.12-19.47A91.28,91.28,0,0,0,7.36,34.51q2.3-10.41,3.82-20.93C11.3,20.84,9,27.94,6.74,34.93Q9.28,26.56,11.9,18.2c.7-2.24,1.48-4.58,3.34-6.26a117.36,117.36,0,0,1-7.55,19.3l7.09-18.72L9.32,31.6A146.26,146.26,0,0,0,14.75,14Q12,21.24,10,28.63a103,103,0,0,0,5-15.26,99.38,99.38,0,0,1-2.85,13A100,100,0,0,0,16.4,13.47,83.79,83.79,0,0,1,14,24.83a72,72,0,0,0,1.91-9.53,20,20,0,0,1-2.92,7,29.62,29.62,0,0,0,1.44-10A67.71,67.71,0,0,0,7.33,26.14a71.07,71.07,0,0,0,5.12-13,51.63,51.63,0,0,0-5.59,7.42,19.08,19.08,0,0,1,8.52-10.13A13.65,13.65,0,0,1,10.15,16,20,20,0,0,1,21.86,6.34l-4.47.59A21.29,21.29,0,0,1,27,2.53c-4.11.09-7.85,1.95-11.38,3.76A37.76,37.76,0,0,1,33.87.5l-9.56,2A30,30,0,0,1,39.42,3,23.14,23.14,0,0,0,23.35,8,103.85,103.85,0,0,1,34,3.8L19.29,8.6a44.15,44.15,0,0,0,9.89-4.46A109.12,109.12,0,0,0,18.4,9.63a98.77,98.77,0,0,0,9.92-4.17A43.31,43.31,0,0,0,16,11.25l8.68-5a50.29,50.29,0,0,0-9.9,7l8.93-7.53-7.91,9.82,7.07-8.8-7.71,9.27,6.9-9.29a31.34,31.34,0,0,1-7.29,7.68,13.64,13.64,0,0,1,5.71-7.13,35.46,35.46,0,0,1-8.34,7.57,30.24,30.24,0,0,1,8.92-7.58,48.08,48.08,0,0,1-8.38,5.89,66.48,66.48,0,0,1,10.2-6.93,26.82,26.82,0,0,0-12.23,10,10.91,10.91,0,0,0,4.08-4.64,35.13,35.13,0,0,0-6.07,19,17.83,17.83,0,0,0,2.21-12.09A111.75,111.75,0,0,0,8.49,36.08a44.46,44.46,0,0,0,1.67-17.42A67.45,67.45,0,0,0,6.27,39.13L8.83,19.72C7.06,26.11,5.28,32.54,4.9,39.11A51,51,0,0,0,7.37,21.16a107.51,107.51,0,0,0-4.47,23A70.46,70.46,0,0,0,5.58,25.74c-.84,6.44-1.68,12.92-1,19.38a83.63,83.63,0,0,0,1.32-13.2l.67,13.61A16.25,16.25,0,0,0,6.2,34.35L5.39,44.2a22.2,22.2,0,0,0-.29-8.51,16.21,16.21,0,0,0,.69,7.66,7.25,7.25,0,0,0,.44-6.06A10.9,10.9,0,0,0,6,44.62,15.8,15.8,0,0,0,6.83,35,15.5,15.5,0,0,0,7,43.83a26,26,0,0,0,.32-10.94,38.26,38.26,0,0,0,.22,12,4.76,4.76,0,0,0,.21-5.39,7.54,7.54,0,0,0-1.46,6.06,6.74,6.74,0,0,1,5.93-.65,10,10,0,0,1-4.59-.49,46.61,46.61,0,0,1,8.11,3.09,14.64,14.64,0,0,1-4.88-3l6.94,5.63a21.56,21.56,0,0,0-4.1-4.39q3.61,2.91,7.54,5.5a11,11,0,0,0-3.79-3.79,25.4,25.4,0,0,0,5.78,6.41,11.17,11.17,0,0,0-5.65-6,7.84,7.84,0,0,0,5.84,5.61c.7-2-1-4.43-3.38-4.85A3.66,3.66,0,0,0,23,52a1.41,1.41,0,0,0,.82,0c.63-.24.54-1.06.2-1.57a4.61,4.61,0,0,0-4.25-1.81c-.15,2,2.36,3.76,4.59,3.24-.17-2.07-2.26-3.9-4.65-4.08-.5,2.12,2.15,4.28,4.57,3.72-.4-2.51-2.87-4.66-5.77-5a6.8,6.8,0,0,0,4.86,5.58A7.82,7.82,0,0,0,18.28,48a8,8,0,0,0,5,5.51,20.59,20.59,0,0,0-5.81-7.14,26.09,26.09,0,0,0,6.37,7.47,19.71,19.71,0,0,0-9.57-10.72A13.36,13.36,0,0,0,21,51.27a45.29,45.29,0,0,0-10.79-12,29.12,29.12,0,0,0,7.42,9.55,36.18,36.18,0,0,0-7.33-10.36,28.41,28.41,0,0,0,5.93,9.34,43.31,43.31,0,0,0-7-11.59l3,8.49a43.06,43.06,0,0,1-2.84-12,68.58,68.58,0,0,0-.2,11.79A12.74,12.74,0,0,0,7.5,33.94a9.25,9.25,0,0,0,1,9.33,22.15,22.15,0,0,0,.19-10.54,28.15,28.15,0,0,0,.74,9.73,24.6,24.6,0,0,0-.25-11.78A24.35,24.35,0,0,0,12,43.51a56.73,56.73,0,0,0-1.91-12.4,38,38,0,0,0,.72,13.31A29.18,29.18,0,0,0,10.72,29a35.92,35.92,0,0,0,0,11.57c0-6.89.14-14,3.31-20.32L10.8,36.59A108.12,108.12,0,0,0,13.06,22,111.55,111.55,0,0,0,11,33.46a41.23,41.23,0,0,0,3.24-12.78l-2.53,8a62.92,62.92,0,0,0,1.46-14.76C10,18.51,9.21,24,8.45,29.32a53,53,0,0,0,3.12-12.94A34.2,34.2,0,0,0,6.89,33.9a4,4,0,0,0,1,3.1,11.49,11.49,0,0,0-.4-5,103,103,0,0,0-.67,10.85A42.16,42.16,0,0,0,6.19,36a46.61,46.61,0,0,0,.34,9.53,10.8,10.8,0,0,0-.66-4.07,14.07,14.07,0,0,0,1.41,9.27,5.36,5.36,0,0,0-1.89-4.36,16.92,16.92,0,0,0,4.87,7.73L7.09,48.57A34.64,34.64,0,0,0,13.57,58L8.41,49.11a28,28,0,0,0,7.22,9.57A32.54,32.54,0,0,0,8.2,49.62a19.74,19.74,0,0,0,7.25,9.3,16.3,16.3,0,0,0-7-6.75,23.17,23.17,0,0,0,9.64,9.47,31.47,31.47,0,0,0-8.3-7.35A22.16,22.16,0,0,0,18.82,62l-9-7.71a19.67,19.67,0,0,0,11.65,8.84,29.93,29.93,0,0,0-9.74-8,31.74,31.74,0,0,0,9.86,8,29.94,29.94,0,0,0-7.74-6.87,14.51,14.51,0,0,0,6.62,5.61,11.52,11.52,0,0,0-5.31-5.33,20.36,20.36,0,0,0,6.94,5.33l-1.14-1.56a10.1,10.1,0,0,0,2.47,2,1.53,1.53,0,0,0-1.65-.73A2.47,2.47,0,0,0,22,63.87a1.25,1.25,0,0,0-.79-.54,1.33,1.33,0,0,0,1,1,28.65,28.65,0,0,1-11.2-10.17l2.36,3.53L9.1,51.27a12.65,12.65,0,0,0,1.85,6.08,6.07,6.07,0,0,0-2.65-5.57,6.88,6.88,0,0,0,2.06,4.44l-.87-1c-.64.52.14,1.59,1,1.5a1.58,1.58,0,0,0,1.35-1.72,4,4,0,0,0-1.12-2,5.31,5.31,0,0,1-1.29-2,14.39,14.39,0,0,1,5.26,5.68,16.13,16.13,0,0,1-2.47-4.08L14,57.26"/><path class="cls-1" d="M27.49,8.85a15.24,15.24,0,0,1-4.38.57,4,4,0,0,0,2.58,1.25,9.4,9.4,0,0,0-5.39-.4l5.1,3.16a6,6,0,0,1-4.2-3.18l5,5.09Q23.6,12.57,20.78,10l5.15,6.64a64.89,64.89,0,0,1-3.49-6.8A31,31,0,0,0,25.87,15a6.7,6.7,0,0,0-2.51-5.83,9.47,9.47,0,0,0,3,6.32,6.14,6.14,0,0,0-2.24-7.1A10.57,10.57,0,0,0,27.8,16a6.73,6.73,0,0,0-3.22-6.77,10.23,10.23,0,0,0,2.22,6.35A7.65,7.65,0,0,0,25,7.38a13.53,13.53,0,0,0,2.76,7.57,11.31,11.31,0,0,0,0-8.35,9.44,9.44,0,0,0,.58,8.48,9.1,9.1,0,0,0,0-8.85A15.12,15.12,0,0,0,28.47,15c2.37-2.55.76-6.92,3.56-9.12.62,1.38-.52,2.87-1.7,3.95s-2.55,2.28-2.47,3.76a30.55,30.55,0,0,1,11-4.47c-2.6,2.48-6.63,3.33-10.42,4q5.65-.34,11.33-.21a24,24,0,0,1-11.9,1.84A71.06,71.06,0,0,0,41.6,13.49,40.38,40.38,0,0,1,29.3,15l9.86-1.22-12.63,2.3a17.78,17.78,0,0,0,10.3-3.4,50.88,50.88,0,0,1-10.3,3L38,11.26,26.49,17.2a28.57,28.57,0,0,0,11.87-5.57L27,16.53a22,22,0,0,0,7.81-3.1,24.39,24.39,0,0,1-8.59,3.7,67.32,67.32,0,0,1,10.51-4.68,36.45,36.45,0,0,1-8.81,3.66,123.19,123.19,0,0,1,12.3-4.23,2.92,2.92,0,0,1-3.61,1.24L41.15,15a18.88,18.88,0,0,1-8-1,46.4,46.4,0,0,1,8.52,1.17,24,24,0,0,1-8.64-.72c2.77.06,5.54.24,8.29.56a17.37,17.37,0,0,1-5,.05,14.81,14.81,0,0,0,5.73,1,38.34,38.34,0,0,0-4.92-3.39L43.57,16a33.76,33.76,0,0,0-7-3.72,7.61,7.61,0,0,0,6.15,4.12,4.81,4.81,0,0,0-3.7-1.7,3.63,3.63,0,0,0,3.56,1.9,9.2,9.2,0,0,0-3.12-4.39,6,6,0,0,0,4,3.84A12,12,0,0,0,38,10.28a14.12,14.12,0,0,0,6.61,4.9,9.15,9.15,0,0,0-6.25-5.5,15.36,15.36,0,0,0,7,5.14,21.71,21.71,0,0,0-7.23-5.33,20.18,20.18,0,0,0,7.7,5.24,22.61,22.61,0,0,0-8.26-5.61,12.67,12.67,0,0,0,8.19,4.54,15.11,15.11,0,0,0-6.92-4.81,28.59,28.59,0,0,0,9.12,4.35L39.7,8.3a39.11,39.11,0,0,0,9.41,4.1L41,6.78q4.9,2,9.55,4.46a15.09,15.09,0,0,1-8.06-6.47,35.35,35.35,0,0,1,9.46,6,31.54,31.54,0,0,1-6.75-5.57,80,80,0,0,1,7.48,5.67,49.47,49.47,0,0,1-9-6.28,10.16,10.16,0,0,0,8,5.41,18.85,18.85,0,0,0-7.6-4.8,22.77,22.77,0,0,0,7.62,5.66,5.14,5.14,0,0,0-6.32.66,31.43,31.43,0,0,0,6.46-.13,64.6,64.6,0,0,1-9.64,2.52,50,50,0,0,0,8.42-1.74,22.44,22.44,0,0,0-7.72,3,23.7,23.7,0,0,0,6.68-4.36l-6.43,6.07A23.5,23.5,0,0,0,50,10.76l-4.73,4.78a19.76,19.76,0,0,1,4.64-4.9,31.46,31.46,0,0,1-4,3.34L51,10.19a83.36,83.36,0,0,1-7.18,5.28,41.85,41.85,0,0,0,7.93-4.85,87.59,87.59,0,0,0-8.49,6.09q4.57-2.88,9.37-5.47a63.9,63.9,0,0,1-7.67,4.25,16,16,0,0,0,6-3.25,58.94,58.94,0,0,0-8.85,5.65A20.27,20.27,0,0,0,52,11.14c-2.67,2.15-5.85,4.46-9.47,4.08A17.31,17.31,0,0,1,53.25,11.1a4.15,4.15,0,0,1-3.63.31,7.77,7.77,0,0,0,4.8,0,22.61,22.61,0,0,0-4.55.76,5.69,5.69,0,0,0,4.49-1.35A18.63,18.63,0,0,1,46.86,7l7,3.61A51.25,51.25,0,0,0,43.41,6.83,9.7,9.7,0,0,0,51.49,12a98.75,98.75,0,0,0-8.95-6.69l9.79,4.8a61.58,61.58,0,0,0-8.8-5,20.78,20.78,0,0,0,7.62,5.13,21,21,0,0,0-9.61-3.8c-1.1-.15-2.48-.09-3,.76A17.17,17.17,0,0,0,49.8,8.36l-12-1.43a21,21,0,0,0,9.56,1.2l-12.65-2a33,33,0,0,0,10.89.48,58,58,0,0,1-11.92.82,54,54,0,0,0,8.83-1.63,87,87,0,0,0-13.52,3A20.71,20.71,0,0,0,40.49,5.17Q34,6.35,27.66,7.88A43.53,43.53,0,0,0,40.28,4.15,73.4,73.4,0,0,1,26.89,7.29,44.52,44.52,0,0,0,38.14,4.61l-9.75,3,13-2.21a9.46,9.46,0,0,1-9.3.56c-.32-.55.52-1.05,1.2-1.22a23.8,23.8,0,0,1,9.91-.26,12.39,12.39,0,0,1-10.36.32A13.57,13.57,0,0,1,37.32,4a9.35,9.35,0,0,0-7.19,1.94A10.56,10.56,0,0,0,37,4.43,19.08,19.08,0,0,1,31,6.6,40.53,40.53,0,0,1,41.23,4.39a13.13,13.13,0,0,1-8.4,1.34,16.39,16.39,0,0,1,9.44-.55,40.22,40.22,0,0,1-8.52.32,37.16,37.16,0,0,1,11,1.17l-13.7,1.1a35.21,35.21,0,0,0,12.37.59A31.14,31.14,0,0,1,31,10l8.25-3.64a39.11,39.11,0,0,1-9.41,6.15A84.05,84.05,0,0,0,41.51,6.84l-11.58,5A42.45,42.45,0,0,0,40.8,6.31,129.32,129.32,0,0,0,28.4,14.17,71.93,71.93,0,0,0,40.64,7.63a49.87,49.87,0,0,1-11.16,7.29,83.55,83.55,0,0,1,10.94-3.84,31.8,31.8,0,0,1-10.26,5.38l9.23-3.59a19.4,19.4,0,0,1-8.91,3.52q4.06-2,8.27-3.76L27.59,16.33a30.37,30.37,0,0,0,7.65-5.74,55.91,55.91,0,0,0-9.41,5.12,31.2,31.2,0,0,0,8.62-5q-4.52,2.76-8.81,5.8a11.82,11.82,0,0,0,7.08-4.51,26.47,26.47,0,0,0-5.66,3.29,8.35,8.35,0,0,0-6-4.36,12.46,12.46,0,0,0,5.56,3.77,9.16,9.16,0,0,1-5.69-3.35l5.69,5.76-6.42-6.77a24.2,24.2,0,0,0,5.7,6.27l-3.27-5.48,1.63,4.36,3.86-8.81a46.82,46.82,0,0,0-6,4.33,28,28,0,0,1,6-4.72l-5.8,4.23L33,4.68a15.61,15.61,0,0,1-9.36,5.14A109.22,109.22,0,0,1,36.7,4.28,34.28,34.28,0,0,1,26.88,7.4,45.63,45.63,0,0,1,37.21,3.82a18.84,18.84,0,0,1-11,4.2L36.77,4.54,23.28,9.72c.11.63,1.13.67,1.85.54a63.93,63.93,0,0,0,12-3.52,31.25,31.25,0,0,1-12.29,4.73,106.21,106.21,0,0,0,12-4.25L26.78,11.9A40.22,40.22,0,0,0,37,6.28a50,50,0,0,0-9.15,7.18,60.66,60.66,0,0,0,10-7.4,59.68,59.68,0,0,1-10.6,7l10.4-5.48-10.44,6a35,35,0,0,0,9.65-4.69A67,67,0,0,0,26.24,15a30.88,30.88,0,0,0,9.14-7L24.3,12.73A75.09,75.09,0,0,1,34.64,6.31L23.87,12.45A49.46,49.46,0,0,0,33.39,7L24,12A34.17,34.17,0,0,0,35.07,5.93,123.57,123.57,0,0,1,23,11.53,67.77,67.77,0,0,0,32.4,5.65q-5.65,3.23-11.69,5.93a48,48,0,0,0,8.14-4.33q-4.62,1.77-9,3.93A18.16,18.16,0,0,0,27.76,5.9a11.1,11.1,0,0,0-6,4.54A136.32,136.32,0,0,0,34.86,5.68L25.21,13A39.94,39.94,0,0,0,36.88,7.27,35.52,35.52,0,0,0,30,11.75a83.67,83.67,0,0,0,10.74-.12,40.44,40.44,0,0,1-7.82.61l7.49.59a17.68,17.68,0,0,1-6.18,1.43l8.4.15-11.69.64,9.94-.51-8.93,1.58,9.6-1a13.65,13.65,0,0,1-4.1,1,7.35,7.35,0,0,0,5-1.43,13.61,13.61,0,0,0-7.64-3.29,3,3,0,0,0,2.32,2.48,3.62,3.62,0,0,0,3.5-1,15.15,15.15,0,0,0-7.49-1,22.6,22.6,0,0,0,7.06-.17L34.24,10a29.14,29.14,0,0,0,6.23,1.87l-4.88-1.16L39,12a20.52,20.52,0,0,1-5.84-1,12.94,12.94,0,0,1,5.84.2,10.66,10.66,0,0,1-5.08.45,30.18,30.18,0,0,1,8.9-.76,17,17,0,0,1-7,.19,17.53,17.53,0,0,1,8.3,1,13.36,13.36,0,0,1-8.41-4A12.46,12.46,0,0,1,43,12.55L37.62,8a17.16,17.16,0,0,0,6.87,4.44,6.4,6.4,0,0,0-3.25-4.78,10.24,10.24,0,0,0,5.34,4.53A16.79,16.79,0,0,0,40.94,8a11.28,11.28,0,0,0,5.69,3.34,15.63,15.63,0,0,0-6.46-2.79,28.2,28.2,0,0,0,6.71,4.1,24.84,24.84,0,0,1-7.06-2.94L46,13a11.93,11.93,0,0,0-6.64-2,15.89,15.89,0,0,0,4.39,4.93,11.87,11.87,0,0,0-5-6.61,11.13,11.13,0,0,0,5.76,5,6.22,6.22,0,0,0-5.25-3.54c.55,1.9,3.47,2.94,5.4,1.92a3,3,0,0,0,.51-5,7.44,7.44,0,0,0,3.17,2.89,25.71,25.71,0,0,0-6.14-2.93,8,8,0,0,0,6.12,2.45l.55-1.43A17.3,17.3,0,0,0,36.14,4.76a13.24,13.24,0,0,0,9,.43L35.76,4.1q3.81.58,7.68.85a20,20,0,0,1-4.74-.11A17.92,17.92,0,0,1,48.08,9.1a6,6,0,0,1-3.83-2.75,36.07,36.07,0,0,1,6.54,3.93,18.27,18.27,0,0,1-3.61-4.13l6.27,4.67a13.73,13.73,0,0,1-3.88-4,17.54,17.54,0,0,1,5.24,4.68,32.67,32.67,0,0,1-4.9-5.3,22.46,22.46,0,0,1,5.57,6.2,9.06,9.06,0,0,1-2.31-4.29A8.4,8.4,0,0,1,57,14.37l-2.77-3A20.35,20.35,0,0,0,58,16.82l-.73-3.14L58.23,20A37.82,37.82,0,0,1,58,14a55.91,55.91,0,0,0,.44,7.21,26.75,26.75,0,0,0-.17-7.17,58.74,58.74,0,0,0-.77,7l-.13-7.49a36.22,36.22,0,0,0,.18,7.49,20.3,20.3,0,0,0,.4-7.49,17.08,17.08,0,0,0-1,7.06,13.41,13.41,0,0,0,.49-5.9,17.26,17.26,0,0,0-.57,5.68,11.4,11.4,0,0,0-.55-6.84A10.53,10.53,0,0,0,57.11,19a11.52,11.52,0,0,0-1.27-8.33l2.07,8.06a8.67,8.67,0,0,0-4-4.57,14.61,14.61,0,0,1,3.19,5.57l-.42-4.14,1.67,6.13L58,18.09q1.7,3.73,3.19,7.53a62.32,62.32,0,0,0-1.77-9.32q2.38,6.05,4.26,12.24Q62.22,23.11,60.3,17.8a111.63,111.63,0,0,1,4.13,13L63.07,22l1.53,11L62.36,22.11l3.3,11.34-1.73-10a28.3,28.3,0,0,1,1.41,12.44A8.51,8.51,0,0,1,65.23,30a21.71,21.71,0,0,1-2.55,11.29,34.11,34.11,0,0,1,3.42-7.91A79.37,79.37,0,0,1,59,45.18a31.3,31.3,0,0,1,5.53-9.83A54.55,54.55,0,0,1,58.2,47.81a40,40,0,0,1,5.44-8.45,24.41,24.41,0,0,1-6.73,9.73,20.6,20.6,0,0,1,5.16-6.72,25.54,25.54,0,0,1-4.43,9.36,26.62,26.62,0,0,1,7-11.52,134.7,134.7,0,0,1-7,14.56,35.54,35.54,0,0,1,5.62-11,47.64,47.64,0,0,1-6.26,10.93,17.59,17.59,0,0,1,5.88-7.86,31.26,31.26,0,0,1-7.67,10.53A27.65,27.65,0,0,1,62.65,48,75.05,75.05,0,0,1,51.14,60.83a65.15,65.15,0,0,1,8-9.68q-4.63,5.78-8.92,11.77a88.56,88.56,0,0,1,6.15-8.5,94.56,94.56,0,0,1-6.76,9.51L54.2,59q-3.47,3.37-6.59,7a14.1,14.1,0,0,0,5.27-5l-4.65,6.1a30.82,30.82,0,0,1,3.89-5.62L48.59,65.7a12,12,0,0,1,2.34-5.65,56.36,56.36,0,0,1-3.79,6.75,10.65,10.65,0,0,0,2.36-7.36,16.84,16.84,0,0,0-1.95,7.73l1.91-8.7a59.56,59.56,0,0,0-2.08,8.15,41,41,0,0,0,1.07-10.28A23.2,23.2,0,0,0,47.33,65a30,30,0,0,0-.22-10.34,38.61,38.61,0,0,0,.56,9.59L46.11,52a61.26,61.26,0,0,1,2.74,8.62,26.86,26.86,0,0,0-1-8.18l1.65,7.73A18.52,18.52,0,0,0,47,52.67a21.09,21.09,0,0,0,1.32,9A73.6,73.6,0,0,0,48,51.68L48.79,61a25.57,25.57,0,0,0-1.53-9,23.69,23.69,0,0,0,.16,7.25,18.65,18.65,0,0,0,.42-8.68,15.51,15.51,0,0,0,.29,11.31,57.06,57.06,0,0,0,.31-10.14q-.37,5-.35,9.95a80,80,0,0,0,.33-10l-1,8.77Q48,55.69,49,50.94a95.74,95.74,0,0,1-1.68,9.47,43.39,43.39,0,0,1,3-11.57l-2,9.54q1.2-4.9,2.87-9.69l-2.7,9,3.18-8.34-3.23,8.84,3.83-10.58a91,91,0,0,0-3.81,12Q50.63,53,53.54,46.55q-2.2,6.74-4.86,13.36a76,76,0,0,1,5.4-13q-2.47,6.22-4.33,12.6l5.6-14.12A114.06,114.06,0,0,0,50,59.31q2.34-6.86,5.35-13.53l-4.8,13.13a91.3,91.3,0,0,1,6.79-14.25l-6.29,14a158.27,158.27,0,0,1,6.53-15.38L51.5,57a75.37,75.37,0,0,1,7.36-13.42,101.14,101.14,0,0,1-6.79,14.38,69.48,69.48,0,0,1,5.76-12.33L52.6,57.5a89.66,89.66,0,0,1,6.72-11.64L53.4,57.31a66.14,66.14,0,0,1,7.08-11.24A71,71,0,0,1,54.41,58a74.48,74.48,0,0,1,6.81-9.78,92,92,0,0,1-6.2,10,84.41,84.41,0,0,1,6.13-8.73L53.24,60.76a36.43,36.43,0,0,1,4.65-5.88,39.94,39.94,0,0,1-7,7.62C57.39,56.72,63.77,50,64.8,42l-4.25,10.5,4.39-10.15-3.4,10.7,4.27-10a47.59,47.59,0,0,0-3.2,8.16,51.16,51.16,0,0,0,4.75-11.12l-3.22,9.45a79.36,79.36,0,0,1,2.64-10.51l-1.5,7.67,1-8.6-2.15,9.09A67,67,0,0,0,67,35.1a25.17,25.17,0,0,0-.79,6.78,17.16,17.16,0,0,0,.35-10.79,7.62,7.62,0,0,0-.11,6.74,16.75,16.75,0,0,0-.32-8.7,36,36,0,0,0,.88,8.4,23.4,23.4,0,0,0-2.05-10.78l1.81,6.94A20.63,20.63,0,0,0,64.21,23a13.72,13.72,0,0,0,2.24,6.84,13.39,13.39,0,0,0-2.3-8A33.44,33.44,0,0,0,66.2,32.48a41,41,0,0,0-3.7-12.32A26.31,26.31,0,0,0,65.19,26a15.71,15.71,0,0,0-5.36-9.35,10,10,0,0,0,2.86,7.5,15.66,15.66,0,0,0-3.6-8.6A7.85,7.85,0,0,0,60.16,22a6.87,6.87,0,0,0-.74-5.4,9,9,0,0,0-1.13,6,6.23,6.23,0,0,0,.28-3,7,7,0,0,0-.69,4.64,5.42,5.42,0,0,0-.15-3.8,10.21,10.21,0,0,0,2.85,6.19,14.5,14.5,0,0,0-.65-5Q61.31,26,62.3,30.51L59.73,23a22.19,22.19,0,0,0,2.86,7.69,24.69,24.69,0,0,0-2.77-9.69L62,30.29A45.72,45.72,0,0,0,58,21.46a12.38,12.38,0,0,0,2.8,7.19,13.83,13.83,0,0,0-1.91-4.58,56.22,56.22,0,0,0,3.09,8.81l-.27-6.38a73.07,73.07,0,0,1,0,9.59,27.87,27.87,0,0,1,1.05-7.55A54.77,54.77,0,0,1,61,38.4l2.86-6.94L60.5,38.87l3.21-8.7L61.24,41l3.13-10A37.83,37.83,0,0,1,63.28,41.7l1.56-9.34a41.82,41.82,0,0,1-3.79,10,72.11,72.11,0,0,1,2.69-10.21L61,40.06a33.55,33.55,0,0,1,4.18-8.21l-.11,9.79a12.43,12.43,0,0,0,1.06-7.55,30.71,30.71,0,0,0-2.36,7.54A40.75,40.75,0,0,0,65,34.36a9.53,9.53,0,0,0,.21,5.46,12.5,12.5,0,0,0,1.16-9.21,2.13,2.13,0,0,0,.14,2.3,40.47,40.47,0,0,0-6-13.76,6.24,6.24,0,0,0,2.71,4.11,37.88,37.88,0,0,0-3-9.51A10.13,10.13,0,0,0,63,19.3a11.7,11.7,0,0,0-1.1-4.66l2.85,6.51L63.88,16l1.42,5.68L63.77,18.4l.48,1.67"/></g></g></g></svg>