<svg xmlns="http://www.w3.org/2000/svg" viewBox="0 0 63.65 56.94"><defs><style>.cls-1{fill:none;stroke:#000073;stroke-miterlimit:10;}</style></defs><title>Gmail</title><g id="Layer_2" data-name="Layer 2"><g id="Social_media_icons" data-name="Social media icons"><path id="Gmail" class="cls-1" d="M53.14,53.12a3.54,3.54,0,0,0,4-.9c-15,.17-30.18.33-45-2.21,4.31,1.44,9,1.54,13.53,1.62l35.47.62c-18.7-3.47-38.07,1.82-57-.24-.36,0-.78-.13-.9-.45s.14-4.92.44-4.59a16,16,0,0,1-.94-9.9,21,21,0,0,1,.33,10.62,47.12,47.12,0,0,1,.42-14.51l.7,12.2A187.55,187.55,0,0,1,2.43,20.21l.4,13.4a77.4,77.4,0,0,1-.59-18.34l1.37,23A89.49,89.49,0,0,1,3.39,14.2,56.43,56.43,0,0,1,7,33.1L6.63,14.35,7.71,35.09,6.54,17l0,10.35,0-11.47L6.48,24.3,6,11.66,5.92,26.33l-.52-12V25.8L5.45,11,4.33,24.83,4.2,9.93l.55,16.85L3.54,10l1.34,15L4.81,11.65A96,96,0,0,1,4.48,25.4,185.4,185.4,0,0,1,.8,5.32,53.24,53.24,0,0,1,22.09,22.86,61.69,61.69,0,0,1,9.41,8.62q10.53,9.17,20.28,19.14L12.21,11.69a53.92,53.92,0,0,1,17,18.07A149.77,149.77,0,0,1,7.93,10.58,144.17,144.17,0,0,1,25,28.32,187.48,187.48,0,0,1,5.39,8.68l20,15.7L11.62,13.62,24.81,23c2.43,1.72,5,3.48,7.91,4s6.45-.59,7.62-3.27l-4.11,2.37A170,170,0,0,1,53.52,11.68q-7,7.1-14.7,13.59,8-8.44,16.82-16.16a79.47,79.47,0,0,0-9.51,11.24A77.44,77.44,0,0,0,60.3,4.86a9.86,9.86,0,0,1,.44,4.29,3.52,3.52,0,0,0-1.17-2.71,47.83,47.83,0,0,1,.1,12.22l-.17-8.9a178.67,178.67,0,0,1,1,28.86l-1-20a174.06,174.06,0,0,1,1.06,24.07A85.13,85.13,0,0,1,59,28.42l2.46,22.95-1.18-5.43-.2,5.37A18,18,0,0,1,59,45.75l-.65,5.84a44.34,44.34,0,0,1,1-7.72l-.86,8.44a15.18,15.18,0,0,1-.58-10.73l-.12,7.23a48.45,48.45,0,0,1,.78-10.42l1.52,6.89a226.5,226.5,0,0,0,1.21-26l1.16,28.11a211.49,211.49,0,0,1-1.15-23l0,19.49,1-22.26q-.61,12-.26,23.93Q60.87,34,59.07,22.6l2.34,21.87a175.12,175.12,0,0,0-1.7-22.77l.34,26.18A168.93,168.93,0,0,1,59,23q-.69,11.75-.61,23.53l-.12-18.52a154.49,154.49,0,0,0-1.68,19.23l.7-24.76a131.88,131.88,0,0,1,.51,19.53V22.95l1.35,20.83,1.06-17.71a101,101,0,0,1-1.08,18.33L59,23.66,57.79,41.24l.13-19.49.43,17.8q1-9.92,1.12-19.89A170.19,170.19,0,0,0,59,39.17l0-21.95.33,17.61a99.51,99.51,0,0,1-.49-22.4,128.46,128.46,0,0,1,1.41,19.16A85.65,85.65,0,0,1,61.53,8.71l.39,14.57A75.48,75.48,0,0,1,62.34,11l.81,7.59a117.54,117.54,0,0,1-.78-12l-.44,4.68-.61-4.18-.06,7.22L59.77,6a19.65,19.65,0,0,1-.07,8.58,6.37,6.37,0,0,1-.47-6.18,14.7,14.7,0,0,1,2.12,9.12l-.06-9.8,1.31,9.16a70.39,70.39,0,0,0-1.83-9.54L58,23.8A68.69,68.69,0,0,1,60.17,9L58.31,25.56l.21-16.63A67.93,67.93,0,0,1,59,20.84l.1-14.75A23.24,23.24,0,0,1,60.6,18a34.84,34.84,0,0,1-.34-9.42,64.38,64.38,0,0,1,1.08,13.61V8.81l0,15,.1-11.46.51,8.88L61.43,8l-.08,9.74L60.22,7.48l1.14,12.19,0-12V19.44l0-8.62a54.51,54.51,0,0,0-.52,9.7,23.23,23.23,0,0,0-.62-11.2L60.15,21,59.53,8.51,60.35,26A88.22,88.22,0,0,0,60.1,9.3l.69,12-1.25-8-.07,12A112.3,112.3,0,0,1,59,9.47l.63,18.14,0-15.86,0,15.35q.74-9.75.56-19.53a94.4,94.4,0,0,0-2.33,19.14L57.17,9.18a68.61,68.61,0,0,1-.33,12.11,32.83,32.83,0,0,1-.16-10.55,32.14,32.14,0,0,1,1.7,12L60.22,9l-.66,8.84,0-12.41a4.15,4.15,0,0,0-1.09,2.95c.28.37.8-.41.42-.67s-.92,0-1.31.23A16.4,16.4,0,0,0,53.26,12a18.42,18.42,0,0,0,5.05-5.33,40.29,40.29,0,0,1-8,7.21l5.48-5.4L45,16.74l9.55-7.67A108,108,0,0,1,39.08,20.89Q46.52,14.43,54.4,8.47A178.44,178.44,0,0,1,30.47,25.79L49.11,14A77,77,0,0,1,31.7,25.37q8.59-6.09,17.64-11.54A68.18,68.18,0,0,1,30.28,26.26l22.25-13.6a75.63,75.63,0,0,1-15.64,11A87.5,87.5,0,0,1,53.56,11.08,94.31,94.31,0,0,1,34.73,24.75l15.7-11.53A81.16,81.16,0,0,1,31.32,26.55l18.3-13.66L32.3,25.82,50.77,13A171.16,171.16,0,0,1,31.46,26.43L50,12.53a76.59,76.59,0,0,1-18.07,14.6A179.8,179.8,0,0,0,50.35,14.63a198.29,198.29,0,0,1-17.6,12.59A169.4,169.4,0,0,0,53.62,12.75,222.44,222.44,0,0,1,31.53,32.4Q41.66,23.67,51,14.12A43.17,43.17,0,0,1,32.94,29.21,83.53,83.53,0,0,1,51.41,15.5,87.38,87.38,0,0,1,33.35,26.92,114.11,114.11,0,0,1,53.61,12.24,61.18,61.18,0,0,1,35.93,27.75,87.49,87.49,0,0,1,54.78,14,106,106,0,0,1,34.67,27.63,170,170,0,0,1,55.94,11.21L38,29,55.56,13A94.45,94.45,0,0,1,35.41,29.51L55.7,14.68A120.46,120.46,0,0,1,37.87,26.51,65.8,65.8,0,0,0,59.6,10.86,75,75,0,0,0,41.86,27.07L55,13,30.83,32.91a37.48,37.48,0,0,1,7.62-6.64,32,32,0,0,0-6.78,6.44,25,25,0,0,1,6.78-6.92,26.64,26.64,0,0,1-6.56,5.7,20.61,20.61,0,0,0,5.83-6.66l-8.26,6.73a25.8,25.8,0,0,1,7.2-6.6,18.32,18.32,0,0,1-8.93,5.58A56.58,56.58,0,0,1,39.8,23.14,21.42,21.42,0,0,0,32.24,29c.65-.41,1.62.48,1.23,1.13a27,27,0,0,1-8.5-7,7.92,7.92,0,0,1,3.62,5.11,21.19,21.19,0,0,1-6.25-8.43,78.55,78.55,0,0,1,10,6.93,51.62,51.62,0,0,1-9-5.37,48,48,0,0,1,6.41,5.48A63.72,63.72,0,0,1,12.83,12.23L32,23.86A98.49,98.49,0,0,1,8.08,7.36a191.1,191.1,0,0,0,22.65,18,31.81,31.81,0,0,1-10.45-8.7l10,7.1A27.11,27.11,0,0,1,15,11.93,51.56,51.56,0,0,1,26.79,23.78,129.51,129.51,0,0,1,7,6.33,92.2,92.2,0,0,0,27.2,24.63,56.24,56.24,0,0,1,2.8,3.52L19.33,20.08A52.12,52.12,0,0,1,1.87,8,121.4,121.4,0,0,0,16.24,19.6,22.58,22.58,0,0,1,4.62,8.46,69.34,69.34,0,0,0,25.55,22Q17.69,17.87,9.92,13.6c-2.51-1.38-5.28-3.13-5.73-5.89a69,69,0,0,0,17.23,9.66A118.68,118.68,0,0,1,3.1,6.94a48.5,48.5,0,0,0,9.82,7.76A23.47,23.47,0,0,1,1.83,7.33a18.11,18.11,0,0,1,7.36,5.52A6.6,6.6,0,0,1,4.24,6q7.16,4.76,14,9.91A33.06,33.06,0,0,1,7.6,7.76a94.43,94.43,0,0,0,15.2,13A67,67,0,0,1,5.21,4.69,190.48,190.48,0,0,0,25.73,24.84,74.21,74.21,0,0,1,9.18,11.63a162.83,162.83,0,0,0,20.45,15,48.87,48.87,0,0,1-18.74-16L28.19,28.5A105.8,105.8,0,0,1,13.82,14.23,51.38,51.38,0,0,1,29.13,30.28a59.19,59.19,0,0,1-11.33-9L27.09,30a84,84,0,0,1-12.18-9.15,38.33,38.33,0,0,1,11.15,8.44A145,145,0,0,1,8.52,15.51a49.71,49.71,0,0,0,18,10.88A55.79,55.79,0,0,1,7,11.12a48.64,48.64,0,0,0,18.64,12A220.45,220.45,0,0,1,4.84,12.24L20,20.69A85.71,85.71,0,0,1,4.8,10.48a86.37,86.37,0,0,0,11.84,9.69L4.12,9.4,10,14.65.8,9.35a14.11,14.11,0,0,1,5.27,8.88,9.22,9.22,0,0,1-3.48-10L4.25,21.86,2.38,14.55A21.15,21.15,0,0,1,3.76,28.39L3.57,14.63a85.73,85.73,0,0,1,1.3,18.16,83,83,0,0,1,.54-16.26Q6.94,32.21,7,48L6.53,25.82,7.16,44.4A212.1,212.1,0,0,1,4.79,21.94Q5.19,34,4.38,46.07A53,53,0,0,1,1.67,25.26a94,94,0,0,1,1.2,20,59.72,59.72,0,0,1-.76-17.2L4.39,47.71c.19,1.64,1,3.8,2.71,3.54a3.82,3.82,0,0,1-5.34-1.86l3.46-.12-2.1-.09c.21-1.3,2.35-1.41,3.21-.39s.8,2.48.7,3.79a48.94,48.94,0,0,1-.43-10.51L6.46,48a15.89,15.89,0,0,1-1.72-8.26,34,34,0,0,1,1.89,9.47,2.85,2.85,0,0,1-3-2.62,4,4,0,0,0,1.62,2.8c-1.4,1.24-4-.93-2.94-2.45A1.69,1.69,0,0,1,4.07,49a4.21,4.21,0,0,1-1.9-5.73,6.76,6.76,0,0,1,.72,5.32,8,8,0,0,1-.43-7.29,9.29,9.29,0,0,1,.82,6.38,8,8,0,0,1-.6-6.28A7.32,7.32,0,0,1,2.55,47a26.42,26.42,0,0,1-.42-10.31,7.86,7.86,0,0,1,.39,7.17L2.43,30.63A59.65,59.65,0,0,1,3.06,44l0-23.3.64,23.56q-.38-13.6.42-27.2A148.24,148.24,0,0,1,6.22,46.33a244.81,244.81,0,0,1,.42-27.6A211.32,211.32,0,0,0,7.2,44.33,139.51,139.51,0,0,1,6,18.43v22.4l0-21.3A187.39,187.39,0,0,0,6,41.1l-.64-22L6,41.91q.11-11.31-.59-22.62V40l0-20.39L6.32,44a178.47,178.47,0,0,1-.88-25.81L5.34,43.89a243.8,243.8,0,0,1-1.1-25q-.12,12.39.58,24.78a208.48,208.48,0,0,1-.58-23L5.46,46.12A213.13,213.13,0,0,1,3,17.76l.48,31.46A92.5,92.5,0,0,1,1.63,18.15l1.68,27a243.36,243.36,0,0,1-2.1-26A74.16,74.16,0,0,0,3.6,43.83,168.09,168.09,0,0,1,1.5,7.42l1,1.91c18.66,1.33,39.06-1.08,57.71-2.51L10.29,7.94l50.85-2q-27.8-.84-55.59.94C19.15,4.59,33,4.64,46.82,4.7l15.63.07H60.74"/></g></g></svg>