<svg xmlns="http://www.w3.org/2000/svg" viewBox="0 0 75.14 67.7"><defs><style>.cls-1{fill:none;stroke:#000073;stroke-miterlimit:10;stroke-width:2px;}</style></defs><title>Instagram</title><g id="Layer_2" data-name="Layer 2"><g id="Social_media_icons" data-name="Social media icons"><g id="Insta"><g id="Instagram"><path class="cls-1" d="M71.65,18.68c-.33-5.09-4.14-9.39-8.6-11.6s-9.54-2.7-14.49-3C35.87,3.2,23,3.19,10.58,5.91L43.22,3.43C48.88,3,54.74,2.6,60.06,4.62s10,7.19,9.56,13A14.14,14.14,0,0,0,66.69,6.76l1.5,8.65c-2-3.29-.61-8.56-3.78-10.68a7.33,7.33,0,0,0-3.27-.94,163.54,163.54,0,0,0-36.88-.26c-3.34.36-6.75.84-9.7,2.49S9.2,10.73,9.19,14.18c.42-6.82,8.34-11.91,14.49-9.32-3.24-.23-6.57-.46-9.68.52S8,8.82,7.47,12.11c-.74-2.8,1.22-5.75,3.74-7s5.46-1.33,8.29-1.34l33-.13c3.36,0,6.8,0,9.95,1.2s6,3.93,6.36,7.36L62.72,4.83A17.83,17.83,0,0,1,66.8,15.6c2.38-4.8-1.16-10.89-6-13s-10.31-1.49-15.5-.78L18.53,5.43l19.09-2.6-22.81,2,33-3c-12.2,3.92-26.57-.46-37.49,6.37L57,6.73c2.79-.09,5.81-.1,8.06,1.6,2.48,1.88,3.27,5.28,3.69,8.41A76.92,76.92,0,0,1,68.51,39,159.62,159.62,0,0,1,67.7,9.64a125.83,125.83,0,0,1-2.85,41.28L67.5,15c.93,8.09,1.87,16.26,1.07,24.37S65.09,55.67,59.65,61.6a47.21,47.21,0,0,1,9.79-9,17.17,17.17,0,0,1-13.91,9.91c6.08-.77,8.79-8.16,9.8-14.36a133.64,133.64,0,0,0,1.28-32.1c3.12,13.06,3.13,26.66,3.12,40.11a4.22,4.22,0,0,1-.51,2.46,3.92,3.92,0,0,1-2,1.23A98.55,98.55,0,0,1,19,65c-3.51-.51-7.14-1.27-9.93-3.51s-4.45-6.36-2.91-9.64a50,50,0,0,0,10.33,12.7C9.36,63,5.26,53.31,9,46.84a21,21,0,0,0,9.29,15.43c4.46,2.88,9.84,3.85,15.1,4.22a79,79,0,0,0,28.26-3.13C50.2,57,35.27,67.62,23.38,62.24a85,85,0,0,0,34.17-2.78C43,56.26,28,64.1,13.21,62.09a191.61,191.61,0,0,0,48.45,1C50.3,64.45,38.79,65.78,27.48,64c-5.58-.86-11.35-2.66-15.15-6.95C7.16,51.25,7,42.5,7.5,34.64A214,214,0,0,1,10.62,9.9L8.49,50.58A130.39,130.39,0,0,1,9.9,10.88C6.6,24.43,13.16,28.38,25,26a50.34,50.34,0,0,0-12.8-1.55A25.91,25.91,0,0,0,22.1,23.1l-11.79,2a11.46,11.46,0,0,0,9.13.89,53.22,53.22,0,0,1-10.26-.57A20.56,20.56,0,0,0,20.1,26.89a5.79,5.79,0,0,0,2.87-1,9.77,9.77,0,0,0,1.62-2,12,12,0,0,1,3.89-3.4c4-2.16,8.91-1.81,13,0S49,25.63,52,29.09c.38-2.88-1.83-5.58-4.45-6.67s-5.55-1-8.37-.8a32,32,0,0,0-8.7,1.29,11.14,11.14,0,0,0-6.66,5.56c2.18-5.83,9-8.18,15.07-8.64a20.26,20.26,0,0,1,8.77.89,9.83,9.83,0,0,1,6.1,6.18,18.89,18.89,0,0,0-15.22-9.16,18.8,18.8,0,0,0-15.84,8C25.91,21.84,31,20.06,36,19.88c6.73-.24,14.1,2.81,16.84,9.13A15.62,15.62,0,0,0,40,19a15.43,15.43,0,0,0-14.41,7.36,12.36,12.36,0,0,1,9.51-6.23,22.16,22.16,0,0,1,11.42,2.07c2.71,1.17,5.73,3.57,5,6.5Q60.35,27,69.21,26L53.94,27.12a19,19,0,0,0,10.38-.68A52.15,52.15,0,0,0,52,27a35,35,0,0,0,14.13-1.23L55.51,26a12.83,12.83,0,0,0,9.95-.16L56.54,26a22.53,22.53,0,0,0,9.75-.07l-10.42.85a39.22,39.22,0,0,0,10.58.83l-9.38-1.75A26.12,26.12,0,0,0,66,27.54a28,28,0,0,0-6.83-1.11,6.82,6.82,0,0,0,7.46.18l-16.24,3,16.33-3.49L57,28.39a15.52,15.52,0,0,0,9.56.06,27.65,27.65,0,0,0-9.3-.81,7.23,7.23,0,0,0,7.3-1.11L53,26.24C48.84,21.54,43.06,18.1,36.9,18S24.37,21.5,22.24,27.44c-.14-2.81,2.59-4.87,5.19-5.76,4-1.38,8.33-1.36,12.53-1a18.52,18.52,0,0,1,7.65,1.91,7.74,7.74,0,0,1,4.17,6.47c.48-2.55-2-4.58-4.33-5.65a32.86,32.86,0,0,0-12.26-3c3.62-.45,7.32-.9,10.89-.13s7.05,3,8.41,6.46a16,16,0,0,0-9.93-7.09,29.84,29.84,0,0,0-12.32-.15,16,16,0,0,0-7,2.5,7.08,7.08,0,0,0-3.06,6.56A55.6,55.6,0,0,1,11,28.07a14.56,14.56,0,0,0,8.43.09,57.67,57.67,0,0,1-10-.64,17.59,17.59,0,0,0,11.64-3.27,95.5,95.5,0,0,1-13.29.58A8.64,8.64,0,0,0,13,25.91a7.23,7.23,0,0,0-4.89.66"/><path class="cls-1" d="M25.06,34.16C24,40.45,29.62,46.84,35.83,46.77s11.61-6.14,11.52-12.52C49,39.48,45,45.74,39.7,46.26c-3.46.34-6.79-1.4-9.59-3.52C26.49,40,23.23,36.13,23,31.51c-.88,4.35,2.33,8.7,6.29,10.51s8.45,1.7,12.78,1.55a9.55,9.55,0,0,0,4.7-1,9.89,9.89,0,0,0,2.66-2.78c1.72-2.35,3.5-4.83,4-7.73a27.67,27.67,0,0,1-5.08,10.08,14,14,0,0,1-9.59,5.17,14.6,14.6,0,0,1-9.65-3.54,39.33,39.33,0,0,1-7-7.94c.64-.44,1.19.66,1.33,1.44.88,4.76,6.16,7.21,10.86,7.67a19.64,19.64,0,0,0,12.11-2.35,13,13,0,0,0,6.39-10.43,39.18,39.18,0,0,1-9.34,14,8.37,8.37,0,0,1-2.91,2,7.38,7.38,0,0,1-4.11,0C28.33,46.25,22,38.41,21.6,29.91c-.35,8,5.15,16,12.66,18.26a11.26,11.26,0,0,0,5.15.47A11.74,11.74,0,0,0,45,45.73a18.2,18.2,0,0,0,6.16-15.58,27.77,27.77,0,0,1-3.38,11.74c-1.68,3-4.25,5.94-7.63,6.41a11.08,11.08,0,0,1-6.6-1.62,28.35,28.35,0,0,1-11.2-11c3.66,5.84,9.16,10.95,15.85,12s14.33-3.3,15.36-10.16c-.33,4.73-4.07,8.75-8.47,10.19s-9.26.64-13.5-1.25a16.54,16.54,0,0,1-6.79-5.13A9.5,9.5,0,0,1,23.19,33c1.37,7,7.51,12.79,14.42,13.13s13.77-5.25,14.55-12.31a21.47,21.47,0,0,1-4.25,9.75,11.61,11.61,0,0,1-4.36,3.64,10.72,10.72,0,0,1-6.42.42A18,18,0,0,1,23.58,33.52"/></g><path class="cls-1" d="M10.35,9.67C9.87,8.38,7.89,8.4,7,9.42a6.18,6.18,0,0,0-1.14,3.9A136.14,136.14,0,0,0,9.77,54.13C6.29,39.58,9.17,24.32,12,9.64a90,90,0,0,0-3.64,46C6.83,40.51,5.28,25,9.23,10.34a157.66,157.66,0,0,0-2,42.83C5.83,38.79,4.45,24.11,7.54,10,5,26.36,2.71,43.94,9.89,58.74a48.17,48.17,0,0,1-2-12.59c-3.18,5.14-.51,12.42,4.32,16s11.08,4.19,17,4.25a111.64,111.64,0,0,0,21.8-1.93c5.63-1.06,12-3.31,13.87-8.87,1.5-4.51-.6-9.83,1.48-14.1A69.66,69.66,0,0,1,65.2,61.69,106.12,106.12,0,0,0,67.46,39a151.73,151.73,0,0,1-.53,20.87,79.58,79.58,0,0,1,.69-21.45c.47,4.69.94,9.52-.39,14s-4.92,8.66-9.49,9.06c4.06-1.2,7-5,8.48-9S67.84,44,68,39.68l.61-16.87c.22-6,0-13-4.8-16.44-3.46-2.51-8.09-2.14-12.31-1.79A205.8,205.8,0,0,1,12.34,4c17-3.07,34.34-.13,51.33,2.8Q38.8,4.92,13.85,4.56c-1.65,0-3.42,0-4.79.94-2.92,2-2.16,6.58-1.06,10-1.32-2.28-.32-5.38,1.61-7.14s4.53-2.48,7.05-3A124.47,124.47,0,0,1,52.79,3c3.12.22,6.36.58,9,2.31S66.2,10.54,65,13.52"/><path class="cls-1" d="M64.58,30.13l-5.68.15a11.16,11.16,0,0,1,5-.65,29.12,29.12,0,0,1-10,.88,31.8,31.8,0,0,0,10.2-1.3A32.47,32.47,0,0,1,57,28.56a28,28,0,0,0,8.5,2.56l-7.6-.58A29.64,29.64,0,0,1,65.49,30L52.39,32a24.69,24.69,0,0,0,10.67-2.37A18.16,18.16,0,0,1,54.27,31l4.91-.11c-2.87-.23-6.07-1.27-8.18.56s-3,8.31-3.74,10.87a23.39,23.39,0,0,0,4.8-15.15,27,27,0,0,1-3.67,12.53,15.92,15.92,0,0,1-10.21,7.44,14,14,0,0,1-12.92-4.81,16.67,16.67,0,0,1-3.39-13.82,73.1,73.1,0,0,1,2.3,10.76c-1.1-.26-1.38-1.71-1.43-2.87q-.23-5.62-.12-11.25a132.13,132.13,0,0,1,.49,16.64,53.18,53.18,0,0,1,.35-17.42"/><path class="cls-1" d="M10,29.59c-.39.05-.42.7-.11.95a1.49,1.49,0,0,0,1.14.15l12.41-1.77L9.66,31A25.55,25.55,0,0,0,18,30.1L11.38,30a26.19,26.19,0,0,0,5.34-1L9.18,29a14.92,14.92,0,0,0,7.56,0l-7.12.07a15.28,15.28,0,0,0,8,.52l-9,2.57A14.31,14.31,0,0,0,16,32l-5.82.66,10.31-1.4a15.6,15.6,0,0,0-11,1,40.92,40.92,0,0,0,9.7-1.83L15,30.44l2.81-.94"/><path class="cls-1" d="M55.41,30.52a5.44,5.44,0,0,1-1.74,2.55l10.84-.2a44.08,44.08,0,0,0-9.93-.27L64.19,31l-5.68.53A20,20,0,0,1,64.15,31l-2.91,0a9.06,9.06,0,0,0,5-.55"/></g></g></g></svg>