<svg xmlns="http://www.w3.org/2000/svg" viewBox="0 0 620.75 48.42"><defs><style>.cls-1{fill:none;stroke:#000073;stroke-miterlimit:10;stroke-width:2px;}</style></defs><title>Jill of All Trades</title><g id="Layer_2" data-name="Layer 2"><g id="Logo_Elements" data-name="Logo Elements"><g id="Jill_of_all_Trades" data-name="Jill of all Trades"><path class="cls-1" d="M35.72,6.13c2.23,11.23,3.49,23.25-3.16,33.44-2.25,3.46-5.81,6.81-10.8,7.65a17,17,0,0,1-14.48-5C4,38.76,2.64,34.52,1.35,30.39a12.76,12.76,0,0,1,6.91,1.66"/><path class="cls-1" d="M59,20.52a42.69,42.69,0,0,0-6.57,25.75l0-5.94"/><path class="cls-1" d="M71.46,26.72A38.14,38.14,0,0,0,64,46.55L95.12,36.18c1.21-.4,2.49-1.22,3.68-.77s-1,1.92-.87.93"/><path class="cls-1" d="M108.12,23a62.42,62.42,0,0,0-3.7,20.22,2.4,2.4,0,0,0,1.1,2.45,4.83,4.83,0,0,0,3.38-.18l27-8.42"/><path class="cls-1" d="M189.43,20.2a2,2,0,0,0,1.25-2.82c-7.63-1.85-14.63,4.09-17.42,9.75-1.86,3.78-2.64,8.62,1.32,11.33,5.15,3.51,13.54.43,18-3.6,2.22-2,4.12-4.37,4.56-7,1.07-6.23-8.44-12-16.3-9.86"/><path class="cls-1" d="M314.21,37.47a2,2,0,0,1-.32,3.89c-7.1-9.07-11-19.48-11.35-30a172.38,172.38,0,0,0-16.91,27.37c-.29.6-.56,1.32,0,1.82s2,0,1.54-.5c11-4.66,28.47-19.36,39.42-24a61.56,61.56,0,0,0-6.29,24.64A116.14,116.14,0,0,1,351,33.14a4.22,4.22,0,0,0,2.57-.83c.55-.59-.16-1.67-1.06-1.41"/><path class="cls-1" d="M362.84,14.88l-7.55,25.28A200.35,200.35,0,0,1,390,29.55l-3.18.11"/><path class="cls-1" d="M438.26,8c-.18,12.75-.06,19.46,0,32.2"/><path class="cls-1" d="M413.54,10.69A306.64,306.64,0,0,0,468.82,1"/><path class="cls-1" d="M456.05,25.19,456,38.06c0-5.25.78-10.75,4.65-15.12s11.55-7.18,18-5.26c-3,4.88-9,8.66-15.92,10a194.16,194.16,0,0,0,22.11,8.14"/><path class="cls-1" d="M587.25,8.44a117.3,117.3,0,0,1-26.13,5.84,53.94,53.94,0,0,0,1,21.4,205.32,205.32,0,0,1,23.23-6.56"/><path class="cls-1" d="M493.19,28.82c4.81-.57,10-1,15.47-1.38"/><path class="cls-1" d="M560.34,24.7l15.94-6.43"/><path class="cls-1" d="M212.45,37.1l-.06,1.5a149.57,149.57,0,0,0-.68-23.06c9.55.26,15.6-5.18,25.15-5l-2.67.56"/><path class="cls-1" d="M233.86,23.77a48.5,48.5,0,0,1-15.5,4.57c-.46.06-1.05.06-1.25-.26s.76-.53.64-.19"/><path class="cls-1" d="M491.84,38.88l3.8-25a175.94,175.94,0,0,0,21.63,22.28,2.94,2.94,0,0,0-2.33-2.75"/><path class="cls-1" d="M530.84,29.27l-.59,2.07L528.1,13.6c-1.35.24-9.19,1.07-7.82,1.23,4.49.54,9-.25,13.52-.83s9.25-.95,13.44.37,7.49,4.85,6.19,8.13c-.78,2-3,3.43-5.15,4.68a88.27,88.27,0,0,1-20.13,8.36L530,34.49"/><path class="cls-1" d="M619.78,10.69c-.67-2.49-5.06-3.1-8.38-2.69a31.11,31.11,0,0,0-14.09,5.26c-1.51,1.07-2.94,2.53-2.51,4.06s2.4,2.37,4.34,2.61a43.17,43.17,0,0,0,5.89-.08,22.9,22.9,0,0,1,9.24,1.74c2.07.88,4.08,2.33,4,4.13-.08,2-2.62,3.38-5,4.22A45,45,0,0,1,588.06,31"/></g></g></g></svg>