<svg xmlns="http://www.w3.org/2000/svg" viewBox="0 0 65.37 66.02"><defs><style>.cls-1{fill:none;stroke:#000073;stroke-miterlimit:10;}</style></defs><title>LinkedIn</title><g id="Layer_2" data-name="Layer 2"><g id="Social_media_icons" data-name="Social media icons"><g id="Linked_In" data-name="Linked In"><g id="Linked_In-2" data-name="Linked In"><path class="cls-1" d="M17,5.82c-1.35-4.1-7.1-6-10.71-3.6a7.26,7.26,0,0,0-.49,11.16,5.24,5.24,0,0,0,4.48,1.17,5.68,5.68,0,0,0,3.13-2.46,7.38,7.38,0,0,0,.91-6.9,5.3,5.3,0,0,0-5.95-3.1C5.21,3,4.06,6.73,3.8,9.94c-.15,1.88,0,4.06,1.47,5.23,1.3,1,3.18.85,4.73.31,2.79-1,5.33-3.35,5.38-6.27S12,3.6,9.43,5.05,7.2,10.23,8.6,12.74A5.2,5.2,0,0,0,10,14.45,4.35,4.35,0,0,0,15.06,14a11.16,11.16,0,0,0,3-4.48c.57-1.29,1.06-2.91.17-4a3.86,3.86,0,0,0-2.72-1.07c-3-.28-6.33.05-8.36,2.22s-1.4,6.57,1.54,7.12a5.8,5.8,0,0,0,4.14-1.27A8.31,8.31,0,0,0,16,9.06a3.82,3.82,0,0,0-.87-4.39,5.26,5.26,0,0,0-2.46-.91A8.16,8.16,0,0,0,8.24,4,5.3,5.3,0,0,0,6,11.5,5.83,5.83,0,0,0,13.89,13a6.08,6.08,0,0,0,1.6-7.9C14,2.68,10.62,1.54,8.22,3S5.48,8.42,7.84,9.92s5.93-.34,7.2-3c.79-1.63,1-3.72-.15-5.14C13.49,0,10.47.14,8.79,1.68A6.74,6.74,0,0,0,7.12,8a4.75,4.75,0,0,0,2,3.29c2.47,1.42,5.59-1.12,6.26-3.87.62-2.52-.71-5.93-3.34-5.87A3.76,3.76,0,0,0,8.78,4.36a8.42,8.42,0,0,0,.29,4.56A3.77,3.77,0,0,0,10.27,11c1.14.84,2.8.29,3.94-.56A6.11,6.11,0,0,0,16.93,5.1C16.68,3,14.48,1.2,12.45,1.82A3.94,3.94,0,0,0,10.69,3a5.42,5.42,0,0,0,.44,7.44,5.19,5.19,0,0,0,7.36-.91,4.73,4.73,0,0,0-2.27-6.82,4.62,4.62,0,0,0-5.39,2.16,4.5,4.5,0,0,0,1.39,5.58,3.23,3.23,0,0,0,1.48.6,3.59,3.59,0,0,0,3.26-2,5.46,5.46,0,0,0-.47-6.13,5,5,0,0,0-6-1.12C8,3.23,7.5,6.57,7.83,9.39c.16,1.36.66,2.95,2,3.31a2.92,2.92,0,0,0,1.68-.13A5.36,5.36,0,0,0,15,6.25,4.72,4.72,0,0,0,8.54,3.52c-2.15,1.2-2.79,4-2.82,6.4,0,1.71.4,3.78,2,4.38,1.39.52,2.9-.35,4.08-1.23,2-1.51,4-4.37,2.31-6.22a3.53,3.53,0,0,0-2.11-1A6.41,6.41,0,0,0,5,12.13a3.18,3.18,0,0,0,1.34,2.68c2,1.16,4.15-1.22,5.06-3.31.74-1.69,1.22-4-.28-5.09a2.75,2.75,0,0,0-3.8,1.08,4.26,4.26,0,0,0,.39,4.21"/><path class="cls-1" d="M4.37,26a2.7,2.7,0,0,0-.54-2.48A130.19,130.19,0,0,0,3.6,51.79a257.06,257.06,0,0,0,.81-27.88q.83,15.16,2.75,30.23l.1-22.61a160.9,160.9,0,0,0-.44,25.89A125.34,125.34,0,0,0,8.6,31.27a79.26,79.26,0,0,0,2.27,21.28,179.74,179.74,0,0,0,3.3-24.07l0,22.18a146.55,146.55,0,0,0-.49-19.84,52.25,52.25,0,0,0-.11,20.73,208.23,208.23,0,0,0,.58-25.91,247.4,247.4,0,0,0,.79,25.83,133.51,133.51,0,0,0,1.28-27.8,108,108,0,0,0,.74,30.68,85.45,85.45,0,0,0-.81-28.82l-.77,26.09A139.36,139.36,0,0,0,15.77,24a88.71,88.71,0,0,0-.49,31.26c2.93-10.14,1.57-21,.2-31.41q-.24,12.9.55,25.78a135.51,135.51,0,0,0,1.58-30Q18,34.41,16.9,49.2a224.15,224.15,0,0,0,.76-27.7A103,103,0,0,1,14.1,44.06a168.33,168.33,0,0,0-.63-21.49A115,115,0,0,0,12.19,41.5a34.48,34.48,0,0,0,.88-19.63,114.34,114.34,0,0,0,.75,27.69,60.56,60.56,0,0,0,.44-28.91q.45,13.85,2.15,27.62a40,40,0,0,0,.49-27.8l0,17.27a84.55,84.55,0,0,0-.66-17.24,36.42,36.42,0,0,0-2.55,15.17,39.1,39.1,0,0,0-.09-13.83A154.81,154.81,0,0,0,12.83,46a131,131,0,0,0,1.33-24.75A114,114,0,0,0,14.48,52a60.22,60.22,0,0,0,.74-27.06,134,134,0,0,0,.36,26.5,105.92,105.92,0,0,0,.67-18.33,178.37,178.37,0,0,0,.68,23.39,39.56,39.56,0,0,0,2-15.27,28.24,28.24,0,0,0-2.38,12.26,47.49,47.49,0,0,0,.41-9.93A26.92,26.92,0,0,0,18.37,56,52.11,52.11,0,0,0,14.7,38.53l.18,16.85A54.07,54.07,0,0,0,11.37,33.1q.93,11.22,2.5,22.37a55.16,55.16,0,0,0-3-26.26,136.51,136.51,0,0,0,1.35,28.4A63.11,63.11,0,0,0,11,32.06a83.81,83.81,0,0,0,1.61,24.5,41.65,41.65,0,0,0,2.2-17.29l1.63,15.38a43.82,43.82,0,0,0,.5-10.19V56.94a35.5,35.5,0,0,0-1.4-13.58A25,25,0,0,0,17,54.18l0-11.49,0,12.89a22.6,22.6,0,0,0-3.49-15.31A22.37,22.37,0,0,0,10.66,55.4c1-9,1.93-18.64-2.36-26.65a174.12,174.12,0,0,0,1.13,24.7,61.33,61.33,0,0,0-.75-22.56L7.08,56.48a63.72,63.72,0,0,0,.17-20A82.22,82.22,0,0,0,5.8,55.62,155.12,155.12,0,0,0,6.93,37.49,80.7,80.7,0,0,0,5,58.53a46.91,46.91,0,0,0,.87-18.08A60,60,0,0,0,4.37,57a46.64,46.64,0,0,0,1-17.81,50,50,0,0,0-1.56,17A36.21,36.21,0,0,0,4.67,41a118.27,118.27,0,0,0-.05,16.36A129.4,129.4,0,0,0,6.84,40.95,72.28,72.28,0,0,0,9.29,55.63a25.55,25.55,0,0,0,2.08-14.56,54.44,54.44,0,0,0,.93,15.58A55,55,0,0,0,9.48,29.33a166.44,166.44,0,0,0,.19,22A64.64,64.64,0,0,0,7.46,24,114.34,114.34,0,0,0,8.3,46.55,69.14,69.14,0,0,0,6.62,21.22q-.09,12.08,1,24.14a44.94,44.94,0,0,0-.87-23.14,84.31,84.31,0,0,0,0,24.72A65.5,65.5,0,0,0,7.22,18.8,125.3,125.3,0,0,1,8.54,37.68L10,21.05l.17,17.32a61,61,0,0,0,1.31-15.63l-.63,15a36.32,36.32,0,0,0,2.68-16.47,40.43,40.43,0,0,0,.71,12.28,15.91,15.91,0,0,0,.5-12.71A22.63,22.63,0,0,0,15,32.72a15.82,15.82,0,0,0,.11-8.81c-.48-1.74-2.46-3.69-3.78-2.45a2.74,2.74,0,0,0-.63,1.85,29.29,29.29,0,0,0,.44,7.57,20.82,20.82,0,0,0-.41-13.57A50,50,0,0,0,10,30.45a11.14,11.14,0,0,0-2.07-9.3A46.42,46.42,0,0,0,7.16,33.4,52.18,52.18,0,0,0,7.32,20.6a69.58,69.58,0,0,0-.86,15.85,26.16,26.16,0,0,0-1.06-16A50.07,50.07,0,0,0,6,35.56,30.3,30.3,0,0,0,4.78,18.08,128.13,128.13,0,0,0,6,37.68L4.83,21.22A19.48,19.48,0,0,0,6.92,35.38,37.82,37.82,0,0,1,10,22.25c.74,1.34,1.66,2.81,3.17,3.11s3.13-1.75,2-2.73a2.62,2.62,0,0,0-1.42-.45q-2.1-.23-4.22-.3a6.67,6.67,0,0,0,5.4-1,275.25,275.25,0,0,1-.8,28.73l.06-26.91,2.25,21.15a67.63,67.63,0,0,0,.49-23.38L19.13,49l-.76-25.28q.08,10-.76,20Q18,32.16,19.06,20.64A69.93,69.93,0,0,1,18.1,33a64.36,64.36,0,0,1-.44-12.52A43.76,43.76,0,0,1,16.2,34.79l.05-10.14,0,21.75a62.52,62.52,0,0,0,.16-16,133.31,133.31,0,0,0,.54,21.24,34,34,0,0,0,.07-14L15.76,54.18a36.5,36.5,0,0,0-3.48-12.4,63.76,63.76,0,0,0-1.46,15.45,23.75,23.75,0,0,0,.05-10.67A36.48,36.48,0,0,0,10.11,59a25.49,25.49,0,0,0,0-11.3,58.92,58.92,0,0,0-1.57,9.72L8.63,50a27.05,27.05,0,0,0-.76,7.47l.82-8.77L7.1,57a63.36,63.36,0,0,1,2.16-9.78,20,20,0,0,0-.1,8.69l3.09-9.06a22.53,22.53,0,0,0,1.13,12l1.54-10.22v7.1a22,22,0,0,0,2-11L17,55.49a23,23,0,0,0,.58-8.12v1.42a29,29,0,0,0,.72,8.75,16.06,16.06,0,0,0-1.48-8.91l.06,9V55.43a27.25,27.25,0,0,0-.52-7.17l-.51,8.25A27.37,27.37,0,0,0,10.07,43.4,99.36,99.36,0,0,0,8.76,56.82l-.19-8.64a42.83,42.83,0,0,1-1.19,8.64l-.32-7.9a35,35,0,0,0-1.31,7.17l.1-6.74-1.5,5.52.05-3.19,0,4.52.76-6.56a21.53,21.53,0,0,1-.67,6.28L7.17,44,5.69,53.19a149,149,0,0,0,2.9-23.72L9.51,41A25,25,0,0,0,9.33,25.6a102.42,102.42,0,0,1,1.5,13.18,86.54,86.54,0,0,0,.23-17.54l4,19.22a57.44,57.44,0,0,0-.27-18.15l.64,15c0,.34,0,.77-.33.91s-.63-.48-.28-.5"/><path class="cls-1" d="M25.49,23.24l-.9-3.16a114.4,114.4,0,0,0,1.22,21.37L24.61,23l.76,25.8q-.45-15.14.42-30.28L25.2,50.57q1.73-15.7,1.92-31.52a230.73,230.73,0,0,0,.06,32.82A206.24,206.24,0,0,0,28,21.25L28.21,50a258.44,258.44,0,0,0,1.3-29.64l1.83,31.19a123.76,123.76,0,0,0,.41-28.64,201.11,201.11,0,0,0,.76,22.4,120.12,120.12,0,0,0,1.12-21.86,149.82,149.82,0,0,1-.74,19,111.6,111.6,0,0,0,.75-19.62V36.18a82.59,82.59,0,0,0-.73-16.86V31.41a30.78,30.78,0,0,0-.75-10.89A83.24,83.24,0,0,0,31.59,37a121.13,121.13,0,0,0,.67-16.87A50.74,50.74,0,0,0,33.19,31a34.21,34.21,0,0,0,1.14-11.69l0,12.64-.21-9.52a33.87,33.87,0,0,0-.58,8.85,17.11,17.11,0,0,0-1.52-11,23.29,23.29,0,0,0-1.59,14.07A19,19,0,0,0,28.83,20l-1.55,20.3a33.46,33.46,0,0,0-1.92-20.07L26,44.41a115.14,115.14,0,0,0,0-23.54l.76,28.56.52-22.52a141.94,141.94,0,0,0-.6,21.69l-.06-17.82A141.72,141.72,0,0,0,26,52.65l0-18.2a104,104,0,0,1-.67,18.38q-.05-8.3.7-16.59v20.6L26.72,42a47.69,47.69,0,0,0,.66,12.86V39.95l0,15A104,104,0,0,0,27,40.42,42.51,42.51,0,0,0,26,54.7l-.18-14A37.28,37.28,0,0,0,26,55.59,64.33,64.33,0,0,0,27.42,42.5a36.39,36.39,0,0,0,.85,12,42.42,42.42,0,0,0,1.19-13.33A40.89,40.89,0,0,0,30.9,54.11l0-12.87a85.51,85.51,0,0,0,.71,15.1l.66-20.06a219.3,219.3,0,0,0,1.21,22q.86-11.62.91-23.29l-.06,18.41a81,81,0,0,0-.19-21.22L30.77,56.22l.78-18.05c.12-2.75,0-6-2.41-7.47a109,109,0,0,0-2.5,19.78,217.58,217.58,0,0,0-.5-25.58l-.17,25,0-22.68V53.57l0-19.32q-.63,9.94-2.16,19.81l.77-20.63a152.75,152.75,0,0,0-1.77,21.36l.84-13,.41,14.55,1.18-11-.72,11.88A32.12,32.12,0,0,0,26,48.83L26,59a44.3,44.3,0,0,1,1.44-10.22l0,10.33.55-8.77a12.53,12.53,0,0,0-1.17,7.71l-.23-6.39A10.41,10.41,0,0,0,26,56.92l.76-6.72L26,58.83V50.26a42.81,42.81,0,0,0-.73,10.18L26,52.35a19.09,19.09,0,0,0-.72,7.71l1.5-9.23a21.17,21.17,0,0,0,.34,7.62l1-6.8a29.2,29.2,0,0,0,.36,8.29,40.34,40.34,0,0,0,.23-8.34l.19,8.91a24.74,24.74,0,0,0,1.24-9.6,26.2,26.2,0,0,0,.45,7.27l.94-8.12a11.71,11.71,0,0,0,1.3,6.41L33,47.64a43.07,43.07,0,0,0,.47,11.3l.21-10.71a23.34,23.34,0,0,0,.59,7.93,22.93,22.93,0,0,0-.85-10.32l-1.24,13a12.12,12.12,0,0,0-4-7.29,12.13,12.13,0,0,0-2.27,6,9.87,9.87,0,0,0-.61-4.69l-.09,9.58v-8.3l0,7.53a26.11,26.11,0,0,1,2.1-6.19A8.14,8.14,0,0,1,29.7,59l1.21-5.36a8.71,8.71,0,0,0,1.19,4.82L33,52.35a16.82,16.82,0,0,0,1.26,5.19,14.85,14.85,0,0,0,.29-5.71,5.14,5.14,0,0,0-3.61-4.1l-.08,12.41a12.23,12.23,0,0,0-1.88-9.54A20.65,20.65,0,0,0,26.7,59a8.17,8.17,0,0,0-.61-4.49L26,61.44l-.15-5.69-1.23,4.44A33.61,33.61,0,0,0,25,53.56L24.11,59a23.9,23.9,0,0,1,.54-6.5A18.39,18.39,0,0,0,25,58.88l1.62-5.52a6.09,6.09,0,0,1,3.54,4.83c-.66-1.81.84-4.18,2.79-4s2.68,3.4.88,4.14a2.25,2.25,0,0,1,2.86-1.7l-8.76,3a2.82,2.82,0,0,0,4.45.37,2,2,0,0,0-2.09-.15c.33,1.16,2.08,0,2.43-1.15a20.71,20.71,0,0,0-1.37-15.2,19.29,19.29,0,0,0,1.39,8.77l.5-19.77.68,21.71c0-5.61,0-11.29,1.29-16.74s4.15-10.76,8.78-14a4.07,4.07,0,0,1,2.44-.93,4,4,0,0,1,2.31,1.15c3.94,3.39,6.06,8.47,6.82,13.57s.29,10.3-.18,15.44L50.66,30.64c-.62,2.34.12,4.79.73,7.13a61.35,61.35,0,0,1,1.73,20.4l.7-24.47V51.22q.13-9.93-.07-19.85c0-2.2-.17-4.59-1.61-6.27-2.71-3.14-8.2-1.58-10.86,1.6s-3.64,7.4-5.79,10.94l1.63-9.15a10.36,10.36,0,0,1-1,4.74,21.1,21.1,0,0,1,2-7.66c1.28-2.33,3.73-4.23,6.41-4.1,2.36.12,4.37,1.74,5.9,3.52,6.8,7.89,7.32,19.22,6.87,29.57A45,45,0,0,0,53,32.25c-1.59-3.36-4.94-7-8.42-5.63a7.21,7.21,0,0,0-2.42,1.82,31.61,31.61,0,0,0-6.55,10l3.94-8.15c1.71-3.54,4.69-7.71,8.53-6.74,2.23.56,3.61,2.72,4.59,4.77a42,42,0,0,1,3.94,21.86,99.15,99.15,0,0,0-3.82-18.87c-.78-2.53-1.86-5.28-4.26-6.46-3-1.46-6.67.23-8.82,2.72S36.39,33.27,34.59,36c-.58-5.92,2.2-12.27,7.46-15.15s12.79-1.48,16,3.57a10.52,10.52,0,0,1,.87,9.31,13,13,0,0,0-6.1-9.4c-3.39-1.9-8.08-1.64-10.84,1.08-2,1.93-2.85,4.85-5.15,6.38a14.19,14.19,0,0,1,8-9.52c4-1.65,9-.89,12,2.22a14.54,14.54,0,0,1,3.29,7c1.24,5.67.9,11.54.56,17.33A82.83,82.83,0,0,1,58,26.58a97.76,97.76,0,0,1,2.83,24.68v-21a133.33,133.33,0,0,1,.69,20.58l0-20.62q.8,11.74.64,23.52a108.07,108.07,0,0,1-.61-17.48v3.14q-.42,9.09-1.42,18.14A49.71,49.71,0,0,0,58.17,42a82.16,82.16,0,0,0-.82,17.27,52.49,52.49,0,0,0-2-14.23A57.35,57.35,0,0,0,53.82,60l0-13.6-.69,11.18-.91-11.8L51,57.81a61.68,61.68,0,0,1,.65-11.43,83,83,0,0,0-.5,12.26l2.48-12.29.3,12.13Q55.32,51,56,43.31l-.09,13.35.54-14.18A87.46,87.46,0,0,0,55.94,58a149.25,149.25,0,0,0,.69-16.62V57.67l-.06-12.5,1.2,12.41,2.14-19.15q.14,8.15.54,16.29A15.38,15.38,0,0,0,60.25,47l-.15,9.53V49.65l0,8.19.74-6,.74,9.35a28.52,28.52,0,0,1,.64-8.56l0,8.4A11.15,11.15,0,0,0,58,52.1a9.8,9.8,0,0,0-2.67,9.26A14.19,14.19,0,0,0,53,54a6,6,0,0,0-1.5,5.17l.34-6.7a8.88,8.88,0,0,0,3.45,7.1L58,52.95l.59,3.59a1.6,1.6,0,0,0,.53,1.13c.36.24,1,0,.89-.45a12.79,12.79,0,0,1-4.24,1.85,14.28,14.28,0,0,0,4.9-.58,26.73,26.73,0,0,0-6.73,0,11.72,11.72,0,0,0,7.51-.44A11.5,11.5,0,0,1,54,47.93l1.21,6.61a66.17,66.17,0,0,0,.07-18A86.06,86.06,0,0,0,57.9,54.37a44.73,44.73,0,0,0,.91-18.74,53.52,53.52,0,0,0,1.44,13.06,37,37,0,0,0-1.79-18.55c-1.09-3-2.69-5.94-5.39-7.65C48.61,19.68,42.35,21.33,38.62,25s-5.38,9-6.36,14.11a48,48,0,0,1,6.87-14.48,10,10,0,0,1,3.52-3.45,8.26,8.26,0,0,1,6.21-.05c7,2.34,11.36,10.49,9.4,17.51a46.63,46.63,0,0,0-2.65-16.75c-.5-1.41-1.27-3-2.74-3.33a4.61,4.61,0,0,0-2.88.56,41.52,41.52,0,0,0-8.75,5.32,27,27,0,0,1,7.68-6.06,6.53,6.53,0,0,1,3.45-1c2,.15,3.54,1.91,4.56,3.66a23,23,0,0,1,2.83,15.1,15.64,15.64,0,0,0-3.59-13.06A12.81,12.81,0,0,0,43.3,19.44c-4.51,1.41-7.87,6.08-7.3,10.72a12.65,12.65,0,0,1,13-9.6A12.59,12.59,0,0,1,60.24,32.08a24.84,24.84,0,0,0-3.52-7.27,8.6,8.6,0,0,0-7-3.56,10.49,10.49,0,0,0-5,2c-3.62,2.41-6.84,6-7.21,10.3A14.86,14.86,0,0,1,48.23,23,62.47,62.47,0,0,1,56,34.68a28.6,28.6,0,0,0-5.1-7.87A6.37,6.37,0,0,0,48.57,25a4.91,4.91,0,0,0-4.87,1.22,14.13,14.13,0,0,0-2.89,4.34A9.78,9.78,0,0,1,52,29.29a9.52,9.52,0,0,1,4.42,10.25,53.53,53.53,0,0,0-4.52-12.09,8,8,0,0,0-2.48-3.18,3.1,3.1,0,0,0-3.78.11c5.77.86,10.11,7,8.9,12.68A15.14,15.14,0,0,0,47.14,27c-1-.58-2.45-1-3.36-.23s.24,2.73,1.12,1.94a5.52,5.52,0,0,1,5.52,1.75,15.85,15.85,0,0,1,2.9,5.28L48.09,26.3a42.46,42.46,0,0,1,7.19,21.09l-3.4-20a88.61,88.61,0,0,0,1.84,20l.81-21a69.37,69.37,0,0,1,0,18.94L51.7,25.17a167.44,167.44,0,0,0-1.24,18.09,93.11,93.11,0,0,0,.61-13.49A135.71,135.71,0,0,0,51.62,48a79.75,79.75,0,0,1,2.71-23.94A84.07,84.07,0,0,1,58,41.32a53,53,0,0,1-.13-12.71,34.07,34.07,0,0,1,1.59,14.63,96.19,96.19,0,0,0-1.55-17,22.4,22.4,0,0,0-.72,10.58c.28-3.49.55-7.06-.31-10.46s-3-6.67-6.36-7.93c-3.7-1.4-8,.05-10.9,2.76s-4.45,6.47-5.52,10.24c2-6.79,10.76-10.69,17.26-7.72a15.39,15.39,0,0,0-13.23,4.51,21.51,21.51,0,0,0-5.8,12.89L33,22.85l-.73,16a81.85,81.85,0,0,0-.84-11.58L30.12,45l.05-18.2L30.31,46a79.41,79.41,0,0,0,.1-18.8l-.3,9.59.7-13.35,1,15.67"/></g><path class="cls-1" d="M8.14,21a5.48,5.48,0,0,0-4.2-.39,29.71,29.71,0,0,0,13.77-4.32,28.61,28.61,0,0,1-10,2.35L18.35,18a72,72,0,0,1-13.09.45l10.33,0H8.26a15.07,15.07,0,0,0,7.9-1.84c1.31,10.78,2.61,21.6,2.55,32.46l.67-28-1.64,37.4-10,2.13,9.84-2.54A28.37,28.37,0,0,1,7,60.81a19.46,19.46,0,0,0,9.5-.25,40.64,40.64,0,0,0-10.11.74,26.07,26.07,0,0,0,9.71-3.13A29.4,29.4,0,0,0,5.84,59.42l8.33-.07A22.19,22.19,0,0,1,7,60a11.61,11.61,0,0,0,5.49-.75,3,3,0,0,0-4.83-.38L13,56.21,6.4,58.75l5,.16a12.1,12.1,0,0,1-5.57,1.6L4.67,27,6.14,55.39,4.53,22.48a54.42,54.42,0,0,0,14.69-1.7l.62,29.3"/><path class="cls-1" d="M27.57,61.21a8.07,8.07,0,0,0-4.8,1.13,22.25,22.25,0,0,0,8.9-1.86A22.19,22.19,0,0,0,24.6,62,42.34,42.34,0,0,0,38.1,58L27,61a10.64,10.64,0,0,0,6-1.81L26.41,60.7a14.19,14.19,0,0,0,8.46-1.45c-.79.42-1.39-.81-1.44-1.69l-.94-18.38a69.89,69.89,0,0,1,.81,21.63l.56-18.61a56.59,56.59,0,0,0,.25,18.07,67.53,67.53,0,0,1-1.58-13.75A24.15,24.15,0,0,0,35.06,58.7l0-17.15L33.6,61.23c-1.54-.84-3.33.38-4.85,1.27s-4,1.11-4.51-.57a3.16,3.16,0,0,1,0-1.17l3.92-39.59L25.38,49.6l-.45-30.27,9.83.72a13.12,13.12,0,0,1-8.94,1.1,14.57,14.57,0,0,1,5.95-2l-6.46,0a46.07,46.07,0,0,0,7.78-1.3,19.05,19.05,0,0,1-7.23-.57,31.33,31.33,0,0,0,6.15.87,7.09,7.09,0,0,1-6.59.31,19.61,19.61,0,0,1,7.79-1.14,35.64,35.64,0,0,0-.53,10.41c1.93-3.85,5.35-6.78,9.07-9,2.78-1.67,6.11-3,9.23-2.12,4.38,1.26,6.32,6.22,7.43,10.59a133.19,133.19,0,0,1,4.07,33.14A72.24,72.24,0,0,0,50.85,60l6.61-.79-5.34,2.57,6.66-1.28a6.37,6.37,0,0,0-3.51.76,25,25,0,0,0,6.1-1.39,29.73,29.73,0,0,0-9.14,2.49,17.07,17.07,0,0,0,5.23-.59,11.31,11.31,0,0,0-4.61.6,12.26,12.26,0,0,0,5.82-1.7l-6.61-.85L52,52.59l.07,4.84a7.08,7.08,0,0,0,6.3-.66l-.71-.5"/></g></g></g></svg>