<svg xmlns="http://www.w3.org/2000/svg" viewBox="0 0 129.06 152.54"><defs><style>.cls-1{fill:none;stroke:#000073;stroke-miterlimit:10;}</style></defs><title>Asset 18</title><g id="Layer_2" data-name="Layer 2"><g id="Logo_Elements" data-name="Logo Elements"><g id="Logo"><path class="cls-1" d="M74.57,19.41C52.33,9.78,23.73,16.65,8.72,35.24,5,39.86,2,45.25,1.38,51.08c-1,9.83,5.09,19.54,13.73,24.79s19.36,6.52,29.51,5.46S64.52,77,74.17,73.83c-11-.93-22.06,1.78-33.15,1.83s-23.41-3.51-28.63-13c-3.67-6.65-3-14.9-.11-21.92A42.07,42.07,0,0,1,38.43,17,43.81,43.81,0,0,1,74,21.49C71,16.86,64.54,15.9,58.92,16.06A74.1,74.1,0,0,0,25.73,25C19.36,28.43,13.36,33,10.07,39.36s-3.32,14.57,1.37,20c4,4.63,10.49,6.4,16.63,7.52A145.16,145.16,0,0,0,61.94,69c2.17-.12,5.16.39,5.19,2.5a59.6,59.6,0,0,1-40.39-4C23.51,66,20.29,64,18.55,60.88c-1.59-2.8-1.75-6.13-1.7-9.33A90.79,90.79,0,0,1,20,29.26c.75-2.77,1.7-5.62,3.76-7.67A18.22,18.22,0,0,1,30,18a218.29,218.29,0,0,1,22.19-7.53c4.25-1.19,8.67-2.27,13.07-1.75s8.81,3,10.39,7A65.35,65.35,0,0,0,66.26,14c-12.36-1.45-25.19-.51-36.7,4.08s-21.6,13-26.69,24A20.93,20.93,0,0,0,.58,52.95C1,56.63,2.79,60,4.83,63.15A73.7,73.7,0,0,0,24.68,83.52C10.76,75.4,4.38,58.48,5.08,42.76c.27-6,1.49-12.19,4.92-17.22,4.55-6.68,12.52-10.61,20.63-12.11s16.48-.85,24.7-.1c3.88.36,8,.86,10.92,3.4,3.06,2.72,4.49,7.59,8.56,8.41-.31-6.45-6.26-11.6-12.7-13.3s-13.27-.69-19.84.41C33,13.81,23.2,15.81,16.35,22.08,6.78,30.84,5.83,45.42,8.71,57.86c1.45,6.24,4,12.72,9.42,16.37,4.58,3.09,10.43,3.64,16,4.09l31.25,2.55c-10.37.1-20.93-1-30.45-5s-18-11-21.84-20.37S10.19,36,11.17,26.08c.31-3.14.7-6.48,2.76-8.93,1.61-1.92,4-3,6.4-4A97.48,97.48,0,0,1,81.23,9.8c-4.25-1.09-8.74-.41-13.08.27L45.37,13.64c-6.76,1.06-13.62,2.15-19.83,5A37.09,37.09,0,0,0,10.6,30.88C5.32,38.35,3.12,48,5.6,56.73s9.9,16.19,19,18.06c10.11,2.07,20.89-2.47,30.81.32a39.84,39.84,0,0,1-31.38-5.24A37.36,37.36,0,0,1,7.69,43.45a19,19,0,0,1,.67-8.57C9.73,31,12.85,28,15.95,25.24c8.9-7.94,18.71-15.18,30-19.51S70,.2,81.37,4.27"/><path class="cls-1" d="M64.53,42.84c10-7.61,25.28-7.85,35.53-.55s14.57,21.49,10,33S92.61,94.63,79.94,93.48c14.8,13.2,22.34,32.92,37.94,45.23C105,125.29,92,111.78,81.71,96.35a230.08,230.08,0,0,0,27.79,46.19A309.4,309.4,0,0,0,76,97.73a284,284,0,0,1,31.42,37.38L72.71,95.85c15.52,10.1,26.11,25.72,36.28,40.92-11.78-13.1-23.65-26.32-32.39-41.48q11.71-5.08,23-10.93c7.24-3.74,15.23-9.05,15.57-17,.24-5.78-3.9-10.95-8.73-14.37-14.78-10.47-35-8.77-53.13-6.59a122.76,122.76,0,0,1,26-9.11L53,41.58l22.79-.37L52.24,35.84a160.56,160.56,0,0,1,38.58,8.72A30.55,30.55,0,0,1,100,49.22c7.84,6.43,7.77,18.76,2.58,27.34S88.4,90.82,79.63,96c6.06-3.64,12.73-6.29,18.67-10.12s11.29-9.21,12.8-16c2.47-11-6.36-22-17.09-26.33S71.19,40,59.6,40.75l28.09-1.11a17.2,17.2,0,0,1,6.3.53,13.56,13.56,0,0,1,4.79,3.21,34.59,34.59,0,0,1,9.57,33.21C105.28,88.24,95.5,98,83.56,101.34l20.56-15.26A51.93,51.93,0,0,1,87,98.32a41.32,41.32,0,0,0,25.42-24.85c2.38-6.75,2.54-15-2.45-20.23-2.51-2.64-6-4.17-9.45-5.48A120.7,120.7,0,0,0,62,40c6.77-1.16,13-5.15,19.91-4.81,4.5.23,8.65,2.31,12.64,4.34C101.29,43,108.34,46.72,112.27,53c5.87,9.44,2.74,22.15-4.39,30.73s-17.49,14-27.55,19.11Q97.12,122,113.56,141.41C95.33,132.08,90,108.17,72.89,97l30,40L75.4,101.82a274.36,274.36,0,0,1,28.46,42.07A234.61,234.61,0,0,0,73,106.58l25.4,31.78L70.7,97l21.94-8L77.48,96.9a90,90,0,0,0,25.85-20.82c2.19-2.58,4.3-5.41,4.86-8.7.91-5.32-2.57-10.64-7.26-13.54S90.55,50,85,49.5a137.93,137.93,0,0,0-26.36.07L90,45.78a66.87,66.87,0,0,0-34.71,4.76"/><path class="cls-1" d="M61.63,16.74c-4.91-6.92-15.87-5.84-23.76-2.37A62.72,62.72,0,0,0,12.33,34.92a39.57,39.57,0,0,0-7,14.82c-2.92,14,5.46,28.82,18.2,36s28.86,7.2,42.71,2.36L40,87c-4.13-.17-8.39-.37-12.12-2.08a28.25,28.25,0,0,1-7.2-5.24C11.33,71,2.59,59.29,5.23,47.06,7.29,37.55,15.65,30.7,23.49,24.63L51.19,3.2C36.4,14.49,21.13,26.33,12.77,42.67,8.53,51,6.32,61,10.31,69.4,13.6,76.34,20.75,81.1,28.4,82.94s15.75,1,23.39-.85C40.51,83.88,28.7,79,21.14,70.66S10,51.09,10,40c0-5.88,1-12.08,4.86-16.62s9.63-6.64,13.84-10.66c2.74-2.62,4.8-6,8.17-7.83,2.53-1.37,5.51-1.67,8.4-1.95L68.43.76c5.75-.55,12.63-.64,16,3.89L80.83,4.5"/><path class="cls-1" d="M59,43.55c7.79-8.51,21.11-11,32.41-7.9s20.66,11.09,27.37,20.42c1.47,2,2.86,4.25,3.11,6.72a13.78,13.78,0,0,1-1.17,6.13C114.36,85.89,99,99.45,81,104.1c18.33-5.26,28.63-27.48,21.68-44.71S73.92,32.51,55.5,37.46a100.6,100.6,0,0,1,43.84,14C105,54.88,110.6,59.19,113,65.25c3.25,8.34-.65,18.1-7.41,24.15s-15.85,9-24.83,11c17,13.31,34.41,27,45.47,45.3q-21.69-23.06-42.58-46.81a148,148,0,0,0,28.09,49.83,134.09,134.09,0,0,0-40.62-45.83,465.39,465.39,0,0,1,47.62,46.46c-16.41-15.27-31.19-32.09-45.94-48.87C84.41,93.87,96.94,86.31,101.34,74c4.18-11.7-1-25.87-11.86-32.42s-26.28-4.81-35.29,4"/></g></g></g></svg>