<svg xmlns="http://www.w3.org/2000/svg" viewBox="0 0 362.57 343.15"><defs><style>.cls-1{fill:none;stroke:#000073;stroke-miterlimit:10;}</style></defs><title>small circle</title><g id="Layer_2" data-name="Layer 2"><g id="Logo_Elements" data-name="Logo Elements"><path class="cls-1" d="M176.54,6.07q3.73-.17,7.5-.17c92.09,0,166.74,75,166.74,167.62S276.12,341.14,184,341.14,17.3,266.1,17.3,173.52a169.05,169.05,0,0,1,48.34-118,167.32,167.32,0,0,1,52.51-36A165,165,0,0,1,150,9.41c10.39-2.17,23-.73,31.75-6.92C138.44-1.67,94.31,17.1,64,49.35s-46.91,77-48.65,121.86a72.77,72.77,0,0,1,7.46-46.91q-6.25,25.86-14.26,51.22C22.14,104.2,71.63,41.25,136.4,13c9-3.94,18.38-7.26,28.1-8.47,6.65-.83,13.53-.7,19.83-3.07C149.81,3.15,112.63,5.89,86,28.7c-11.86,10.18-20.62,23.61-29,37-20.82,33-41.41,70.52-35.69,109.5C25.3,132,43.7,90.37,72.66,59S141,6.65,182.51.49c-28.43,6.33-56.82,14.06-82.9,27.38S49.71,60.49,34.49,86.11a130.33,130.33,0,0,0-16.49,85c.6,4,2.15,8.78,6,9.49,1.65,35,11.55,72.87,33.25,99.75,15.31,19,32.18,37.22,53.24,48.86s47.07,15.88,69,6.1c-15.65,10.71-36.63,5.18-53.91-2.39-47.71-20.9-91.27-56.74-112-105.84C8.83,215.75,5.28,203,8.31,191.05c2.47-9.76,8.78-21.18,2.24-28.66-1.2,47.9,25.07,93.73,62,122.69s83.3,42.67,129.43,47.32c-13.82,5.48-28.75,8.84-43.44,7-30.09-3.85-53.2-28.13-78.76-45-15.42-10.17-32.57-18.09-45.43-31.54C14.8,242.4,8.2,212.62,2.58,184.46,2,181.76,1.5,179,2,176.26c1.19-6.39,7.84-10.87,8.12-17.37-2.79,22,3.22,44.17,11.18,64.75,8.59,22.19,19.84,43.83,36.8,60.08C78.55,303.3,105.56,313.54,132,322.6c19,6.51,38.2,12.68,58,15.41a6.77,6.77,0,0,1-5.42-.69"/><path class="cls-1" d="M187.34,7.41q-3.73-.17-7.5-.17c-92.09,0-166.74,75-166.74,167.62S87.75,342.48,179.84,342.48s166.74-75,166.74-167.62a169.05,169.05,0,0,0-48.34-118,167.32,167.32,0,0,0-52.51-36,165,165,0,0,0-31.82-10.09c-10.39-2.17-23-.73-31.75-6.92,43.28-4.16,87.41,14.61,117.68,46.86s46.91,77,48.65,121.86A72.77,72.77,0,0,0,341,125.64q6.25,25.86,14.26,51.22c-13.55-71.32-63-134.26-127.81-162.53-9-3.94-18.38-7.26-28.1-8.47-6.65-.83-13.53-.7-19.83-3.07,34.52,1.71,71.71,4.44,98.3,27.26,11.86,10.18,20.62,23.61,29,37,20.82,33,41.41,70.52,35.69,109.5-4-43.18-22.39-84.79-51.36-116.18S222.91,8,181.37,1.84c28.43,6.33,56.82,14.06,82.9,27.38s49.9,32.62,65.12,58.24a130.33,130.33,0,0,1,16.49,85c-.6,4-2.15,8.78-6,9.49-1.65,35-11.55,72.87-33.25,99.75-15.31,19-32.18,37.22-53.24,48.86s-47.07,15.88-69,6.1C200,347.4,221,341.87,238.29,334.3c47.71-20.9,91.27-56.74,112-105.84,4.79-11.36,8.34-24.07,5.31-36.06-2.47-9.76-8.78-21.18-2.24-28.66,1.2,47.9-25.07,93.73-62,122.69S208,329.1,161.9,333.75c13.82,5.48,28.75,8.84,43.44,7,30.09-3.85,53.2-28.13,78.76-45,15.42-10.17,32.57-18.09,45.43-31.54,19.55-20.44,26.15-50.22,31.77-78.37.54-2.7,1.08-5.49.57-8.2-1.19-6.39-7.84-10.87-8.12-17.37,2.79,22-3.22,44.17-11.18,64.75-8.59,22.19-19.84,43.83-36.8,60.08-20.44,19.58-47.45,29.82-73.89,38.88-19,6.51-38.2,12.68-58,15.41a6.77,6.77,0,0,0,5.42-.69"/><path class="cls-1" d="M4.09,175.3C.64,171.56.29,165.85.58,160.7c2-35.86,24.66-66.47,46.55-94.37C16.82,101.93,1.24,150.53,5,197.8c-3.53-48.69,18.91-94.93,41.09-138A20.35,20.35,0,0,1,42.41,71L64.29,50.7A115.88,115.88,0,0,0,25,114.39"/><path class="cls-1" d="M306.58,68.05C319,84.51,331.67,101.4,338.1,121.2c8.92,27.44,5,57.35.78,86,6-12.68,5.17-27.49,4.24-41.56-1.47-22.24-3.08-45-12.06-65.31,20.21,26.1,30.23,60.4,27.37,93.7a361.4,361.4,0,0,0-8.87-60.12c-2.46-10.47-5.8-21.49-13.87-28.3,18.75,26.55,26.21,61.33,20.06,93.59-.35,1.84-2.2,4.17-3.42,2.78"/></g></g></svg>