<svg xmlns="http://www.w3.org/2000/svg" viewBox="0 0 92.69 62.18"><defs><style>.cls-1{fill:none;stroke:#000073;stroke-miterlimit:10;}</style></defs><title>Styling</title><g id="Layer_2" data-name="Layer 2"><g id="Icons"><g id="Styling"><path class="cls-1" d="M39.85,24,9,46.79C7.09,48.16,5,50,5.41,52.09c.48,2.8,4.48,3.62,7.64,3.77q31.52,1.55,63.1,1.34a13.2,13.2,0,0,0,5.36-.79c1.63-.74,2.89-2.41,2.4-4a5.48,5.48,0,0,0-1.82-2.28L51.19,23.07"/><path class="cls-1" d="M39.76,5.94,39,7.27c-.09-4.07,3.3-4.11,7.49-2.56S51.92,12,48.67,14.83c-1.1,1-2.56,1.58-3.5,2.66-1.85,2.12-1.16,5.15-.67,7.81a38.29,38.29,0,0,1-.5,16.4l.22-3.13"/><path class="cls-1" d="M11.57,56.56a5.33,5.33,0,0,0,4.31,2c-2.51-.25-5.05.12-7.56-.12S3.14,57.15,2.2,55.05c-1.47-3.3,2-6.59,5.07-8.82L37,24.92l-1,1.62c.8-1.3,2.36.06,3.16-1.25-5.55,3.57-11,5-16.52,8.61-4.06,2.62-8.16,5.26-11.43,8.66S5.48,50.21,5.45,54.7a4.25,4.25,0,0,0,1,3.2c1,1,2.66,1.14,4.16,1.21q6,.29,12,.06"/><path class="cls-1" d="M48.08,19.46C31.84,26.75,15.19,34.31,3.73,45.57,1,48.26-1.19,52.5,2.32,54.63c1.7,1,4.09,1.06,6.28,1l71.25-.78c-22.08-4.37-45.58.75-68.27-1.2A435,435,0,0,0,85,52.25c-3.83-2.56-9.38-3-14.52-3.18A615.15,615.15,0,0,0,1,50.08a800,800,0,0,0,81.61,4.77,175.64,175.64,0,0,1-19,1.09L13.39,57q36.92-1.25,73.67-4.38a633.79,633.79,0,0,0-72.92.59c-.52,1.28,1.73,2.14,3.49,2.41a239.76,239.76,0,0,0,68.19.56c2.3-.31,4.89-.82,5.94-2.38,1.4-2.08-.9-4.47-3.21-6C77.61,40.33,62.27,35.57,56.48,25.39c5.68,5.18,13.87,8.56,19.6,13.7s8.18,13.61,1.54,18.11l12-5.8c.89-.43,1.85-.93,2.11-1.7.34-1-.61-1.93-1.5-2.7Q75.86,34.59,59.91,23.29c8.47,11,24.61,19.29,26.5,31.87a2.36,2.36,0,0,1-.25,1.8,4.17,4.17,0,0,1-2.37,1.22c-5.74,1.44-12.46.44-17-2.54A115.76,115.76,0,0,0,85.1,52.26a5.75,5.75,0,0,0,3.06-1.52c.9-1.18.07-2.65-.81-3.85a99.17,99.17,0,0,0-22.58-22c.74,4.92,6.53,8.39,11.3,11.85s9.14,8.6,6.29,13.08-12.66,4.72-16,.52"/><path class="cls-1" d="M41,2.25a7.1,7.1,0,0,1-2.67,3.91A10.41,10.41,0,0,1,47.71.51c4,.15,7.77,3.58,7,7-.73,3.22-4.54,5.1-8.06,6.26-.75.25-1.59.55-1.88,1.2a2.26,2.26,0,0,0,.14,1.66,37.16,37.16,0,0,1,1.85,15.75A30.78,30.78,0,0,1,46.86,19a7.89,7.89,0,0,1,1.54-3.5C50,13.68,52.89,13,54.29,11c2.32-3.19-1.3-7.6-5.57-8.27S40.24,3.89,36.39,5.62c4.45,1.14,8.83-3.8,13.24-2.53,3.87,1.12,4.09,5.83,3,9.26-.8,2.61-2.43,5.57-5.51,5.94a5.44,5.44,0,0,0-1.89.33c-1.16.61-.91,2.11-.57,3.25A42,42,0,0,1,46.15,39.7c2.67-7.13-2.33-16.15,3.24-21.87,1-1,2.21-1.8,3.17-2.81,3.31-3.5,2.18-9.45-2.23-11.85S39.28,2.54,37.14,6.67a133,133,0,0,1,15.3-5,4,4,0,0,1,3,0,2.78,2.78,0,0,1,1.08,1.53C58.89,9.59,55,17.26,48,20.1c3.53-3,7.32-6.6,7.08-10.9a8.07,8.07,0,0,0-5.86-6.84,9.94,9.94,0,0,0-9.49,2.13l9.59-2.12A4.73,4.73,0,0,1,52,2.3a3.35,3.35,0,0,1,1.52,1.38c3.77,5.68.28,14-6.82,16.22,6.07-2.23,10-8.26,9-13.93A4.05,4.05,0,0,0,54.34,3.3a5.48,5.48,0,0,0-2.88-.86c-6.17-.48-12.52,2.34-15.69,7a76,76,0,0,1,8.66-6.6c2-1.3,4.44-2.58,6.82-1.95,2.19.58,3.44,2.59,4,4.51,2.25,7.05-1.67,15.24-9,18.81a26.82,26.82,0,0,1,.47,16.09,44,44,0,0,1,2.07-18.1,95.46,95.46,0,0,1,2.81,16,28.07,28.07,0,0,1-.83-17.38q.26,9.47-.31,18.95A42.35,42.35,0,0,1,49.95,20l-.84,17.55c-.94-4.63-7.74-7.26-7.14-11.92A274.91,274.91,0,0,0,17.15,41.13C12.1,44.68,6.71,49.49,7.81,55.06a4.6,4.6,0,0,0,1.59,2.81c1.76,1.36,4.45,1.06,6.75.62q6.92-1.31,13.66-3.21c-2.57,2.63-6.71,3.79-10.67,3.75a37.09,37.09,0,0,1-11.5-2.4,11.89,11.89,0,0,1-4.8-2.54,6.22,6.22,0,0,1-.6-7.32C3.51,44.44,5.78,42.65,8.1,41a81.31,81.31,0,0,1,18.58-9.58c5.62-2,11.91-3.78,15.34-8.16A155.85,155.85,0,0,0,4.89,51.82c-1.21,1.27-2.47,2.81-2,4.42.57,2.16,3.67,2.87,6.21,2.94a43.81,43.81,0,0,0,20.27-4.26A94.26,94.26,0,0,1,11,54.65c-2.43-.27-5.29-1-6-3a4.19,4.19,0,0,1,.3-2.95c1.59-3.9,5.28-6.85,9.1-9.32C23.1,33.76,33.1,29.85,43,26L6.32,54.2c-2,1.55-4.2,4-2.71,5.95.83,1.08,2.46,1.41,4,1.5,4.73.27,9.37-1.08,13.86-2.4l6.77-2c.5-.15,1.11-.42,1.07-.88s-1.14-.21-.74.1"/></g></g></g></svg>