<svg xmlns="http://www.w3.org/2000/svg" viewBox="0 0 71.07 54.77"><defs><style>.cls-1{fill:none;stroke:#000073;stroke-miterlimit:10;}</style></defs><title>Twitter</title><g id="Layer_2" data-name="Layer 2"><g id="Social_media_icons" data-name="Social media icons"><path id="Twitter" class="cls-1" d="M10.9,7.77l-.22-2.29c-3.12,9.41,2,20.76,11.07,24.79C11,27,4.55,13.84,8.59,3.42a29.32,29.32,0,0,0,.72,17.77A21.25,21.25,0,0,0,21.74,33.63a27.73,27.73,0,0,1-11.32-27c-4.95,11.75.14,26.76,11.23,33.17.66-2.36-1.78-4.3-3.72-5.81A26.18,26.18,0,0,1,8.38,9.71C5.09,19.25,10.17,30.87,19.44,35,13,29.33,12.61,19.7,12.65,11.17c-2,5.47-2.6,11.63-.67,17.14s6.61,10.21,12.37,11.35L3.58,42.58c4.89,2.71,9.87,5.45,15.34,6.66a33.09,33.09,0,0,0,24.74-4.85,42.62,42.62,0,0,0,15.89-19.8c1-2.51,1.76-5.6.07-7.72,1,8.22-2.47,16.61-8.23,22.61s-13.58,9.75-21.68,11.7c-9,2.17-19.41,1.93-26.47-4a41.19,41.19,0,0,0,38.58-2.22A40.55,40.55,0,0,0,60.66,11.43C63.53,25.3,56,40.64,43.2,46.93c-10.48,5.16-22.81,4.37-34.48,3.46,8.93,3.27,18.68,5,28,3.16S55,46.12,59.14,37.63c3.17-6.46,3.45-13.92,3-21.1a126.17,126.17,0,0,1-10.1,22.79c-2.38,4.19-5.17,8.42-9.41,10.75-3.81,2.09-8.35,2.4-12.69,2.22a128,128,0,0,1-18.55-2.6,48.85,48.85,0,0,0,27.71,2.87c4-.76,8.11-2.14,11-5,2.36-2.37,3.68-5.54,5-8.62,2.54-6.15,5.13-12.81,3.56-19.28,1.05,6.11-2.5,12.17-7.09,16.37s-10.21,7.12-15.1,11c-2,1.56-3.92,3.32-6.34,4a14.33,14.33,0,0,1-6,.13A52.32,52.32,0,0,1,2.87,43.23c7-2,14.12-3.92,20.7-7.09A99.22,99.22,0,0,0,6.11,45.52l9.82-8.34a46.7,46.7,0,0,0-13.75,12L15.37,37A36.41,36.41,0,0,1,4.91,44.29,41.64,41.64,0,0,1,19,39.86,76.48,76.48,0,0,0,5.66,41.44l8.74.31L2.33,41.68a9,9,0,0,0,5.88.89,11.71,11.71,0,0,1-5.91,1C2,44.87,3.4,45.84,4.59,46.39c6.45,3,13.18,5.74,20.28,6.17A32.52,32.52,0,0,0,50.65,42a32,32,0,0,0,7.53-26.67,12.44,12.44,0,0,0,7.72-.15,8.21,8.21,0,0,0-7.42,1.45,16.81,16.81,0,0,0,7.24-6.78l-6,7.5a17.85,17.85,0,0,1,5.59-7.48l-6.16,9.1a41.37,41.37,0,0,1,6.05-9.45,8.32,8.32,0,0,1-3.25,4.85,8.11,8.11,0,0,0,3.34-3.65L54.48,8.81a16.62,16.62,0,0,0,11.7-.46,27.09,27.09,0,0,0-9.7-.64l9.36.9L56.44,6.08l8.84.74a42,42,0,0,1-10.64-.95l9.58,0-10.58-1,12.48,1L53.76,4.12A44.35,44.35,0,0,0,70.5,5.84L63.55,6a6,6,0,0,0,5.92.18l-5.16,7.54,4.38-6-7.78,8.74L65.8,10.6A17.9,17.9,0,0,1,60,17.3a4.77,4.77,0,0,0,.24-6.39A9.35,9.35,0,0,0,57.45,9c-3.29-1.71-6.69-3.46-10.39-3.85s-7.82.87-9.77,4a9.17,9.17,0,0,0,0,8.9C33.69,14,35.66,7,40.3,4.08s10.79-2.27,15.75,0a12.2,12.2,0,0,0-13.72-.39,12,12,0,0,0-4.82,12.75c-3.76-4-1-11.26,4-13.44s11-.49,15.74,2.37C53,1.47,46.57-.79,41.07,1.29s-8.72,9.53-5.23,14.22c-1.3-3.29-1.88-7.21,0-10.23S41.9.92,45.58,1.35s7,2.21,10.3,4c-5.77-3.37-13.4-6.66-18.64-2.53-3.87,3-4.25,8.76-3.3,13.57-2.88-3.32-.6-8.91,3.3-11s8.6-1.66,13-1.19C51.4,4.29,53,5,52.5,6.11c-3.32-3.57-8.58-6.34-13-4.28-4.83,2.24-5.7,8.57-5.92,13.85A10.1,10.1,0,0,1,37.19,5.46a10.28,10.28,0,0,1,10.88-.82A10.62,10.62,0,0,0,34.75,5a10.42,10.42,0,0,0-1.68,13.12c-3.76,2.61-9.12,1.77-12.92-.8s-6.38-6.5-8.86-10.34c1.53,3.61,5.83,5.17,9.74,5.67s8.06.39,11.54,2.25a46.56,46.56,0,0,1-25-9.72A54.35,54.35,0,0,0,36.07,18.37L11.63,7.54A21.81,21.81,0,0,0,31.14,19.32,50.54,50.54,0,0,1,8.41,6c.11,3.25,3.85,5,7,5.93l19.29,6L9.59,5.24c8.07,7.23,17.79,15,28.51,13.18C27.27,17.73,17.8,11.28,9,5.05A40.56,40.56,0,0,0,29.69,15.7C22.46,13.82,16.2,9.45,10.1,5.15A45.28,45.28,0,0,0,37.47,15.56a4.68,4.68,0,0,0-3.77-.67"/></g></g></svg>