<svg xmlns="http://www.w3.org/2000/svg" viewBox="0 0 76.21 66.75"><defs><style>.cls-1{fill:none;stroke:#000073;stroke-miterlimit:10;stroke-width:0.75px;}</style></defs><title>Video Editing</title><g id="Layer_2" data-name="Layer 2"><g id="Icons"><g id="Editing"><path class="cls-1" d="M64.36,56.15c-.41.59.35,1.56,1,1.23l-1.15-15.1A55.35,55.35,0,0,1,65.31,58c.23-7.28,1.29-7,1.52-14.26C66.18,51.66,64.7,52,64,60c2-9.12,5.33-7.34,2.78-16.29,1.08,9.5-1.86,7.58-1.41,17.14Q34.11,63,2.71,62.82a371,371,0,0,1,2.6-50.92A315.1,315.1,0,0,0,4.22,61.21L5.69,16.33a141.43,141.43,0,0,0-.83,37.4l-1.23-42c7.09,0,15.14-1,22.23-1A77.59,77.59,0,0,0,5.91,12l14.23-1.21a1.86,1.86,0,0,1,1.79.5c.38.56-.36,1.58-.8,1.07"/><path class="cls-1" d="M14.38,14.45l-1.2-2.77c-.53,16-.48,32.05.14,48a.49.49,0,0,1,0,.11"/><path class="cls-1" d="M53.29,34l1.29,26.08V35.92q.15,14.36-.17,28.72"/><path class="cls-1" d="M14.1,38.75l17.1-1.19-18.57,1.7"/><path class="cls-1" d="M36.62,38.19l11.13,0a20.47,20.47,0,0,0-11.16,1.45,46,46,0,0,1,14-2.5"/><path class="cls-1" d="M4.66,56.34A16.56,16.56,0,0,0,12.36,55a30.33,30.33,0,0,1-6.8-.43h4.87"/><path class="cls-1" d="M4.26,47.13a24.47,24.47,0,0,0,6.62.06A12.3,12.3,0,0,0,5,47.78a51.19,51.19,0,0,1,6.13-.6,7.56,7.56,0,0,0-4.46.73,5,5,0,0,0,4.16-.68"/><path class="cls-1" d="M9.19,41a3.91,3.91,0,0,1-3-1.09,8.76,8.76,0,0,1,4.41-.61,11.18,11.18,0,0,1-5.45.9H9.6l-5-.72c1.91-.33,4.64-5.72,6.54-6l-4-.23a11.89,11.89,0,0,0,5.55-.84A22.15,22.15,0,0,0,7,32.69l2.54.67A9,9,0,0,0,5.87,33"/><path class="cls-1" d="M6.3,26.68a1.33,1.33,0,0,1-1.49-.42l4.66,0a8.67,8.67,0,0,1-4.41.22L12,25.35l-5,.07a8.62,8.62,0,0,1,3.16.22"/><path class="cls-1" d="M5.55,18.71a7.38,7.38,0,0,0,4.94.34l-5,.29,5.61,0L5.88,20a13,13,0,0,0,5.64-.75,14.2,14.2,0,0,1-5.13,1.45,8.06,8.06,0,0,0,4.35-1l-2,0"/><path class="cls-1" d="M55,55.35a22.89,22.89,0,0,0,10.41.51,15.59,15.59,0,0,0-8.37.51,20.78,20.78,0,0,1,6.17-1.66A78.23,78.23,0,0,1,55.35,56,9.81,9.81,0,0,0,61,55.88"/><path class="cls-1" d="M56.71,49.42c0-.28-.49-.1-.39.17s.42.31.68.3A21.73,21.73,0,0,0,63,49a27.16,27.16,0,0,0-8.06,1.33,19.71,19.71,0,0,0,7-1.3,9,9,0,0,1-4,1.14l3.55.13"/><path class="cls-1" d="M54.44,42.54a32,32,0,0,1,4.86-.13l-3.42.79a13.26,13.26,0,0,0,5.54.49l-4.78,0a9.67,9.67,0,0,0,3.85-.45,6,6,0,0,0-3.47.57,2.49,2.49,0,0,0,2.81-.11"/><path class="cls-1" d="M43.76,37.65a9.86,9.86,0,0,0-5.39-.28"/><path class="cls-1" d="M32.25,38.91l-6.05.1q13.91-.87,27.72-3-19.2,1.39-38.43,2.11L49,37.92c-6.81-1.5-13.77,1.46-20.72,1.52-4.73,0-9.54-1.25-14.13,0a2.26,2.26,0,0,0-.4-1.54q17.32-.14,34.64.73c-3.87-2.94-9.15-1.66-13.9-1.23a69.58,69.58,0,0,1-9.8,0l-10-.5c13.73-.41,27.5-.82,41.17.67a10.15,10.15,0,0,0-8.64.17c.34-.27.81,0,1.18.2s.88.42,1.16.08-.51-.81-.48-.37"/><path class="cls-1" d="M13.79,11.49l1,50.2A16.06,16.06,0,0,1,13.84,56l-.56-13c-.45-10.4-.89-20.88.59-31.17a449.83,449.83,0,0,0,.34,50.88l-.06-6.78A47.9,47.9,0,0,0,14.4,64a3.65,3.65,0,0,0-1-3.8l-.1,2.48V60.82l0,3c1.59-6.46.39-13.27-.27-19.91A120,120,0,0,1,14,13.64l-1.14,10"/><path class="cls-1" d="M4.9,15.95a6.25,6.25,0,0,0-3.18-3l.92,50.2c1-5.73,0-11.59-.71-17.37a169.65,169.65,0,0,1-.64-34,35.84,35.84,0,0,1,.85,12.5l.48-9.68a144.8,144.8,0,0,0,.91,23.3A93.29,93.29,0,0,1,3.45,12.5a1.9,1.9,0,0,1-.16,1.38c-.28.38-1,.32-1-.16l1.46-.09A5.08,5.08,0,0,1,1,13.39L4.1,12c-1.12.6-1.38,2.13-1.5,3.45a316,316,0,0,0-.75,48.22l1,0A15.18,15.18,0,0,0,2.74,58l-.17,4.83"/><path class="cls-1" d="M55.72,38.92a3.12,3.12,0,0,0-3.15-.11L52,37.32c-.8,7.15,2,14.5.4,21.51A84.45,84.45,0,0,0,52,37.71a235.48,235.48,0,0,1,1.54,24.58,71.57,71.57,0,0,0-.16-11.12,51.48,51.48,0,0,0-.55,12l0-7.6a10,10,0,0,0-.53,6.18A49.21,49.21,0,0,0,51,40.16"/><path class="cls-1" d="M67.63,50.41A2.38,2.38,0,0,1,66,47.32v15L66.06,53l.5,8.31a39.54,39.54,0,0,0-.14-11.37,65,65,0,0,1,.34,10"/><path class="cls-1" d="M2.62,63.9q31.3-.69,62.61.29a272.12,272.12,0,0,0-61.87-.56c19.74-5.52,41.47,6.21,60.73-.94Q33.43,62,2.78,63.84a98.26,98.26,0,0,1,29.37-.07L15.1,65.63c-4.15.45-8.41.89-12.42-.28a33.9,33.9,0,0,1,16.69-2.16L3.57,64.42a52.61,52.61,0,0,0,12.7.09l-10.59.75c-.36,0-.82.15-.85.52s.74.18.44,0"/><path class="cls-1" d="M66.52,31.76a3.78,3.78,0,0,0-4.11,1.52,6.4,6.4,0,0,0-1,4.65,8.18,8.18,0,0,0,5.16,6.47,2.82,2.82,0,0,0,2.11.06A3.26,3.26,0,0,0,70,43.11c1.61-2.66,2.12-6.39.29-8.88-2.1-2.86-6.84-2.63-8.87.29a6.81,6.81,0,0,0,11.12,7.88,5.71,5.71,0,0,0,1.39-3.51c0-2.79-2.5-4.77-4.83-6.08a5.39,5.39,0,0,0-3.77-1c-1.68.41-2.68,2.28-3,4.06-.65,3.13.36,6.95,3.14,8.22s6.07-.57,7.56-3.3a6.81,6.81,0,0,0,.9-3.47,5.52,5.52,0,0,0-6.54-5c-3,.72-5,4.08-4.85,7.31a6.25,6.25,0,0,0,1.81,4.2,5,5,0,0,0,6.09.32,6.84,6.84,0,0,0,2.68-6c-.19-3-2.85-6-5.66-5.37A4.75,4.75,0,0,0,65,34.36a6.22,6.22,0,0,0-.93,6.89,4.58,4.58,0,0,0,6.11,1.92c2.4-1.43,2.86-5.05,1.84-7.75-.76-2-2.73-3.89-4.65-3.16a4.41,4.41,0,0,0-2.21,2.65,12.89,12.89,0,0,0-.9,5.33,4.07,4.07,0,0,0,.83,2.59,3.15,3.15,0,0,0,3.75.29,7,7,0,0,0,3.52-5.72A8.31,8.31,0,0,0,69.82,31c-1.26-1.21-3.07-2-4.67-1.38-1.79.68-2.66,2.8-3.06,4.77-.62,3.06-.15,7,2.56,8.24a4.15,4.15,0,0,0,4.77-1.12,5.44,5.44,0,0,0,.94-5.15,3.81,3.81,0,0,0-2.48-2.62,3.1,3.1,0,0,0-2.07.26A4.52,4.52,0,0,0,64,39.89a4.37,4.37,0,0,0,5.63,1.94,5.26,5.26,0,0,0,2.58-5.75,4.34,4.34,0,0,0-1.93-2.82,4.22,4.22,0,0,0-5,1.08,9.09,9.09,0,0,0-2.06,5.3c-.18,1.72,0,3.66,1.19,4.82a3.72,3.72,0,0,0,4.63.18,6.8,6.8,0,0,0,2.55-4.38"/><path class="cls-1" d="M25.18,9.41,24,8.59q21.35,12.6,41.88,26.67l-24-12.7c-6.67-3.54-13.4-7.11-19.24-12,13,3.56,23.71,13.08,36.17,18.28A136.1,136.1,0,0,1,22.06,7.56L38.28,18.89,22,8.81a16.46,16.46,0,0,0,7.36,5.54A21.07,21.07,0,0,0,21,7.25a20.79,20.79,0,0,0,9.11,6.39A19.8,19.8,0,0,0,20.92,7C34.07,16.4,48.49,23.52,62.85,30.6c-1.7.8-3.63-.17-5.26-1.11L37.74,17.95,63.41,31.51,52.54,26.28a35.54,35.54,0,0,0,8,5.28,69.76,69.76,0,0,0-14.86-9.34,73.62,73.62,0,0,0,16.09,9.3Q49.17,25.36,37.09,18.14,50.42,24.25,63.3,31.42c-14.89-6-28.14-15.68-41.21-25.3a14.87,14.87,0,0,0,6.26,5.2,59.85,59.85,0,0,0-7.9-5.41,8.86,8.86,0,0,0,4.72,3.43,8.43,8.43,0,0,0-5.08-3.88,7.12,7.12,0,0,0,4.63,4,13.13,13.13,0,0,0-5.77-3.91,18.28,18.28,0,0,0,7.56,4.29l-7.8-5.28L58.07,29.88a15.78,15.78,0,0,0-5.95-3.24L61.37,31a6.78,6.78,0,0,1-4.72-1.2l6.49,4.24A12.27,12.27,0,0,1,56.24,31a13.39,13.39,0,0,1,4.35,1.75A89.5,89.5,0,0,0,42,23.12l16.84,7.6-9.68-4.26A12.06,12.06,0,0,0,54,28.83q-13.42-7.07-26.2-15.4c-2.24-1.46-4.63-3.17-5.43-5.83L62.27,33.39a66.16,66.16,0,0,1-15-8.64,95.68,95.68,0,0,0,13.21,9,36.79,36.79,0,0,1-8.42-5.83,41.55,41.55,0,0,0,9.65,6.15C50.14,24,33.47,21.66,23,10.26A147.37,147.37,0,0,1,61.61,35.64L57.31,32.9"/><path class="cls-1" d="M63.52,5.32A4.3,4.3,0,0,0,63,9.89a5.86,5.86,0,0,0,3.54,3,7.55,7.55,0,0,0,7.75-2.1,3.2,3.2,0,0,0,1-2,3.48,3.48,0,0,0-.59-1.81c-1.57-2.69-4.52-4.8-7.44-4.14-3.35.76-5.21,5.37-3.61,8.57a6.34,6.34,0,0,0,8.88,2.39c2.92-1.9,4-6.23,2.66-9.55A5.46,5.46,0,0,0,72.8,1.37c-2.37-1.22-5.15.31-7.27,2A5.89,5.89,0,0,0,63.06,6.5c-.38,1.78.77,3.54,2.13,4.67,2.38,2,6.07,2.68,8.36.58s2.16-6,.47-8.63A6.29,6.29,0,0,0,71.47.75c-2.81-1.29-6.39.91-7.07,4.06a7.2,7.2,0,0,0,4.11,7.79,5.47,5.47,0,0,0,4.36.11,5.56,5.56,0,0,0,2.92-5.66,6.63,6.63,0,0,0-3.92-5.14C69.2.77,65.51,2,64.84,5a5.35,5.35,0,0,0,.23,2.92,5.64,5.64,0,0,0,5.47,3.88,4.89,4.89,0,0,0,4.29-5c-.17-2.91-3.06-4.92-5.8-5.12-2-.14-4.5.91-4.71,3.05A4.62,4.62,0,0,0,65.61,8a11.64,11.64,0,0,0,4.15,3.17,3.53,3.53,0,0,0,2.56.34c1.27-.44,1.88-2,1.88-3.44a7,7,0,0,0-3.34-5.84,7.27,7.27,0,0,0-6.53-.35,5,5,0,0,0-3.21,3.84c-.2,2,1.23,3.75,2.73,5,2.34,1.92,5.87,3.17,8.13,1.14a4.74,4.74,0,0,0,1.12-5,5,5,0,0,0-4-3.14,3.59,3.59,0,0,0-3.31,1.23A3.58,3.58,0,0,0,65.15,7a4.27,4.27,0,0,0,4.2,4.25,4.64,4.64,0,0,0,4.1-4.52,5.11,5.11,0,0,0-3.77-5,3.93,3.93,0,0,0-3.24.61,4.82,4.82,0,0,0-1.27,5.27,8.67,8.67,0,0,0,3.62,4.26c1.38.91,3.11,1.6,4.62,1a4.17,4.17,0,0,0,2.17-4.33A6.78,6.78,0,0,0,73,4.21"/><path class="cls-1" d="M26.52,35l-1.2.75q20-14.85,40.92-28.3L45,24.72c-5.91,4.82-11.88,9.67-18.6,13.1C35.07,27,47.85,20.92,57.7,11.32A138.66,138.66,0,0,1,23.58,37.15L40.28,26.62,24.63,37.7a16.18,16.18,0,0,0,7.91-4.6A20.35,20.35,0,0,0,22.88,38a20.63,20.63,0,0,0,9.4-5.89A19.6,19.6,0,0,0,22.64,38c13.68-8.45,26-19.09,38.29-29.68-.06,2-1.72,3.38-3.23,4.52L39.25,26.72,62,8.18l-9.18,8.07a35.55,35.55,0,0,0,8-5.3A70.28,70.28,0,0,0,46.32,21,75,75,0,0,0,61.23,9.77q-10.71,9.3-22.11,17.67,11-10,22.7-19.19c-11.55,11.59-25.58,20-39.46,28.25a14.41,14.41,0,0,0,7.15-3.7,59.59,59.59,0,0,0-8,5.17,8.75,8.75,0,0,0,5-3,8.27,8.27,0,0,0-5.51,3.15,6.87,6.87,0,0,0,5.46-2.65,13.09,13.09,0,0,0-5.84,3.8,18.66,18.66,0,0,0,6.94-5.34L19.6,39l38.64-26.5a16.19,16.19,0,0,0-5.34,4.26l7.75-6.9a7.41,7.41,0,0,1-3.08,4L64,9.54a12.87,12.87,0,0,1-5.61,5.23,14.19,14.19,0,0,1,3.38-3.38A92.42,92.42,0,0,0,45.5,24.91L59.3,12.17l-7.83,7.37a12.54,12.54,0,0,0,4.14-3.6q-11.85,9.71-24.5,18.25c-2.22,1.5-4.71,3-7.32,2.64L63.06,10.08A67.42,67.42,0,0,1,49.19,20.59,95.32,95.32,0,0,0,62.6,11.93,36.57,36.57,0,0,1,54,17.41,41.78,41.78,0,0,0,63.4,10.9c-13.62,6.64-22.86,21.51-37.1,26.5A147.56,147.56,0,0,1,64.68,11.69l-4.2,2.9"/><path class="cls-1" d="M53.14,29.32a62.89,62.89,0,0,0-.21,10.78,63.4,63.4,0,0,1-1-10.69,30.8,30.8,0,0,1,1.3,8.53l0-6.11v5.69l.47-7.2-.16,10.39a23.08,23.08,0,0,1-2.11-10.8A25.36,25.36,0,0,0,50.76,38a57.28,57.28,0,0,1,.89-9.84l-.05,1.2"/><path class="cls-1" d="M64.75,15a141.31,141.31,0,0,0,.59,14.24,95.41,95.41,0,0,0,1.12-12.42A91.78,91.78,0,0,0,66,29.23V15.16l0,12.27q.65-6.17.75-12.39a120.71,120.71,0,0,1,.45,12.43L66.81,14.6a122.33,122.33,0,0,1-.4,13.31v-.4a90.46,90.46,0,0,0,.3-11.7,55.12,55.12,0,0,0-.7,11v-.13"/><path class="cls-1" d="M53.66,21.06V19.89a23.07,23.07,0,0,1-.42,6.29V19.65l0,5.23.48-5.9A13.63,13.63,0,0,0,54,24.44,15.37,15.37,0,0,0,54.47,19l0,6.77.42-7.63a43.49,43.49,0,0,1-.41,8.52,12.72,12.72,0,0,0-1-6l-.63,4.69a15.71,15.71,0,0,0-.32-4.52A18.56,18.56,0,0,0,52,25.3a16.88,16.88,0,0,1-.44-4.91l0,3.15.4-1.18"/><path class="cls-1" d="M65.16,15.71l-6.44,1.08a10.19,10.19,0,0,1,4.08.75,56.42,56.42,0,0,1-6.24-.23,12.54,12.54,0,0,0,4.79-.62l-4.3,1c.33.22,5.26,5.09,5.65,5.09h1.17a9.53,9.53,0,0,1-5.8,0,20.26,20.26,0,0,0,6.14-.37,23.55,23.55,0,0,0-8.9.91l8.61.85"/><path class="cls-1" d="M55.71,36.3l-.29,0a10.24,10.24,0,0,1,4.29-.45H56.06a2.59,2.59,0,0,1,2.17.4L55,37.19a4.71,4.71,0,0,0,2.49-.35.46.46,0,0,0,.28.75"/><path class="cls-1" d="M27.78,10.71c4.87.74,9.79,1.49,14.69,1,5.5-.51,10.91-2.54,16.41-2-10.44-1.64-21.5,3.6-31.44-.17,10.07,1.17,20.5-1,30.25,1.88-2.32-1.73-5.44-1.33-8.26-1a92,92,0,0,1-21.19.12L59.32,11l-1.55-.34"/><path class="cls-1" d="M21.93,38.89l-2.41,2.49,2.69-2.51A2.67,2.67,0,0,0,20,41.08l3.08-2.66a4.94,4.94,0,0,0-3.12,2.68l3.93-2.7a5.07,5.07,0,0,0-3.08,2.52,5.36,5.36,0,0,0,3.49-2.42A9.91,9.91,0,0,0,20.47,42a12.73,12.73,0,0,0,4.22-4l-3.82,3.65,4.9-3.89-4.92,2.94a7.05,7.05,0,0,0,3.39-1.79,3.11,3.11,0,0,0-2.67,1.34.53.53,0,0,0,.78.33c-2,1.18.64.37-1.41,1.42l1.28-1.42-2.17,1.14c-.32-.1.19-.63.38-.33s-.09.69-.4.83a2.59,2.59,0,0,0-.9.44,2.91,2.91,0,0,1,1.18-1.59"/><path class="cls-1" d="M8.35,14.46a6.67,6.67,0,0,1-5.24-.93A91.39,91.39,0,0,1,20.6,11.94L4.74,11.78l19.67-.18c-.69-1.68-2.82-1.89-4.56-1.83l-11.1.34a38.25,38.25,0,0,1,13.08-.42L14,10.19h5a151.94,151.94,0,0,0-16.29.5,74.42,74.42,0,0,1,8.77-.5l-8.73.44H9.94l-8.42.88h8.9A49.94,49.94,0,0,0,2,11.76l8.44-.37a38.25,38.25,0,0,0-8.6-.75,25,25,0,0,1,7.33-.46H2.37q10.15.25,20.29.89a65.86,65.86,0,0,1-10.15-.46,63.67,63.67,0,0,1,11,.4l-21.39.74A7.86,7.86,0,0,1,6.72,11"/></g></g></g></svg>