<svg xmlns="http://www.w3.org/2000/svg" viewBox="0 0 80.07 68.62"><defs><style>.cls-1{fill:none;stroke:#000073;stroke-miterlimit:10;}</style></defs><title>YouTuber</title><g id="Layer_2" data-name="Layer 2"><g id="Icons"><g id="YouTube"><path class="cls-1" d="M8.63,10.28a58.08,58.08,0,0,0,3.63,56.29c.51.77,1.22,1.63,2.16,1.55s1.11-1.84.17-1.71"/><path class="cls-1" d="M10.43,57.39c.24-.38.76.4.37.63s-.88-.07-1.23-.36A19.35,19.35,0,0,1,4,47.89c-3-11.22.13-23.29,5.7-33.55a41.47,41.47,0,0,0-.83,41.52C2.35,46.64,3.44,34.42,4.79,23.31c.44-3.63.91-7.35,2.68-10.58a50.34,50.34,0,0,0,1.9,47.54,13.36,13.36,0,0,1-7.21-7.86A31.06,31.06,0,0,1,.58,41.74C.45,31.84,1.8,21.52,7.41,13.26A16.88,16.88,0,0,0,1.59,21,24.17,24.17,0,0,0,.93,32.94C2,39.74,4.56,46.22,7.11,52.64l4,10.1a9.19,9.19,0,0,1-.57-7.66,4.89,4.89,0,0,1-2.86-2.22C4.15,47.82,4,41.27,4.47,35.19A116.6,116.6,0,0,1,8.35,13.07a38.4,38.4,0,0,0,2.57,41.67c-.48-3.37-3.42-5.81-5.52-8.54C1.7,41.35.49,35,.9,29S3.23,17.18,5.26,11.47C4.5,12.57,3.48,8,2.71,9.05c11.36-.27,22.72-.61,34.08-1,6.77-.2,25.16-4,30.67,0,4.17,3,5.49,15.74,6.25,20.36a53.12,53.12,0,0,1-3.7,30l0-13.08c0-6.4,0-12.81-.54-19.18-.41-4.59-1.2-9.35-3.92-13.12C63.74,21.67,70,29.88,70.69,38.59c.48,6.23-1.92,12.3-4.38,18.08a9,9,0,0,0,2.39-4.35A87.46,87.46,0,0,0,70.09,4.91c.35,7.85,2.34,15.55,3,23.38s-.21,16.19-4.92,22.58c3.4-6.23,6.56-12.74,7.6-19.72s-.28-14.58-5-19.94a89.77,89.77,0,0,1,6.71,41.6c-1-4.92-.59-10-.67-15a86.07,86.07,0,0,0-5-27.63c4.3,8.91,8.71,18.4,7.59,28.18-1,8.34-5.81,15.7-10.53,22.72,3.4-13.85,5.68-28.66.93-42.13C71.87,31,73.84,44,68.39,55.09c-2.71,5.48-21.16,2.86-27,3L8.57,58.9"/><path class="cls-1" d="M4.77,11.39q31.74-1,63.47-2.41L54.53,8.3a157.37,157.37,0,0,0-21.74-.08c-7,.62-14.09,2.16-20.87.43l28.36.17c9.18.05,18.45.12,27.39,2.12L13.14,12c-2.82.05-5.78.14-8.23,1.49a567.27,567.27,0,0,0,69.67-2.9l-1.94.12"/><path class="cls-1" d="M10.14,62.14q28.42-1.89,56.93-1.88a223.21,223.21,0,0,0-55,.72c19.38.44,38.84.88,58.06-1.54a403.63,403.63,0,0,0-59.85.17c21.43.35,42.73-3.06,63.8-6.93C64.9,56,54.74,54.95,44.93,54.46a250.12,250.12,0,0,0-31.76.44"/><path class="cls-1" d="M28.86,28.77A58.3,58.3,0,0,0,29.37,42V22.52c.66,2.06,2.79,3.28,4.75,4.29l16.1,8.36L29.39,44.5"/><path class="cls-1" d="M29.64,23.62A114.24,114.24,0,0,1,30.38,44a67.43,67.43,0,0,0,1-18.82L32,47.86A195.72,195.72,0,0,0,50.8,32.8L31.31,44.73A53.34,53.34,0,0,0,50.67,32.81,82.53,82.53,0,0,1,30,22.91,114.8,114.8,0,0,0,54.22,31.2l-15.8-4.61"/></g></g></g></svg>